<svg id="MoneySaving" xmlns="http://www.w3.org/2000/svg" xmlns:xlink="http://www.w3.org/1999/xlink" viewBox="0 0 595.28 595.28"><defs><style>.cls-1,.cls-8{fill:none;}.cls-2{fill:#f5a623;}.cls-3,.cls-9{fill:#ae1f23;}.cls-4,.cls-7{fill:#fff;}.cls-5{fill:#f16522;}.cls-6{fill:#754c28;}.cls-7{opacity:0.5;}.cls-8{stroke:#afdab7;stroke-miterlimit:10;stroke-width:1.42px;}.cls-9{opacity:0.2;}.cls-10{fill:#0a6662;}.cls-11{clip-path:url(#clip-path);}.cls-12{clip-path:url(#clip-path-2);}.cls-13{fill:url(#linear-gradient);}.cls-14{fill:#58595b;}</style><clipPath id="clip-path"><rect class="cls-1" x="190.64" y="144.82" width="161.95" height="114.51"/></clipPath><clipPath id="clip-path-2"><path class="cls-1" d="M253.06,195.7a3.82,3.82,0,1,1,3.83,4,3.88,3.88,0,0,1-3.83-4M266.35,168a2.3,2.3,0,0,0-.81,2.61c-4.07,5.18-6.25,12.08-8.1,19.95a5.41,5.41,0,0,0-.56,0,5.22,5.22,0,0,0-2.26.5c-2.73-6-2.71-12.18-3.09-14.73a2,2,0,0,0,.83-1.54c.16-1.1-.31-2.09-1-2.2s-1.45.69-1.6,1.79.31,2.09,1,2.2h.14c.39,2.59.35,8.87,2.91,15a5.14,5.14,0,0,0-.59.51,5.11,5.11,0,0,0-.33,6.9c-3,5.12-4,10.49-4.77,12.76l-.14,0c-.74,0-1.37.86-1.42,2s.51,2,1.24,2.06,1.37-.86,1.42-2a2,2,0,0,0-.53-1.67c.77-2.23,1.78-7.5,4.83-12.49a5.06,5.06,0,0,0,2.61,1.17,79.28,79.28,0,0,0,1.15,18.91,2.3,2.3,0,0,0-.76,2.62c.3,1.33,1.32,2.24,2.28,2s1.48-1.44,1.18-2.77a2.66,2.66,0,0,0-1.56-2,.91.91,0,0,0-.45-.11,80.77,80.77,0,0,1-.88-18.66,5.24,5.24,0,0,0,3.21-1.28c3,8.08,11.46,13.88,14.38,15.83a2.93,2.93,0,0,0,.07,1.64,2.56,2.56,0,0,0,3,1.87,2.41,2.41,0,0,0,1.31-3.18,2.56,2.56,0,0,0-3-1.87,2,2,0,0,0-1.06.8c-3.29-2.4-11.14-7.95-13.88-16a5.1,5.1,0,0,0,.27-5.49c4.27-11.7,18.41-12.51,23.52-7.92a1.86,1.86,0,0,0-.14,1.1,3.34,3.34,0,0,0,1.92,2.33,2.48,2.48,0,0,0,2.92-1c.73-1.39-.38-2.92-1.22-3.37a2.87,2.87,0,0,0-2.91,0c-6.82-5-20-3.61-24.73,7.91l-.19-.2a5.23,5.23,0,0,0-2.15-1.29c1.68-7.65,3.67-14.11,7.59-19.59a.91.91,0,0,0,.44.16,2.66,2.66,0,0,0,2.4-.8c1-.94,1.23-2.26.54-3a1.49,1.49,0,0,0-1.08-.42,2.91,2.91,0,0,0-1.94.86"/></clipPath><linearGradient id="linear-gradient" x1="-124.59" y1="-0.46" x2="-124.39" y2="-0.46" gradientTransform="matrix(300.87, 0, 0, -300.87, 37722.08, 58.34)" gradientUnits="userSpaceOnUse"><stop offset="0" stop-color="#831921"/><stop offset="0.66" stop-color="#e8484a"/><stop offset="1" stop-color="#ef4b4d"/></linearGradient></defs><title>convien_features</title><g id="Layer_3" data-name="Layer 3"><rect class="cls-2" width="595.28" height="595.28"/></g><rect class="cls-3" x="171.81" y="146.84" width="200" height="342.79" rx="19.32" ry="19.32"/><rect class="cls-4" x="184.48" y="158.77" width="176.17" height="300.94" rx="13.38" ry="13.38"/><rect class="cls-4" x="252.81" y="465.85" width="37" height="17.33" rx="8.67" ry="8.67"/><rect class="cls-3" x="214.88" y="405.1" width="116.92" height="36.67" rx="18.33" ry="18.33"/><path class="cls-4" d="M243.87,424.69a3.07,3.07,0,0,1,.59,1.94,3.28,3.28,0,0,1-1.19,2.9,4.85,4.85,0,0,1-2.83.82h-4.35a1,1,0,0,1-1.07-1.07v-10.1a1,1,0,0,1,1.07-1.07h4.4q3.32,0,3.32,3.11a2.57,2.57,0,0,1-.38,1.39,2.6,2.6,0,0,1-1.07,1A3.52,3.52,0,0,1,243.87,424.69Zm-2.69-4.15a1.36,1.36,0,0,0-1-.36h-2.88v2.73h2.94a1.34,1.34,0,0,0,.92-.35,1.2,1.2,0,0,0,.39-.94A1.46,1.46,0,0,0,241.18,420.54Zm.54,7.37a1.67,1.67,0,0,0,.46-1.28,1.43,1.43,0,0,0-.54-1.35,2.6,2.6,0,0,0-1.33-.32h-3v3.37h3.15A1.79,1.79,0,0,0,241.72,427.91Z"/><path class="cls-4" d="M257,427.41a5.89,5.89,0,0,1-2.12,2.28,6,6,0,0,1-6.1,0,5.82,5.82,0,0,1-2.11-2.28,7,7,0,0,1,0-6.34,5.82,5.82,0,0,1,2.11-2.28,6,6,0,0,1,6.1,0,5.89,5.89,0,0,1,2.12,2.28,6.93,6.93,0,0,1,0,6.34Zm-2-5.3a3.81,3.81,0,0,0-1.31-1.51,3.5,3.5,0,0,0-3.78,0,3.69,3.69,0,0,0-1.29,1.51,5.14,5.14,0,0,0,0,4.26,3.68,3.68,0,0,0,1.29,1.51,3.5,3.5,0,0,0,3.78,0,3.8,3.8,0,0,0,1.31-1.51,5,5,0,0,0,0-4.25Z"/><path class="cls-4" d="M270.22,427.41a5.89,5.89,0,0,1-2.12,2.28,6,6,0,0,1-6.1,0,5.82,5.82,0,0,1-2.11-2.28,7,7,0,0,1,0-6.34,5.82,5.82,0,0,1,2.11-2.28,6,6,0,0,1,6.1,0,5.89,5.89,0,0,1,2.12,2.28,6.93,6.93,0,0,1,0,6.34Zm-2-5.3a3.81,3.81,0,0,0-1.31-1.51,3.5,3.5,0,0,0-3.78,0,3.69,3.69,0,0,0-1.29,1.51,5.14,5.14,0,0,0,0,4.26,3.68,3.68,0,0,0,1.29,1.51,3.5,3.5,0,0,0,3.78,0,3.8,3.8,0,0,0,1.31-1.51,5,5,0,0,0,0-4.25Z"/><path class="cls-4" d="M282.54,428.88a1.15,1.15,0,0,1,.07.38,1,1,0,0,1-.36.79,1.22,1.22,0,0,1-.83.31,1,1,0,0,1-.44-.1,1,1,0,0,1-.35-.3l-3.79-5-1.66,1.59v2.74a1,1,0,0,1-.31.77,1.09,1.09,0,0,1-.8.3,1.05,1.05,0,0,1-.78-.31,1,1,0,0,1-.31-.76v-10.1a1,1,0,0,1,.31-.76,1.1,1.1,0,0,1,.8-.31,1,1,0,0,1,1.07,1.07v4.75l5.59-5.51a1.2,1.2,0,0,1,.86-.4.86.86,0,0,1,.68.33,1.07,1.07,0,0,1,.28.7,1,1,0,0,1-.31.68l-3.81,3.64,3.9,5.16A1.25,1.25,0,0,1,282.54,428.88Z"/><path class="cls-4" d="M286.3,430.05a1.1,1.1,0,0,1-.77.31,1.05,1.05,0,0,1-.78-.31,1,1,0,0,1-.31-.76v-10.1a1,1,0,0,1,.31-.76,1.1,1.1,0,0,1,.8-.31,1,1,0,0,1,.75.31,1,1,0,0,1,.31.76v10.1A1,1,0,0,1,286.3,430.05Z"/><path class="cls-4" d="M299.22,418.4a1,1,0,0,1,.26.7v10.19a1,1,0,0,1-1.07,1.07,1.5,1.5,0,0,1-.48-.08.68.68,0,0,1-.34-.22l-6.41-8.15v7.46a1,1,0,0,1-.27.7.94.94,0,0,1-.71.28.89.89,0,0,1-.68-.28,1,1,0,0,1-.26-.7V419.19a1,1,0,0,1,1.07-1.07,1.33,1.33,0,0,1,.52.1.83.83,0,0,1,.38.28l6.36,8.11V419.1a1,1,0,0,1,.27-.7.92.92,0,0,1,.69-.28A.89.89,0,0,1,299.22,418.4Z"/><path class="cls-4" d="M311.87,424.06a1,1,0,0,1,.3.76v3.71a1,1,0,0,1-.54.94,7,7,0,0,1-3.76,1.07,6.28,6.28,0,0,1-3.2-.85,6.35,6.35,0,0,1-2.32-2.29,6.24,6.24,0,0,1,0-6.31,6.41,6.41,0,0,1,5.52-3.14,6.16,6.16,0,0,1,3,.7.95.95,0,0,1,.52.86,1.11,1.11,0,0,1-.29.76.91.91,0,0,1-.71.32,1.43,1.43,0,0,1-.58-.14,5,5,0,0,0-2-.4,3.93,3.93,0,0,0-2.06.57,4.23,4.23,0,0,0,0,7.25,3.93,3.93,0,0,0,2.06.57,6.77,6.77,0,0,0,1-.09,6.06,6.06,0,0,0,1-.23v-2.27h-1.64a1,1,0,0,1-.76-.3,1.08,1.08,0,0,1,0-1.5,1,1,0,0,1,.76-.3h2.87A1,1,0,0,1,311.87,424.06Z"/><path class="cls-5" d="M329.73,120.77a15.12,15.12,0,0,0-15.12-15.13h82.54a16.42,16.42,0,0,1,16.42,16.42v71.58H360v26.13a15.13,15.13,0,1,1-30.25,0V147H314.61v-.08h15.13Z"/><path class="cls-6" d="M314.61,105.65a15.12,15.12,0,0,1,15.13,15.13V146.9H299.48V120.77A15.12,15.12,0,0,1,314.61,105.65Z"/><path class="cls-7" d="M339,121.67v85.87h64V121.67H339Zm21.09.71v13.48h-9.84V122.38ZM381.2,165v13.48h-9.84V165Zm-9.84-.71V150.76h9.84v13.48Zm-.71,14.19h-9.84V165h9.84Zm-9.84-14.19V150.76h9.84v13.48Zm0-14.19V136.57h9.84v13.48Zm10.55-13.48h9.84v13.48h-9.84Zm10.54,0h9.84v13.48h-9.84Zm9.84,14.19v13.48h-9.84V150.76Zm0,14.19v13.48h-9.84V165Zm0,14.19v13.48h-9.84V179.15ZM381.2,192.63h-9.84V179.15h9.84Zm-10.54,0h-9.84V179.15h9.84Zm-10.55,0h-9.84V179.15h9.84Zm-9.84-14.19V165h9.84v13.48Zm0-14.19V150.76h9.84v13.48Zm0-14.19V136.57h9.84v13.48Zm20.38-27.68v13.48h-9.84V122.38Zm10.54,0v13.48h-9.84V122.38Zm10.55,0v13.48h-9.84V122.38Zm10.55,13.48h-9.84V122.38h9.84Zm0,14.19h-9.84V136.57h9.84Zm0,14.19h-9.84V150.76h9.84Zm0,14.19h-9.84V165h9.84Zm0,14.19h-9.84V179.15h9.84Zm-9.84,14.19V193.34h9.84v13.48Zm-10.55,0V193.34h9.84v13.48Zm-10.54,0V193.34h9.84v13.48Zm-10.55,0V193.34h9.84v13.48Zm-10.55,0V193.34h9.84v13.48Zm-10.54-13.48h9.84v13.48h-9.84Zm0-14.19h9.84v13.48h-9.84Zm0-14.19h9.84v13.48h-9.84Zm0-14.19h9.84v13.48h-9.84Zm0-14.19h9.84v13.48h-9.84Zm0-.71V122.38h9.84v13.48Z"/><polyline class="cls-8" points="339.73 192.63 349.57 179.15 360.11 185.89 371.37 178.44 381.2 178.44 391.75 164.24 402.3 135.86"/><path class="cls-6" d="M360,219.77V193.65h81.21v26.13a15.13,15.13,0,0,1-15.13,15.13H344.9A15.13,15.13,0,0,0,360,219.77Z"/><path class="cls-9" d="M379.56,201.9a3.54,3.54,0,0,0-5.58,2.9V228H171.81v16H396.48V220.8a3.54,3.54,0,0,1,5.58-2.9Z"/><rect class="cls-9" x="171.81" y="375.99" width="224.67" height="18"/><path class="cls-6" d="M91.81,393.73h0c0,.06,0,.11,0,.17a17.83,17.83,0,0,0,17.82,17.67h62.17V375.9H109.65A17.83,17.83,0,0,0,91.81,393.73Z"/><path class="cls-4" d="M529.11,307l-21.75-15.27L402.06,217.82a3.54,3.54,0,0,0-5.58,2.9V243.9H110.87A19.06,19.06,0,0,0,91.81,263V393.73a17.83,17.83,0,0,1,17.83-17.83H396.48v23.18a3.54,3.54,0,0,0,5.58,2.9l127-89.18A3.54,3.54,0,0,0,529.11,307Zm-276.29-9.33V286.57h13.5v65.17h-13.5Zm-21.5,8.06V265.94h13.5v85.79h-13.5Zm-22,2.94V286.57h13.5v65.17h-13.5Zm-21.5,29.56v-39h13.5v52.5h-13.5Zm-29.67-41.6v55.1h-13.5V286.57h13.5Zm8.33,55.1V272.64H180v79.09h-13.5Z"/><rect class="cls-5" x="144.65" y="286.57" width="13.5" height="10.07"/><rect class="cls-10" x="144.65" y="296.64" width="13.5" height="55.1"/><polygon class="cls-5" points="171.81 272.64 166.48 272.64 166.48 325.73 171.81 325.73 179.98 325.73 179.98 272.64 171.81 272.64"/><polygon class="cls-10" points="171.81 325.73 166.48 325.73 166.48 351.73 171.81 351.73 179.98 351.73 179.98 325.73 171.81 325.73"/><rect class="cls-5" x="187.81" y="299.24" width="13.5" height="39"/><rect class="cls-10" x="187.81" y="338.23" width="13.5" height="13.5"/><rect class="cls-5" x="209.31" y="286.57" width="13.5" height="22.11"/><rect class="cls-10" x="209.31" y="308.67" width="13.5" height="43.06"/><rect class="cls-5" x="231.31" y="265.94" width="13.5" height="39.79"/><rect class="cls-10" x="231.31" y="305.73" width="13.5" height="46"/><rect class="cls-5" x="252.81" y="286.57" width="13.5" height="11.11"/><rect class="cls-10" x="252.81" y="297.67" width="13.5" height="54.06"/><g class="cls-11"><g class="cls-12"><rect class="cls-13" x="235.05" y="167.29" width="66.75" height="57.17" transform="translate(9.75 404.46) rotate(-75)"/></g><g class="cls-11"><path class="cls-14" d="M249.28,189.23a7.36,7.36,0,0,0-2.33-1.75,6.49,6.49,0,0,0-2.73-.57,6.13,6.13,0,0,0-4.35,1.85,6.08,6.08,0,0,0-1.31,2,6.73,6.73,0,0,0-.44,2.47,7,7,0,0,0,.26,2,5.6,5.6,0,0,0,.78,1.64,6.33,6.33,0,0,0,2.25,2,6.32,6.32,0,0,0,5.59.1,7.08,7.08,0,0,0,2.28-1.8v2.4a8.67,8.67,0,0,1-5.14,1.66,7.8,7.8,0,0,1-2.35-.36,8,8,0,0,1-2.14-1,7.73,7.73,0,0,1-3.42-6.54,8.39,8.39,0,0,1,.59-3.2,7.7,7.7,0,0,1,1.79-2.61,7.82,7.82,0,0,1,2.58-1.68,8.36,8.36,0,0,1,3.09-.56,8.26,8.26,0,0,1,2.56.4,9.26,9.26,0,0,1,2.44,1.24Z"/><path class="cls-14" d="M264.76,200.81V191.3h1.59v1.47a4,4,0,0,1,1.48-1.36,4.28,4.28,0,0,1,2-.45,3.68,3.68,0,0,1,2.63.89,3.25,3.25,0,0,1,.95,2.48v6.48h-1.66v-5.6a3.21,3.21,0,0,0-.61-2.15,2.35,2.35,0,0,0-1.88-.7,3.23,3.23,0,0,0-1.33.27,2.62,2.62,0,0,0-1,.75,2.31,2.31,0,0,0-.43.85,7.23,7.23,0,0,0-.13,1.66v4.92Z"/><polygon class="cls-14" points="279.75 201.41 275.05 191.3 276.87 191.3 279.73 197.94 282.6 191.3 284.43 191.3 279.75 201.41"/><rect class="cls-14" x="286.27" y="191.3" width="1.64" height="9.51"/><path class="cls-14" d="M299.84,196.3H292.3v.15a3.48,3.48,0,0,0,.87,2.47,3,3,0,0,0,2.28.94,3,3,0,0,0,1.73-.51,4.5,4.5,0,0,0,1.36-1.55l1.24.83a4.76,4.76,0,0,1-4.41,2.6,4.59,4.59,0,0,1-3.51-1.43,5.29,5.29,0,0,1-1.34-3.76,5.15,5.15,0,0,1,1.33-3.66,4.47,4.47,0,0,1,3.42-1.42,4.3,4.3,0,0,1,3.34,1.35,5.27,5.27,0,0,1,1.23,3.69ZM298.09,195a2.74,2.74,0,0,0-.84-1.94,3,3,0,0,0-2.06-.68A2.78,2.78,0,0,0,292.3,195Z"/><path class="cls-14" d="M302.29,200.81V191.3h1.59v1.47a4,4,0,0,1,1.48-1.36,4.28,4.28,0,0,1,2-.45,3.68,3.68,0,0,1,2.63.89,3.25,3.25,0,0,1,.95,2.48v6.48h-1.66v-5.6a3.21,3.21,0,0,0-.61-2.15,2.35,2.35,0,0,0-1.88-.7,3.23,3.23,0,0,0-1.33.27,2.62,2.62,0,0,0-1,.75,2.31,2.31,0,0,0-.43.85,7.23,7.23,0,0,0-.13,1.66v4.92Z"/></g></g><path class="cls-3" d="M358,266.42a47.82,47.82,0,1,0,47.82,47.82A47.82,47.82,0,0,0,358,266.42Zm13.6,68.07a3.2,3.2,0,0,1-1.21,1.14,22.1,22.1,0,0,1-5.34,2.41,20.05,20.05,0,0,1-5.89.9,22.94,22.94,0,0,1-13.57-4.24,22.24,22.24,0,0,1-8.4-11.81h-3.86a3.4,3.4,0,0,1-2.41-.9,3.16,3.16,0,0,1,0-4.55,3.41,3.41,0,0,1,2.41-.9H336q-.07-.76-.07-2.41V312.9h-2.62a3.41,3.41,0,0,1-2.41-.9,3.16,3.16,0,0,1,0-4.55,3.41,3.41,0,0,1,2.41-.9H337a23.41,23.41,0,0,1,4.58-8.89,22.25,22.25,0,0,1,7.75-6,22.88,22.88,0,0,1,9.85-2.14,20.1,20.1,0,0,1,5.82.86,21.3,21.3,0,0,1,5.34,2.45A2.94,2.94,0,0,1,372,295.6a3.56,3.56,0,0,1-.83,2.27,2.68,2.68,0,0,1-2.27,1.1,3.86,3.86,0,0,1-1.86-.48,14,14,0,0,0-7.85-2.41,16,16,0,0,0-15.36,10.54l11.09.07a3.41,3.41,0,0,1,2.41.9,2.89,2.89,0,0,1,1,2.2,3,3,0,0,1-1,2.27,3.41,3.41,0,0,1-2.41.9l-12.4-.07v1.24q0,.83.14,2.48l12.26.07a3.41,3.41,0,0,1,2.41.9,2.89,2.89,0,0,1,1,2.2,3,3,0,0,1-1,2.27,3.4,3.4,0,0,1-2.41.9H344.25a15.32,15.32,0,0,0,6,7,16.59,16.59,0,0,0,9,2.48A13.3,13.3,0,0,0,367,330a4,4,0,0,1,1.79-.41,2.88,2.88,0,0,1,2.41,1.17,3.47,3.47,0,0,1,.83,2.2A2.9,2.9,0,0,1,371.63,334.49Z"/></svg>