<svg xmlns="http://www.w3.org/2000/svg" xmlns:xlink="http://www.w3.org/1999/xlink" viewBox="0 0 595.28 595.28"><defs><style>.cls-1{fill:none;}.cls-2{fill:#4a4a4a;}.cls-3,.cls-5{fill:#fffffd;}.cls-4{fill:#e6e7e8;}.cls-5,.cls-7{opacity:0.5;}.cls-6,.cls-7,.cls-8,.cls-9{fill:#9b9b9b;}.cls-6{opacity:0.3;}.cls-9{opacity:0.8;}.cls-10{fill:#005194;}.cls-10,.cls-15,.cls-16,.cls-18{stroke:#fff;stroke-miterlimit:10;stroke-width:5.67px;}.cls-11{fill:#ef5040;}.cls-12{fill:#fff;}.cls-13{fill:#754c28;}.cls-14,.cls-16{fill:#f5a620;}.cls-15,.cls-17{fill:#ae1f23;}.cls-18{fill:#427638;}.cls-19{fill:#82ddf9;}.cls-20{clip-path:url(#clip-path);}.cls-21{clip-path:url(#clip-path-2);}.cls-22{fill:url(#linear-gradient);}.cls-23{fill:#58595b;}</style><clipPath id="clip-path"><rect class="cls-1" x="203.16" y="244.26" width="190.87" height="134.96"/></clipPath><clipPath id="clip-path-2"><path class="cls-1" d="M276.73,304.23a4.5,4.5,0,1,1,4.51,4.71,4.57,4.57,0,0,1-4.51-4.71m15.66-32.59c-1,1-1.42,2.21-1,3.07-4.8,6.1-7.37,14.23-9.54,23.51a6.38,6.38,0,0,0-.66,0,6.16,6.16,0,0,0-2.67.59c-3.22-7-3.19-14.35-3.64-17.37a2.37,2.37,0,0,0,1-1.82c.19-1.3-.36-2.46-1.22-2.6s-1.7.81-1.89,2.11.36,2.46,1.22,2.6h.17c.46,3.06.41,10.45,3.43,17.63a6.05,6.05,0,0,0-.69.6,6,6,0,0,0-.38,8.14c-3.5,6-4.69,12.37-5.62,15l-.17,0c-.87,0-1.62,1-1.68,2.33s.6,2.4,1.47,2.42,1.62-1,1.68-2.33a2.37,2.37,0,0,0-.62-2c.91-2.63,2.1-8.84,5.69-14.72a6,6,0,0,0,3.07,1.38,93.45,93.45,0,0,0,1.35,22.29c-.87.46-1.21,1.72-.9,3.09.36,1.56,1.56,2.64,2.68,2.4s1.75-1.7,1.39-3.26a3.14,3.14,0,0,0-1.84-2.35,1.08,1.08,0,0,0-.54-.13,95.2,95.2,0,0,1-1-22,6.17,6.17,0,0,0,3.79-1.51c3.53,9.52,13.51,16.36,16.95,18.65a3.46,3.46,0,0,0,.09,1.94,3,3,0,0,0,3.52,2.21,2.84,2.84,0,0,0,1.55-3.75,3,3,0,0,0-3.52-2.21,2.31,2.31,0,0,0-1.25.95c-3.88-2.82-13.12-9.37-16.36-18.84a6,6,0,0,0,.32-6.47c5-13.79,21.69-14.74,27.72-9.33a2.2,2.2,0,0,0-.16,1.3,3.94,3.94,0,0,0,2.27,2.75,2.92,2.92,0,0,0,3.44-1.15c.86-1.64-.45-3.44-1.44-4a3.38,3.38,0,0,0-3.43.05c-8-5.86-23.59-4.25-29.15,9.32l-.22-.23a6.17,6.17,0,0,0-2.54-1.52c2-9,4.33-16.63,8.94-23.09a1.08,1.08,0,0,0,.52.19,3.14,3.14,0,0,0,2.83-.94c1.16-1.11,1.45-2.67.64-3.49a1.75,1.75,0,0,0-1.28-.49,3.43,3.43,0,0,0-2.28,1"/></clipPath><linearGradient id="linear-gradient" x1="-752.16" y1="-2.65" x2="-751.93" y2="-2.65" gradientTransform="matrix(300.87, 0, 0, -300.87, 226559.14, -493.09)" gradientUnits="userSpaceOnUse"><stop offset="0" stop-color="#831921"/><stop offset="0.66" stop-color="#e8484a"/><stop offset="1" stop-color="#ef4b4d"/></linearGradient></defs><title>convien_features</title><g id="TravelInfo"><rect class="cls-2" width="595.28" height="595.28"/><path class="cls-3" d="M355.11,475.66A23.64,23.64,0,0,1,338.67,465a20.35,20.35,0,0,1-3.17-10.83V440.88H259.08v13.65a21.88,21.88,0,0,1-18.73,21.6,3.51,3.51,0,0,0,.42,7H354.66a3.75,3.75,0,0,0,3.75-3.75A3.79,3.79,0,0,0,355.11,475.66Z"/><rect class="cls-4" x="162.93" y="240.41" width="269.42" height="200.47" rx="6.48" ry="6.48"/><path class="cls-5" d="M335.5,454.14v-5.28H259.08v5.68A21.69,21.69,0,0,1,256.4,465h82.27A20.35,20.35,0,0,1,335.5,454.14Z"/><path class="cls-6" d="M335.5,454.14v-5.28H259.08v5.68A21.69,21.69,0,0,1,256.4,465h82.27A20.35,20.35,0,0,1,335.5,454.14Z"/><rect class="cls-5" x="259.08" y="440.88" width="76.42" height="7.97"/><rect class="cls-7" x="259.08" y="440.88" width="76.42" height="7.97"/><path class="cls-8" d="M185.16,252.77a8.68,8.68,0,0,0-8.68,8.68V398.73a8.68,8.68,0,0,0,8.68,8.68H296.55L219.41,252.77Z"/><path class="cls-9" d="M410.92,252.77H219.41l77.14,154.64H410.92a8.68,8.68,0,0,0,8.68-8.68V261.45A8.68,8.68,0,0,0,410.92,252.77Z"/><circle class="cls-10" cx="492.61" cy="264.05" r="68.27"/><rect class="cls-11" x="462.4" y="226.62" width="60.42" height="85.12"/><rect class="cls-12" x="469.25" y="235.45" width="11.25" height="13.78"/><rect class="cls-12" x="486.99" y="235.45" width="11.25" height="13.78"/><rect class="cls-12" x="504.73" y="235.45" width="11.25" height="13.78"/><rect class="cls-12" x="469.25" y="255.61" width="11.25" height="13.78"/><rect class="cls-12" x="486.99" y="255.61" width="11.25" height="13.78"/><rect class="cls-12" x="504.73" y="255.61" width="11.25" height="13.78"/><rect class="cls-12" x="469.25" y="275.77" width="11.25" height="13.78"/><path class="cls-12" d="M492.61,282.67h0a7.66,7.66,0,0,1,7.66,7.66v21.42a0,0,0,0,1,0,0H485a0,0,0,0,1,0,0V290.32A7.66,7.66,0,0,1,492.61,282.67Z"/><rect class="cls-12" x="504.73" y="275.77" width="11.25" height="13.78"/><path class="cls-13" d="M487.6,285l5-1.08,5,1.08a.61.61,0,0,0,.61-.61V282a.61.61,0,0,0-.61-.61l-5-1.08-5,1.08a.61.61,0,0,0-.61.61v2.4A.61.61,0,0,0,487.6,285Z"/><rect class="cls-8" x="482.34" y="309.03" width="20.55" height="2.71"/><polygon class="cls-14" points="479.1 211.53 480.85 215.07 484.76 215.64 481.93 218.39 482.6 222.29 479.1 220.45 475.61 222.29 476.27 218.39 473.45 215.64 477.36 215.07 479.1 211.53"/><polygon class="cls-14" points="492.61 211.53 494.36 215.07 498.27 215.64 495.44 218.39 496.11 222.29 492.61 220.45 489.12 222.29 489.79 218.39 486.96 215.64 490.87 215.07 492.61 211.53"/><polygon class="cls-14" points="506.13 211.53 507.87 215.07 511.78 215.64 508.95 218.39 509.62 222.29 506.13 220.45 502.63 222.29 503.3 218.39 500.47 215.64 504.38 215.07 506.13 211.53"/><circle class="cls-15" cx="102.66" cy="264.05" r="68.27"/><path class="cls-14" d="M96.54,233.46m0,0c-4.3.25-8.73.47-13.15.77-3.81.26-5.18,1.42-6.34,5-1,3.08-2,6.15-3.11,9.2a21.46,21.46,0,0,1-1.22,2.35c-1.57-3.14-3.93-3.6-6.43-2.62-1.81.71-.87,4.42,1.12,4.57a18.49,18.49,0,0,0,2.26,0c.64,0,1.27-.13,1.9-.19,0,.38.13.59.07.64-6.5,5.56-7.42,13.07-7.37,20.93,0,2.41-.14,4.84.09,7.23.14,1.42,1,2.76,1.31,4.18a16.48,16.48,0,0,1,.45,3.71c0,7.11,0,7.11,7.09,7.08,3.82,0,4.52-.7,4.52-4.45,0-1.94,0-3.89,0-6H127.8c0,2.12,0,4.27,0,6.42,0,3.13.92,4,4.09,4,1.51,0,3,0,4.52,0a2.78,2.78,0,0,0,3-3c.05-1.13,0-2.26,0-3.39,0-2-.36-4.06,1.19-5.77a2.3,2.3,0,0,0,.45-1.49c-.16-5.54-.47-11.08-.53-16.62s-2.67-9.67-6.85-13.18c2.31-.87,5.13,1.47,6.13-1.78a3.39,3.39,0,0,0-.74-3c-1.4-1.18-4.23-.09-6.4,2.29a21.54,21.54,0,0,1-1-2.15c-1.08-3.05-2.17-6.1-3.14-9.19-1.09-3.47-3.33-5.18-7-5.22-6-.07-12.06-.29-18.09-.4C101,233.43,98.92,233.38,96.54,233.46Zm28.58,16.92h-45c.82-3.22,1.67-6.33,2.4-9.47a3,3,0,0,1,3.19-2.59c11.43,0,22.87-.06,34.3.07a3.5,3.5,0,0,1,2.66,1.85C123.69,243.52,124.32,246.92,125.12,250.37Zm6.27,27.53a2.15,2.15,0,1,1,2.15,2.15A2.15,2.15,0,0,1,131.39,277.91ZM119,267.76c1.42-5.36,2.88-7.23,8-7.21.35,0,.71,0,1.09,0h2.61c.48,0,1,0,1.45,0a3.22,3.22,0,0,1,3.23,2.65,18.14,18.14,0,0,1,.45,4c0,2.12-1.09,3.16-3.23,3.24-1,0-1.92,0-2.88,0l-3,0h-2.48c-1,0-1.92,0-2.88,0C119.08,270.48,118.45,269.83,119,267.76Zm-45.19,2.75c-2.17-.07-3.17-1.08-3.21-3.22a19.35,19.35,0,0,1,.2-3.15c.36-2.49,1.52-3.49,4.1-3.57,1.28,0,2.56,0,3.84,0,5.33-.16,6.91,2,8.25,7.61.38,1.62-.45,2.38-2.11,2.35s-3.61,0-5.42,0h0C77.57,270.52,75.69,270.57,73.81,270.51Zm-3.22,7.4a2.15,2.15,0,1,1,2.15,2.15A2.15,2.15,0,0,1,70.59,277.91Z"/><circle class="cls-16" cx="375.32" cy="162.63" r="68.27"/><path class="cls-17" d="M374.28,116.83m3.68.07-3.68-.07a38.71,38.71,0,0,0-13.05,2.73c-8.7,3.42-13.53,10-14.14,19.5a6.3,6.3,0,0,1-.55,2.21,34.41,34.41,0,0,0-3,14.86c0,5.45,0,10.91,0,16.36,0,1.43.27,2.12,1.89,2.24,9.89.73,19.77,1.91,29.67,2.22,6.32.2,12.67-.85,19-1.34l13.55-1.08c0-3.31.07-6.45,0-9.57-.12-4.59-.12-9.21-.62-13.76-.36-3.28-1.47-6.47-2.21-9.71a36.93,36.93,0,0,1-.67-3.66c-1.14-9.1-6.3-15.1-14.63-18.32A39.39,39.39,0,0,0,378,116.9M364.8,165.36h21.6c.74,0,1.47.07,2.2.11v3H362.66C362.21,165.4,362.23,165.36,364.8,165.36Zm-2.4-5.58c0-1.26.59-1.51,1.68-1.5,7.75,0,15.5,0,23.25,0a10.71,10.71,0,0,1,1.29.16v2.73a7.58,7.58,0,0,1-1,.15c-7.89,0-15.78,0-23.67,0C362.76,161.4,362.42,160.92,362.4,159.79Zm-9.15-1.58a4.76,4.76,0,0,1,4.72,4.62,4.58,4.58,0,0,1-9.15.07A4.76,4.76,0,0,1,353.25,158.21Zm19.47-22.31c0,.4-.94,1.06-1.49,1.12-2.64.27-5.29.33-7.94.54s-5.39.55-8.3.85c-.38-4.28-.33-8.09,3.41-10.64,4.26-2.91,9.14-3.46,14.39-3.76C372.79,128.12,372.83,132,372.72,135.9Zm23.22,2.4-17.4-1.46V124c4.55.21,8.82.74,12.74,2.8C395.47,129,397.21,132.13,395.94,138.3Zm6.78,24.5a5.05,5.05,0,0,1-5,4.92c-2.24,0-4.46-2.5-4.45-5a4.57,4.57,0,0,1,4.53-4.53C400.17,158.23,402.69,160.59,402.72,162.8Z"/><path class="cls-17" d="M346.33,189.31c-1-3.31-1.8-6.69-2.75-10.39,10.92.95,21.48,2.57,32,2.59s21.11-1.59,31.88-2.5c-.79,3.26-1.56,6.2-2.19,9.17-.27,1.27-.78,1.92-2.15,2-12.67.64-25.27,3.06-38,1.44-5.47-.7-11-.91-16.5-1.41C347.81,190.13,346.49,189.81,346.33,189.31Z"/><path class="cls-17" d="M399.42,196a11.63,11.63,0,0,1,3.91.37c5.18,2,10.3,4.26,15.41,6.49.48.21.74,1,1.1,1.45a4.76,4.76,0,0,1-1.55.62q-6.38.08-12.76,0a4.52,4.52,0,0,1-2.16-.57Q398.16,201.29,393,198a6,6,0,0,1-1.2-1.53l.49-.51C394.69,196,397.06,196,399.42,196Z"/><path class="cls-17" d="M332.62,202.83c5-2.17,10-4.28,15-6.36a6.31,6.31,0,0,1,2.23-.43q3.87-.09,7.74,0a6,6,0,0,1,1.63.52c-.37.52-.62,1.22-1.12,1.54-3.35,2.13-6.75,4.2-10.15,6.25a3.68,3.68,0,0,1-1.73.61c-4.88,0-9.75,0-14.63,0l-.55-.62C331.57,203.84,332,203.1,332.62,202.83Z"/><circle class="cls-18" cx="219.96" cy="162.63" r="68.27"/><path class="cls-19" d="M225,170.54l36.58,16.88v-3.27a5.9,5.9,0,0,0-2.28-4.66L225,152.82V128.6c0-2.77-2.24-10.55-5-10.55s-5,7.78-5,10.55v24.22l-34.3,26.68a5.9,5.9,0,0,0-2.28,4.66v3.27l36.58-16.88v13.8c0,.76.17,2.85.48,5.47l-9.35,7.71a2.63,2.63,0,0,0-.8,1.93v2.64l11.62-2.69c.85,4.28,1.91,7.79,3.07,7.79s2.21-3.48,3.06-7.75l11.45,2.65v-2.9a2.63,2.63,0,0,0-.8-1.93l-9.18-7.4c.31-2.65.48-4.76.48-5.53Z"/><g class="cls-20"><g class="cls-21"><rect class="cls-22" x="255.5" y="270.74" width="78.67" height="67.38" transform="translate(-75.53 510.43) rotate(-75)"/></g><g class="cls-20"><path class="cls-23" d="M272.28,296.61a8.67,8.67,0,0,0-2.74-2.06,7.65,7.65,0,0,0-3.22-.67,7.23,7.23,0,0,0-5.12,2.18,7.16,7.16,0,0,0-1.54,2.38,7.93,7.93,0,0,0-.51,2.91,8.21,8.21,0,0,0,.31,2.3,6.6,6.6,0,0,0,.92,1.94,7.46,7.46,0,0,0,2.65,2.36,7.45,7.45,0,0,0,6.59.12,8.34,8.34,0,0,0,2.68-2.12v2.83a10.22,10.22,0,0,1-6.05,2,9.2,9.2,0,0,1-2.77-.42,9.4,9.4,0,0,1-2.52-1.23,9.12,9.12,0,0,1-4-7.71,9.89,9.89,0,0,1,.69-3.77,9.07,9.07,0,0,1,2.11-3.08,9.21,9.21,0,0,1,3-2,9.86,9.86,0,0,1,3.64-.66,9.74,9.74,0,0,1,3,.47,10.91,10.91,0,0,1,2.88,1.46Z"/><path class="cls-23" d="M290.52,310.25V299h1.87v1.73a4.71,4.71,0,0,1,1.74-1.6,5,5,0,0,1,2.35-.53,4.33,4.33,0,0,1,3.1,1.05,3.84,3.84,0,0,1,1.11,2.93v7.63h-2v-6.6a3.79,3.79,0,0,0-.72-2.53,2.77,2.77,0,0,0-2.21-.83,3.81,3.81,0,0,0-1.56.31,3.09,3.09,0,0,0-1.17.89,2.72,2.72,0,0,0-.51,1,8.52,8.52,0,0,0-.15,2v5.8Z"/><polygon class="cls-23" points="308.19 310.95 302.64 299.04 304.79 299.04 308.16 306.87 311.54 299.04 313.7 299.04 308.19 310.95"/><rect class="cls-23" x="315.87" y="299.04" width="1.94" height="11.21"/><path class="cls-23" d="M331.86,304.94H323v.17a4.11,4.11,0,0,0,1,2.91,3.49,3.49,0,0,0,2.68,1.11,3.58,3.58,0,0,0,2-.61,5.3,5.3,0,0,0,1.6-1.83l1.46,1a5.62,5.62,0,0,1-5.19,3.06,5.41,5.41,0,0,1-4.14-1.69,6.23,6.23,0,0,1-1.58-4.44,6.06,6.06,0,0,1,1.57-4.31,5.27,5.27,0,0,1,4-1.68,5.07,5.07,0,0,1,3.94,1.59,6.21,6.21,0,0,1,1.45,4.35Zm-2.06-1.56a3.23,3.23,0,0,0-1-2.29,3.49,3.49,0,0,0-2.43-.8,3.28,3.28,0,0,0-3.41,3.09Z"/><path class="cls-23" d="M334.75,310.25V299h1.87v1.73a4.71,4.71,0,0,1,1.74-1.6,5,5,0,0,1,2.35-.53,4.33,4.33,0,0,1,3.1,1.05,3.83,3.83,0,0,1,1.11,2.93v7.63h-2v-6.6a3.79,3.79,0,0,0-.72-2.53,2.77,2.77,0,0,0-2.21-.83,3.81,3.81,0,0,0-1.56.31,3.09,3.09,0,0,0-1.17.89,2.72,2.72,0,0,0-.51,1,8.52,8.52,0,0,0-.15,2v5.8Z"/></g></g><rect class="cls-17" x="238.09" y="350.68" width="116.92" height="36.67" rx="18.33" ry="18.33"/><path class="cls-12" d="M267.09,370.26a3.07,3.07,0,0,1,.59,1.94,3.28,3.28,0,0,1-1.19,2.9,4.85,4.85,0,0,1-2.83.82h-4.35a1,1,0,0,1-1.07-1.07v-10.1a1,1,0,0,1,1.07-1.07h4.4q3.32,0,3.32,3.11a2.57,2.57,0,0,1-.38,1.39,2.6,2.6,0,0,1-1.07,1A3.52,3.52,0,0,1,267.09,370.26Zm-2.69-4.15a1.36,1.36,0,0,0-1-.36h-2.88v2.73h2.94a1.34,1.34,0,0,0,.92-.35,1.2,1.2,0,0,0,.39-.94A1.46,1.46,0,0,0,264.4,366.11Zm.54,7.37a1.67,1.67,0,0,0,.46-1.28,1.43,1.43,0,0,0-.54-1.35,2.6,2.6,0,0,0-1.33-.32h-3v3.37h3.15A1.79,1.79,0,0,0,264.94,373.48Z"/><path class="cls-12" d="M280.18,373a5.89,5.89,0,0,1-2.12,2.28,6,6,0,0,1-6.1,0,5.82,5.82,0,0,1-2.11-2.28,7,7,0,0,1,0-6.34,5.82,5.82,0,0,1,2.11-2.28,6,6,0,0,1,6.1,0,5.89,5.89,0,0,1,2.12,2.28,6.93,6.93,0,0,1,0,6.34Zm-2-5.3a3.81,3.81,0,0,0-1.31-1.51,3.5,3.5,0,0,0-3.78,0,3.69,3.69,0,0,0-1.29,1.51,5.14,5.14,0,0,0,0,4.26,3.68,3.68,0,0,0,1.29,1.51,3.5,3.5,0,0,0,3.78,0,3.8,3.8,0,0,0,1.31-1.51,5,5,0,0,0,0-4.25Z"/><path class="cls-12" d="M293.44,373a5.89,5.89,0,0,1-2.12,2.28,6,6,0,0,1-6.1,0A5.82,5.82,0,0,1,283.1,373a7,7,0,0,1,0-6.34,5.82,5.82,0,0,1,2.11-2.28,6,6,0,0,1,6.1,0,5.89,5.89,0,0,1,2.12,2.28,6.93,6.93,0,0,1,0,6.34Zm-2-5.3a3.81,3.81,0,0,0-1.31-1.51,3.5,3.5,0,0,0-3.78,0,3.69,3.69,0,0,0-1.29,1.51,5.14,5.14,0,0,0,0,4.26,3.68,3.68,0,0,0,1.29,1.51,3.5,3.5,0,0,0,3.78,0,3.8,3.8,0,0,0,1.31-1.51,5,5,0,0,0,0-4.25Z"/><path class="cls-12" d="M305.76,374.45a1.15,1.15,0,0,1,.07.38,1,1,0,0,1-.36.79,1.22,1.22,0,0,1-.83.31,1,1,0,0,1-.44-.1,1,1,0,0,1-.35-.3l-3.79-5-1.66,1.59v2.74a1,1,0,0,1-.31.77,1.09,1.09,0,0,1-.8.3,1.05,1.05,0,0,1-.78-.31,1,1,0,0,1-.31-.76v-10.1a1,1,0,0,1,.31-.76,1.1,1.1,0,0,1,.8-.31,1,1,0,0,1,1.07,1.07v4.75L304,364a1.2,1.2,0,0,1,.86-.4.86.86,0,0,1,.68.33,1.07,1.07,0,0,1,.28.7,1,1,0,0,1-.31.68L301.69,369l3.9,5.16A1.25,1.25,0,0,1,305.76,374.45Z"/><path class="cls-12" d="M309.52,375.62a1.1,1.1,0,0,1-.77.31,1.05,1.05,0,0,1-.78-.31,1,1,0,0,1-.31-.76v-10.1A1,1,0,0,1,308,364a1.1,1.1,0,0,1,.8-.31,1,1,0,0,1,.75.31,1,1,0,0,1,.31.76v10.1A1,1,0,0,1,309.52,375.62Z"/><path class="cls-12" d="M322.44,364a1,1,0,0,1,.26.7v10.19a1,1,0,0,1-1.07,1.07,1.5,1.5,0,0,1-.48-.08.68.68,0,0,1-.34-.22l-6.41-8.15v7.46a1,1,0,0,1-.27.7.94.94,0,0,1-.71.28.89.89,0,0,1-.68-.28,1,1,0,0,1-.26-.7V364.76a1,1,0,0,1,1.07-1.07,1.33,1.33,0,0,1,.52.1.83.83,0,0,1,.38.28l6.36,8.11v-7.52a1,1,0,0,1,.27-.7.92.92,0,0,1,.69-.28A.89.89,0,0,1,322.44,364Z"/><path class="cls-12" d="M335.09,369.63a1,1,0,0,1,.3.76v3.71a1,1,0,0,1-.54.94,7,7,0,0,1-3.76,1.07,6.28,6.28,0,0,1-3.2-.85,6.35,6.35,0,0,1-2.32-2.29,6.24,6.24,0,0,1,0-6.31,6.41,6.41,0,0,1,5.52-3.14,6.16,6.16,0,0,1,3,.7.95.95,0,0,1,.52.86,1.11,1.11,0,0,1-.29.76.91.91,0,0,1-.71.32A1.43,1.43,0,0,1,333,366a5,5,0,0,0-2-.4,3.93,3.93,0,0,0-2.06.57,4.23,4.23,0,0,0,0,7.25,3.93,3.93,0,0,0,2.06.57,6.77,6.77,0,0,0,1-.09,6.06,6.06,0,0,0,1-.23v-2.27h-1.64a1,1,0,0,1-.76-.3,1.08,1.08,0,0,1,0-1.5,1,1,0,0,1,.76-.3h2.87A1,1,0,0,1,335.09,369.63Z"/></g></svg>