<?xml version="1.0" encoding="UTF-8"?>
<svg width="40px" height="40px" viewBox="0 0 40 40" version="1.1" xmlns="http://www.w3.org/2000/svg" xmlns:xlink="http://www.w3.org/1999/xlink">
    <!-- Generator: Sketch 45.2 (43514) - http://www.bohemiancoding.com/sketch -->
    <title>Icon_social media/Facebook_W</title>
    <desc>Created with Sketch.</desc>
    <defs></defs>
    <g id="Symbols" stroke="none" stroke-width="1" fill="none" fill-rule="evenodd">
        <g id="Icon_social-media/Facebook_W" fill-rule="nonzero" fill="#FFFFFF">
            <path d="M20,38 C29.9411255,38 38,29.9411255 38,20 C38,10.0588745 29.9411255,2 20,2 C10.0588745,2 2,10.0588745 2,20 C2,29.9411255 10.0588745,38 20,38 Z M20,40 C8.954305,40 0,31.045695 0,20 C0,8.954305 8.954305,0 20,0 C31.045695,0 40,8.954305 40,20 C40,31.045695 31.045695,40 20,40 Z M20,16 L20,13.6184 C20,12.544 20.2376,12 21.9064,12 L24,12 L24,8 L20.8,8 C16.8,8 15.2,10.6688 15.2,13.6 L15.2,16 L12,16 L12,20 L15.2,20 L15.2,32 L20,32 L20,20 L23.5248,20 L24,16 L20,16" id="Combined-Shape"></path>
        </g>
    </g>
</svg>