<?xml version="1.0" encoding="UTF-8"?>
<svg width="100px" height="100px" viewBox="0 0 100 100" version="1.1" xmlns="http://www.w3.org/2000/svg" xmlns:xlink="http://www.w3.org/1999/xlink">
    <!-- Generator: Sketch 46.2 (44496) - http://www.bohemiancoding.com/sketch -->
    <title>iconTravelInfo</title>
    <desc>Created with Sketch.</desc>
    <defs></defs>
    <g id="COVIEN-BYOOBE" stroke="none" stroke-width="1" fill="none" fill-rule="evenodd">
        <g id="BYOOBE-1920px" transform="translate(-750.000000, -380.000000)" fill-rule="nonzero" fill="#4A4A4A">
            <path d="M800,476 C825.405098,476 846,455.405098 846,430 C846,404.594902 825.405098,384 800,384 C774.594902,384 754,404.594902 754,430 C754,455.405098 774.594902,476 800,476 Z M800,480 C772.385763,480 750,457.614237 750,430 C750,402.385763 772.385763,380 800,380 C827.614237,380 850,402.385763 850,430 C850,457.614237 827.614237,480 800,480 Z M800.937164,440.379131 C791.10326,443.289121 783.184606,445.227319 775.619278,446.56946 C774.535334,446.760859 773.438401,446.815054 771.770678,446.763341 C771.592746,446.756938 771.592746,446.756938 771.364626,446.748045 C770.995373,446.73331 770.995373,446.73331 770.845151,446.727211 C770.327339,446.705688 770.327339,446.705688 770.117318,446.697712 C769.174789,446.667404 768.453532,446.406926 767.401184,445.741153 C765.343213,444.433346 764.887572,441.964119 766.341815,440.000119 C766.553287,439.713413 766.78736,439.428756 767.078103,439.104304 C767.143116,439.031904 767.265613,438.898466 767.406745,438.746195 C766.899521,437.855326 766.555085,437.248364 766.477901,437.109088 C765.693455,435.72782 765.056248,434.601242 764.323069,433.299617 C762.862095,430.701604 763.647838,428.444242 766.401015,427.329031 C768.414176,426.51019 770.427891,426.607347 772.323972,427.61662 C772.63999,427.785179 775.306933,429.204394 775.94833,429.54809 C777.070496,430.149409 777.882789,430.593639 778.444715,431.017961 C780.03422,430.177306 781.399864,429.438912 784.525774,427.729514 C783.637155,427.156373 783.409323,427.009506 782.829022,426.63577 C781.955028,426.072533 781.955028,426.072533 780.596168,425.196923 C779.105445,424.236322 779.105445,424.236322 778.254834,423.688013 C778.028626,423.542117 778.028626,423.542117 777.892722,423.454448 C777.75633,423.36645 777.75633,423.36645 777.528913,423.219699 C775.026095,421.605196 774.178375,421.05855 773.288828,420.485644 C770.311333,418.564121 770.32565,415.544155 773.307297,413.549098 C776.196539,411.616083 779.353895,411.123809 782.827686,412.059301 C788.962897,413.710647 795.033144,415.294649 805.130524,417.879948 C805.35592,417.937402 805.694731,417.922726 805.891449,417.848957 C812.358779,415.427157 815.985141,414.318386 819.972159,413.552756 C822.420179,413.081824 823.991399,412.927956 826.034441,412.961611 C828.008363,412.994767 829.028552,413.077258 830.270845,413.308295 C832.663191,413.753125 834.369342,414.625384 835.473287,415.9987 C836.957557,417.842203 837.364122,419.742688 836.698033,421.797507 C836.061089,423.751767 834.6142,425.669293 832.88037,426.863146 C830.532044,428.477996 828.252941,429.830833 825.639049,431.162094 C823.673447,432.161743 821.633868,433.103939 819.42629,434.033081 C819.596135,435.393798 819.733472,436.528457 820.068886,439.335997 L820.379722,441.950479 C820.371351,445.571056 817.943306,448.602517 814.650291,449.097534 C814.501821,449.118744 814.35102,449.129554 814.201723,449.129554 C813.230258,449.129554 812.188804,448.703881 811.591098,448.054102 C809.596108,445.881572 807.999442,444.090773 804.255865,439.832467 L804.009405,439.550678 C802.741799,439.840436 801.845916,440.110526 800.937164,440.379131 Z M814.216757,446.127103 C815.98073,445.863916 817.377714,444.09537 817.389221,442.125008 L817.089623,439.69273 C816.794732,437.228051 816.661142,436.120542 816.593597,434.934871 L816.497723,434.787554 C813.64128,435.89872 810.480275,436.999207 806.924011,438.030501 L806.791725,438.167556 L806.915896,438.308767 L807.040068,438.449988 L807.213148,438.646836 C810.575715,442.471157 812.000589,444.068638 813.783878,446.00832 C813.901391,446.083288 814.122614,446.143838 814.216757,446.127103 Z M832.514018,418.380233 C832.064194,417.820902 831.14024,417.370678 829.946674,417.087627 C829.757622,417.134857 829.566398,417.183787 829.373029,417.234404 C827.946702,417.60777 826.416642,418.069216 824.798433,418.611807 C823.252964,419.130008 821.686005,419.701865 820.14234,420.307352 C819.644755,420.502524 819.174933,420.69134 818.740255,420.870443 C818.527421,420.958139 818.40525,421.009204 818.2167,421.088847 C818.041879,421.166844 817.854004,421.205554 817.657723,421.205554 C817.098154,421.205554 816.592715,420.875974 816.372666,420.362516 C816.06525,419.652665 816.391181,418.829009 817.102155,418.519896 C817.868008,418.191673 818.705643,417.850359 819.600339,417.503663 C816.230505,418.225412 812.847485,419.301107 807.223306,421.410409 C806.298131,421.754913 805.16315,421.810738 804.18853,421.56106 C793.955591,418.941649 787.933524,417.370112 781.8398,415.727818 C779.422481,415.077444 777.392862,415.387066 775.42071,416.705634 C774.699952,417.189613 774.860166,417.078959 774.863076,417.042487 C774.867995,416.980838 774.886631,416.993375 775.348529,417.291406 C775.963702,417.688149 775.963702,417.688149 776.338723,417.930017 C776.729174,418.181844 776.729174,418.181844 777.390557,418.608425 C778.229426,419.149573 778.915607,419.592555 779.588504,420.02739 C779.815872,420.174005 779.815872,420.174005 779.951058,420.261167 C780.078596,420.343389 780.083117,420.346304 780.279221,420.472715 C780.462016,420.590482 780.462016,420.590482 780.665547,420.72163 C781.181478,421.05409 781.181478,421.05409 781.900445,421.517414 C783.51201,422.556013 784.221047,423.013017 784.888197,423.443193 C785.624069,423.916783 785.624069,423.916783 785.972737,424.141238 C786.182178,424.276096 786.182178,424.276096 786.475207,424.464805 C786.769048,424.65416 786.769048,424.65416 786.978863,424.789391 C787.328316,425.01467 787.328316,425.01467 788.065515,425.490045 C788.19194,425.572044 788.19194,425.572044 788.246942,425.607688 C788.477653,425.757677 788.522361,425.786953 788.651803,425.872867 C789.07633,426.156622 789.176411,426.22327 789.284956,426.294304 C790.490416,427.094567 790.395048,428.897978 789.115363,429.561743 C789.054012,429.594777 788.981659,429.631979 788.784129,429.732239 C788.676269,429.791398 788.676269,429.791398 788.613212,429.825954 C788.554131,429.858304 788.554131,429.858304 788.458444,429.910657 L788.078832,430.117961 C787.847444,430.24432 787.847444,430.24432 787.386529,430.496019 L786.687461,430.880605 C783.269427,432.747474 781.790985,433.546409 779.99101,434.498999 C779.183068,434.927121 778.07516,434.899952 777.180632,434.450214 C775.357369,433.524471 773.562154,432.583938 770.537633,430.970573 C769.636957,430.49069 768.803066,430.45255 767.830973,430.847856 C767.531057,430.970357 767.353727,431.058865 767.370694,431.009264 C767.386598,430.962769 767.470357,431.142702 767.634087,431.434977 C768.304986,432.623911 768.953212,433.770695 769.781948,435.234731 C769.849602,435.354426 769.954615,435.539374 770.625694,436.72077 C770.964234,437.316734 770.964234,437.316734 771.131701,437.61165 C771.241084,437.804336 771.241084,437.804336 771.398087,438.080977 C771.799295,438.791978 771.702925,439.678603 771.15881,440.283161 C771.062014,440.392158 770.876664,440.594032 770.549532,440.947073 C770.092652,441.439462 769.970044,441.5719 769.911089,441.636846 C769.684486,441.892554 769.524616,442.085982 769.39254,442.264461 C769.251743,442.45353 769.243907,442.409366 769.437601,442.533536 C769.770198,442.743985 770.075442,442.894328 770.121239,442.895783 C770.388384,442.905088 770.502029,442.909507 771.003804,442.929963 C771.418746,442.948739 771.631075,442.957261 771.894106,442.965746 C773.279994,443.008672 774.158033,442.968569 774.956033,442.825672 C782.359492,441.51577 790.143476,439.610303 799.858416,436.735938 C801.180682,436.345388 802.508808,435.942553 804.14132,435.43748 C809.187641,433.873657 813.166199,432.48507 816.697461,431.05285 C819.267169,430.01124 821.620707,428.942496 823.914413,427.775006 C826.379072,426.521688 828.512318,425.255201 830.727338,423.729781 C831.77414,423.011166 832.707868,421.779685 833.083229,420.622167 C833.344378,419.818101 833.199809,419.233464 832.514018,418.380233 Z" id="iconTravelInfo"></path>
        </g>
    </g>
</svg>