<?xml version="1.0" encoding="UTF-8"?>
<svg width="100px" height="100px" viewBox="0 0 100 100" version="1.1" xmlns="http://www.w3.org/2000/svg" xmlns:xlink="http://www.w3.org/1999/xlink">
    <!-- Generator: Sketch 47.1 (45422) - http://www.bohemiancoding.com/sketch -->
    <title>iconRequest-r</title>
    <desc>Created with Sketch.</desc>
    <defs></defs>
    <g id="COVIEN-BYOOBE" stroke="none" stroke-width="1" fill="none" fill-rule="evenodd">
        <g id="BYOOBE-1920px" transform="translate(-1230.000000, -380.000000)">
            <g id="iconRequest-r" transform="translate(1230.000000, 380.000000)">
                <circle id="Combined-Shape" fill="#AE0018" cx="50" cy="50" r="50"></circle>
                <path d="M62.3663396,53.6460679 L74.8889057,53.6460679 C75.9526038,53.6460679 76.8152453,52.7834264 76.8152453,51.7210868 C76.8152453,50.6573887 75.9526038,49.7947472 74.8889057,49.7947472 L60.8842264,49.7947472 C60.010717,48.1197283 58.8709434,46.5628981 57.5151698,45.1555019 L74.8889057,45.1555019 C75.9526038,45.1555019 76.8152453,44.2928604 76.8152453,43.2305208 C76.8152453,42.1668226 75.9526038,41.3041811 74.8889057,41.3041811 L52.6096604,41.3041811 C48.6102642,38.9268226 43.730566,37.512634 38.4541887,37.512634 C37.9203019,37.512634 37.3986415,37.5506717 36.8729057,37.5792 L36.8729057,27.8510491 L81.248,27.8510491 L81.248,62.8552755 L76.8858868,58.9849358 C76.5326792,58.672483 76.0789434,58.4999547 75.6075472,58.4999547 L62.8716981,58.4999547 C62.8784906,58.2948226 62.9083774,58.0951245 62.9083774,57.8899925 C62.9083774,56.4336906 62.7168302,55.0154264 62.3663396,53.6460679 M58.2732075,62.3512755 C55.837434,69.3013132 47.8861887,74.4173887 38.4541887,74.4173887 C35.1992453,74.4173887 32.0597736,73.8060679 29.122717,72.6010868 C28.3089811,72.2655396 27.4327547,72.5508226 26.9206038,73.224634 L23.8938868,75.6060679 L23.8938868,71.0782189 C24.1098868,70.3704453 23.9047547,69.5743698 23.3165283,69.0622189 C19.7926038,65.9893132 17.8513208,62.0225208 17.8513208,57.8899925 C17.8513208,50.2878792 24.293283,43.8839547 33.0215849,41.965766 C33.653283,41.8258415 34.2944906,41.7117283 34.9479245,41.6207094 C35.5809811,41.5324075 36.2221887,41.4672 36.8729057,41.4278038 C37.397283,41.3952 37.9203019,41.3625962 38.4541887,41.3625962 C39.7148679,41.3625962 40.9443019,41.4685585 42.1438491,41.6438038 C45.68,42.1586717 48.9077736,43.3881057 51.5704151,45.1555019 C53.5144151,46.4460679 55.1486792,48.021917 56.3971321,49.7947472 C57.2407547,50.9929358 57.8914717,52.2862189 58.3424906,53.6460679 C58.7935094,55.0032 59.0570566,56.4201057 59.0570566,57.8899925 C59.0570566,58.0951245 59.0271698,58.2948226 59.0190189,58.4999547 C58.9891321,59.1520302 58.9103396,59.7932377 58.789434,60.4249358 C58.6617358,61.0797283 58.493283,61.7236528 58.2732075,62.3512755 M81.3580377,23.9997283 L36.7642264,23.9997283 C34.7006792,23.9997283 33.0215849,25.6828981 33.0215849,27.7505208 L33.0215849,38.0356528 C22.1482264,40.1032755 14,48.2121057 14,57.8899925 C14,62.845766 16.1382642,67.5678792 20.042566,71.2860679 L20.042566,79.5701434 C20.042566,80.3064453 20.4636981,80.9788981 21.1266415,81.3008604 C21.3942642,81.4312755 21.6809057,81.4951245 21.9675472,81.4951245 C22.3913962,81.4951245 22.8125283,81.3552 23.1589434,81.0821434 L28.837434,76.6154264 C31.8967547,77.7130868 35.1258868,78.2687094 38.4541887,78.2687094 C50.0978113,78.2687094 59.8490566,71.4463698 62.2997736,62.3512755 L74.8766792,62.3512755 L81.896,68.5772377 C82.256,68.896483 82.7124528,69.0635774 83.1743396,69.0635774 C83.4419623,69.0635774 83.7109434,69.0078792 83.9636226,68.893766 C84.6550943,68.5826717 85.0993208,67.8952755 85.0993208,67.1372377 L85.0993208,27.7505208 C85.0993208,25.6828981 83.4215849,23.9997283 81.3580377,23.9997283 M74.8893132,32.8136151 L43.233766,32.8136151 C42.1700679,32.8136151 41.3074264,33.6762566 41.3074264,34.7385962 C41.3074264,35.8022943 42.1700679,36.6649358 43.233766,36.6649358 L74.8893132,36.6649358 C75.9530113,36.6649358 76.8142943,35.8022943 76.8142943,34.7385962 C76.8142943,33.6762566 75.9530113,32.8136151 74.8893132,32.8136151 M38.4541887,54.4168755 C37.7993962,54.4168755 37.2206792,54.7456302 36.8729057,55.2469132 C36.6569057,55.5580075 36.5292075,55.9343094 36.5292075,56.3418566 L36.5292075,60.3779321 L36.5292075,62.327366 L36.5292075,66.5522717 C36.5292075,67.6146113 37.3904906,68.4772528 38.4541887,68.4772528 C39.5178868,68.4772528 40.3791698,67.6146113 40.3791698,66.5522717 L40.3791698,62.3504604 L40.3791698,60.4254792 L40.3791698,58.4991396 L40.3791698,56.3418566 C40.3791698,55.279517 39.5178868,54.4168755 38.4541887,54.4168755 M38.4541887,48.0503094 C37.834717,48.0503094 37.2763774,48.3043472 36.8729057,48.7132528 C36.4775849,49.1140075 36.2330566,49.6641962 36.2330566,50.2714415 C36.2330566,50.8800453 36.4775849,51.430234 36.8729057,51.8309887 C37.2763774,52.2385358 37.834717,52.4939321 38.4541887,52.4939321 C39.6809057,52.4939321 40.6753208,51.499517 40.6753208,50.2714415 C40.6753208,49.0447245 39.6809057,48.0503094 38.4541887,48.0503094" fill="#FFFFFF"></path>
            </g>
        </g>
    </g>
</svg>