<?xml version="1.0" encoding="UTF-8"?>
<svg width="100px" height="100px" viewBox="0 0 100 100" version="1.1" xmlns="http://www.w3.org/2000/svg" xmlns:xlink="http://www.w3.org/1999/xlink">
    <!-- Generator: Sketch 46.2 (44496) - http://www.bohemiancoding.com/sketch -->
    <title>iconTravelInfo-ww</title>
    <desc>Created with Sketch.</desc>
    <defs>
        <path d="M50.9371637,60.379131 C41.10326,63.2891214 33.1846065,65.2273187 25.6192776,66.5694604 C24.5353341,66.7608594 23.4384007,66.8150542 21.7706782,66.7633408 C21.5927458,66.7569383 21.5927458,66.7569383 21.3646265,66.7480449 C20.995373,66.7333096 20.995373,66.7333096 20.8451512,66.7272107 C20.3273392,66.7056877 20.3273392,66.7056877 20.1173182,66.6977119 C19.1747894,66.6674037 18.4535325,66.4069255 17.4011842,65.7411532 C15.3432133,64.4333459 14.8875715,61.9641192 16.3418154,60.0001188 C16.5532867,59.7134126 16.7873602,59.4287563 17.0781035,59.104304 C17.1431156,59.0319041 17.2656129,58.8984659 17.4067448,58.7461946 C16.8995214,57.855326 16.5550855,57.2483637 16.4779008,57.1090883 C15.6934547,55.7278199 15.0562485,54.6012422 14.3230694,53.2996171 C12.8620949,50.7016045 13.6478375,48.444242 16.4010151,47.3290313 C18.4141759,46.5101904 20.4278908,46.6073475 22.3239715,47.61662 C22.6399901,47.7851786 25.3069334,49.2043936 25.9483297,49.5480896 C27.0704963,50.1494092 27.8827891,50.5936388 28.4447151,51.0179611 C30.03422,50.1773056 31.3998644,49.4389118 34.5257739,47.729514 C33.6371554,47.156373 33.4093231,47.0095064 32.8290225,46.6357697 C31.9550282,46.0725333 31.9550282,46.0725333 30.5961682,45.1969233 C29.105445,44.2363221 29.105445,44.2363221 28.2548336,43.6880133 C28.028626,43.5421167 28.028626,43.5421167 27.8927225,43.4544484 C27.7563302,43.3664502 27.7563302,43.3664502 27.5289125,43.2196988 C25.0260951,41.6051958 24.1783747,41.0585501 23.2888277,40.4856441 C20.3113326,38.564121 20.3256505,35.5441548 23.3072971,33.5490985 C26.1965386,31.6160829 29.3538952,31.1238095 32.8276864,32.0593009 C38.9628974,33.7106474 45.0331444,35.2946488 55.1305244,37.8799483 C55.3559204,37.9374022 55.6947308,37.922726 55.8914487,37.8489568 C62.3587792,35.427157 65.9851408,34.3183863 69.9721593,33.5527563 C72.4201792,33.0818237 73.9913991,32.9279558 76.0344409,32.9616105 C78.0083632,32.9947671 79.0285521,33.0772583 80.2708452,33.3082945 C82.6631912,33.7531248 84.3693416,34.6253836 85.473287,35.9986998 C86.9575567,37.842203 87.3641217,39.7426876 86.6980329,41.797507 C86.0610888,43.7517673 84.6141998,45.669293 82.8803702,46.8631463 C80.5320437,48.4779955 78.2529408,49.8308331 75.6390491,51.1620942 C73.6734471,52.1617432 71.6338682,53.1039388 69.4262899,54.0330813 C69.5961355,55.3937978 69.7334717,56.5284567 70.0688857,59.3359966 L70.3797219,61.950479 C70.3713506,65.5710558 67.9433055,68.6025167 64.6502915,69.0975339 C64.5018208,69.118744 64.3510204,69.1295541 64.201723,69.1295541 C63.2302581,69.1295541 62.1888039,68.703881 61.5910981,68.0541021 C59.5961078,65.8815717 57.9994421,64.0907731 54.2558652,59.8324672 L54.0094045,59.5506783 C52.7417989,59.8404359 51.845916,60.1105263 50.9371637,60.379131 Z M64.2167569,66.127103 C65.9807298,65.863916 67.3777138,64.0953697 67.3892206,62.1250076 L67.0896227,59.6927304 C66.7947321,57.2280506 66.6611422,56.1205422 66.5935967,54.9348709 L66.497723,54.7875541 C63.64128,55.8987203 60.4802751,56.9992068 56.9240109,58.0305014 L56.7917249,58.1675563 L56.9158958,58.3087675 L57.0400683,58.4499884 L57.2131481,58.6468364 C60.5757146,62.4711574 62.0005889,64.0686378 63.7838776,66.0083204 C63.9013911,66.0832876 64.1226145,66.143838 64.2167569,66.127103 Z M82.5140176,38.3802328 C82.0641942,37.8209018 81.1402398,37.3706777 79.9466738,37.087627 C79.7576216,37.1348572 79.5663982,37.1837867 79.3730293,37.2344043 C77.9467016,37.6077698 76.4166423,38.069216 74.7984326,38.6118073 C73.2529636,39.1300085 71.6860054,39.7018648 70.1423405,40.3073515 C69.6447553,40.5025242 69.1749329,40.69134 68.7402554,40.8704429 C68.5274206,40.9581386 68.4052498,41.0092036 68.2166996,41.0888466 C68.0418788,41.1668436 67.8540044,41.2055541 67.657723,41.2055541 C67.0981542,41.2055541 66.5927154,40.8759736 66.3726656,40.362516 C66.0652497,39.6526649 66.3911811,38.8290088 67.1021552,38.5198961 C67.8680081,38.1916734 68.7056435,37.8503592 69.6003392,37.5036633 C66.2305052,38.2254116 62.8474853,39.3011069 57.2233061,41.4104095 C56.2981312,41.7549125 55.1631499,41.8107379 54.1885299,41.5610599 C43.955591,38.9416489 37.9335239,37.370112 31.8397995,35.7278182 C29.4224809,35.0774444 27.3928623,35.3870664 25.4207101,36.7056335 C24.6999523,37.1896135 24.8601659,37.0789591 24.8630762,37.0424867 C24.8679954,36.9808377 24.8866307,36.9933747 25.3485286,37.2914064 C25.963702,37.6881486 25.963702,37.6881486 26.3387225,37.9300165 C26.7291738,38.1818436 26.7291738,38.1818436 27.3905574,38.6084249 C28.2294259,39.1495727 28.9156073,39.5925549 29.5885036,40.0273902 C29.8158719,40.174005 29.8158719,40.174005 29.9510578,40.2611673 C30.0785956,40.3433889 30.0831169,40.3463037 30.2792215,40.4727147 C30.4620162,40.5904819 30.4620162,40.5904819 30.6655473,40.7216305 C31.1814784,41.0540895 31.1814784,41.0540895 31.9004455,41.5174143 C33.5120096,42.5560126 34.2210474,43.013017 34.8881972,43.4431929 C35.6240694,43.9167831 35.6240694,43.9167831 35.9727366,44.1412381 C36.1821783,44.2760957 36.1821783,44.2760957 36.4752075,44.4648052 C36.7690475,44.6541605 36.7690475,44.6541605 36.9788628,44.7893909 C37.3283163,45.0146703 37.3283163,45.0146703 38.0655155,45.4900449 C38.1919401,45.5720435 38.1919401,45.5720435 38.2469417,45.6076878 C38.477653,45.7576774 38.5223614,45.7869532 38.6518027,45.8728673 C39.0763303,46.1566223 39.1764109,46.2232701 39.2849564,46.2943038 C40.4904161,47.094567 40.3950483,48.8979783 39.1153629,49.5617426 C39.0540125,49.5947774 38.9816594,49.6319791 38.7841288,49.7322392 C38.6762685,49.791398 38.6762685,49.791398 38.6132121,49.8259537 C38.554131,49.8583043 38.554131,49.8583043 38.4584438,49.9106574 L38.0788323,50.1179608 C37.8474443,50.2443197 37.8474443,50.2443197 37.3865288,50.4960194 L36.6874607,50.8806049 C33.269427,52.7474743 31.7909855,53.5464088 29.9910104,54.4989992 C29.1830682,54.9271207 28.0751597,54.8999523 27.1806325,54.450214 C25.3573695,53.5244705 23.562154,52.5839375 20.5376334,50.970573 C19.636957,50.4906897 18.8030663,50.4525505 17.830973,50.8478559 C17.5310567,50.970357 17.3537271,51.0588653 17.3706939,51.0092636 C17.3865978,50.9627689 17.4703575,51.1427023 17.634087,51.4349773 C18.3049855,52.6239113 18.9532124,53.7706946 19.7819481,55.2347312 C19.8496018,55.3544262 19.9546153,55.5393744 20.625694,56.7207698 C20.9642343,57.3167339 20.9642343,57.3167339 21.1317009,57.6116495 C21.2410836,57.8043357 21.2410836,57.8043357 21.398087,58.0809773 C21.7992948,58.7919784 21.7029246,59.678603 21.1588098,60.2831611 C21.0620144,60.3921576 20.8766645,60.5940319 20.5495322,60.9470726 C20.092652,61.4394617 19.9700444,61.5719002 19.9110892,61.6368462 C19.6844859,61.8925544 19.5246162,62.0859824 19.3925402,62.2644606 C19.2517435,62.4535305 19.2439068,62.4093663 19.4376014,62.5335364 C19.770198,62.7439846 20.075442,62.8943279 20.1212389,62.8957828 C20.3883839,62.9050878 20.5020295,62.9095066 21.003804,62.929963 C21.4187465,62.9487387 21.6310754,62.9572607 21.8941064,62.9657459 C23.2799938,63.0086716 24.1580332,62.9685685 24.9560329,62.8256718 C32.3594917,61.5157696 40.1434763,59.6103026 49.8584164,56.7359376 C51.1806819,56.3453877 52.5088077,55.9425533 54.1413205,55.4374797 C59.1876407,53.8736568 63.1661987,52.48507 66.6974612,51.0528502 C69.2671695,50.0112402 71.6207069,48.9424963 73.9144126,47.775006 C76.3790722,46.5216876 78.5123183,45.2552006 80.7273384,43.7297814 C81.7741403,43.011166 82.7078679,41.7796847 83.083229,40.6221671 C83.3443785,39.8181015 83.1998088,39.2334639 82.5140176,38.3802328 Z" id="path-1"></path>
        <filter x="-9.5%" y="-13.3%" width="119.1%" height="137.3%" filterUnits="objectBoundingBox" id="filter-2">
            <feOffset dx="0" dy="2" in="SourceAlpha" result="shadowOffsetOuter1"></feOffset>
            <feGaussianBlur stdDeviation="2" in="shadowOffsetOuter1" result="shadowBlurOuter1"></feGaussianBlur>
            <feColorMatrix values="0 0 0 0 0   0 0 0 0 0   0 0 0 0 0  0 0 0 0.5 0" type="matrix" in="shadowBlurOuter1"></feColorMatrix>
        </filter>
    </defs>
    <g id="CONVIEN-EASY" stroke="none" stroke-width="1" fill="none" fill-rule="evenodd">
        <g id="EASY-1920px" transform="translate(-1173.000000, -391.000000)">
            <g id="iconTravelInfo-ww" transform="translate(1173.000000, 391.000000)">
                <circle id="Oval" fill-opacity="0.5" fill="#FFFFFF" cx="50" cy="50" r="50"></circle>
                <g id="Fill-1" fill-rule="nonzero">
                    <use fill="black" fill-opacity="1" filter="url(#filter-2)" xlink:href="#path-1"></use>
                    <use fill="#FFFFFF" fill-rule="evenodd" xlink:href="#path-1"></use>
                </g>
            </g>
        </g>
    </g>
</svg>