<?xml version="1.0" encoding="UTF-8"?>
<svg width="100px" height="100px" viewBox="0 0 100 100" version="1.1" xmlns="http://www.w3.org/2000/svg" xmlns:xlink="http://www.w3.org/1999/xlink">
    <!-- Generator: Sketch 46.2 (44496) - http://www.bohemiancoding.com/sketch -->
    <title>iconSecurity-w</title>
    <desc>Created with Sketch.</desc>
    <defs></defs>
    <g id="COVIEN-BYOOBE" stroke="none" stroke-width="1" fill="none" fill-rule="evenodd">
        <g id="BYOOBE-1920px" transform="translate(-410.000000, -3544.000000)" fill-rule="nonzero" fill="#FFFFFF">
            <g id="Feature---Security" transform="translate(0.000000, 3480.000000)">
                <g id="Group-4" transform="translate(410.000000, 64.000000)">
                    <path d="M50,96 C75.4050985,96 96,75.4050985 96,50 C96,24.5949015 75.4050985,4 50,4 C24.5949015,4 4,24.5949015 4,50 C4,75.4050985 24.5949015,96 50,96 Z M50,100 C22.3857625,100 0,77.6142375 0,50 C0,22.3857625 22.3857625,0 50,0 C77.6142375,0 100,22.3857625 100,50 C100,77.6142375 77.6142375,100 50,100 Z M50.0026,79.7108 C47.5286,78.8228 45.3246,77.8128 43.3006,76.7128 C53.6786,72.2988 67.3946,57.2188 73.1966,43.8248 C73.1666,50.6668 72.4946,55.5348 70.9326,60.2288 C67.9006,69.3308 61.4406,75.6728 50.0026,79.7108 M34.1506,69.5068 C46.6126,64.9988 65.8866,43.6288 67.8246,30.9708 C69.1626,31.1208 70.5246,31.2288 71.9166,31.2888 C73.4446,44.9328 50.3466,72.3348 38.8966,73.9188 C37.1026,72.5728 35.5126,71.1128 34.1506,69.5068 M26.0006,31.3308 C34.6526,31.0628 42.5706,29.0528 49.7286,25.2948 C54.0046,27.7348 58.7286,29.4248 63.8826,30.3928 C62.2666,41.7848 42.1266,63.5988 31.7326,66.1168 C30.7066,64.4488 29.8146,62.6828 29.1046,60.7688 C26.5126,53.7728 25.9906,47.3008 26.0006,31.3308 M76.6386,29.2308 C76.5706,28.1788 75.6986,27.3608 74.6426,27.3608 C65.3966,27.3608 57.4646,25.3328 50.8106,21.2908 C50.1986,20.9188 49.4326,20.9028 48.8046,21.2508 C41.4466,25.3228 33.1906,27.3608 24.0006,27.3608 C22.8966,27.3608 22.0006,28.2568 22.0006,29.3608 L22.0006,31.1248 C21.9866,47.7488 22.5226,54.5188 25.3546,62.1608 C29.0986,72.2568 36.6166,79.3128 49.3426,83.7188 C49.7626,83.8628 50.2186,83.8648 50.6406,83.7228 C63.6386,79.3068 71.2326,71.9848 74.7266,61.4928 C77.4206,53.4068 77.6806,45.2168 76.6386,29.2308 M37.2,49.875 C38.036,50.903 39.624,50.847 40.388,49.763 L48.552,38.151 C49.186,37.247 48.968,35.999 48.066,35.365 C47.16,34.729 45.912,34.947 45.278,35.849 L38.634,45.301 L35.552,41.511 C34.854,40.655 33.594,40.527 32.738,41.223 C31.88,41.919 31.75,43.179 32.448,44.037 L37.2,49.875 Z" id="iconSecurity-w"></path>
                </g>
            </g>
        </g>
    </g>
</svg>