<?xml version="1.0" encoding="UTF-8"?>
<svg width="100px" height="100px" viewBox="0 0 100 100" version="1.1" xmlns="http://www.w3.org/2000/svg" xmlns:xlink="http://www.w3.org/1999/xlink">
    <!-- Generator: Sketch 46.2 (44496) - http://www.bohemiancoding.com/sketch -->
    <title>iconEcoFriendly</title>
    <desc>Created with Sketch.</desc>
    <defs></defs>
    <g id="COVIEN-BYOOBE" stroke="none" stroke-width="1" fill="none" fill-rule="evenodd">
        <g id="BYOOBE-1920px" transform="translate(-910.000000, -380.000000)" fill-rule="nonzero" fill="#417505">
            <path d="M960,476 C985.405098,476 1006,455.405098 1006,430 C1006,404.594902 985.405098,384 960,384 C934.594902,384 914,404.594902 914,430 C914,455.405098 934.594902,476 960,476 Z M960,480 C932.385763,480 910,457.614237 910,430 C910,402.385763 932.385763,380 960,380 C987.614237,380 1010,402.385763 1010,430 C1010,457.614237 987.614237,480 960,480 Z M973.868038,413.759607 C973.483015,415.035464 973.201798,416.441549 972.829988,418.763006 C971.790051,425.261197 971.659823,425.97462 970.857694,428.68676 C969.495017,433.30325 967.42458,436.921325 964.234937,439.718397 C956.938391,446.120332 947.403434,446.237349 943.251235,441.196202 C946.824013,432.901242 953.448657,425.030938 964.267022,417.602278 C965.125772,417.011533 965.344706,415.837593 964.755849,414.976956 C964.163217,414.118205 962.989277,413.899271 962.130527,414.490016 C951.808539,421.578951 945.040455,429.152939 940.988287,437.138372 C937.611794,429.03781 940.948652,421.633685 955.177482,414.8807 C964.925712,410.254773 972.544996,407.027383 977.988151,405.209852 C976.117774,408.018248 974.745661,410.868166 973.868038,413.759607 M982.542358,400.038477 C976.925566,401.140697 967.305676,404.945621 953.558124,411.470235 C935.777277,419.908635 932.683889,430.625082 939.012218,441.615197 C937.004063,446.950772 936.088692,452.45621 936.088692,458.112637 C936.088692,459.156349 936.934231,460 937.976055,460 C939.019767,460 939.863418,459.156349 939.863418,458.112637 C939.863418,453.660348 940.471149,449.317525 941.799853,445.082283 C947.829978,450.334814 958.638905,449.651589 966.726256,442.556991 C970.506644,439.240894 972.926243,435.009427 974.477656,429.758783 C975.345843,426.818271 975.48362,426.061439 976.559417,419.359413 C976.902917,417.198382 977.157711,415.91875 977.482338,414.854277 C978.673264,410.9229 980.947536,407.014171 984.329691,403.129978 C985.509292,401.772964 984.305155,399.691203 982.542358,400.038477" id="iconEcoFriendly"></path>
        </g>
    </g>
</svg>