<?xml version="1.0" encoding="UTF-8"?>
<svg width="100px" height="100px" viewBox="0 0 100 100" version="1.1" xmlns="http://www.w3.org/2000/svg" xmlns:xlink="http://www.w3.org/1999/xlink">
    <!-- Generator: Sketch 46.2 (44496) - http://www.bohemiancoding.com/sketch -->
    <title>iconLogin-R</title>
    <desc>Created with Sketch.</desc>
    <defs></defs>
    <g id="CONVIEN-EASY" stroke="none" stroke-width="1" fill="none" fill-rule="evenodd">
        <g id="EASY-1920px" transform="translate(-1533.000000, -390.000000)">
            <g id="iconLogin-R" transform="translate(1533.000000, 390.000000)">
                <circle id="Combined-Shape" fill="#AE0018" cx="50" cy="50" r="50"></circle>
                <path d="M73.4857143,24.682449 C73.4844898,24.6212245 73.4759184,24.5612245 73.4673469,24.5012245 C73.46,24.4461224 73.4538776,24.3910204 73.4404082,24.3359184 C73.4281633,24.2844898 73.4110204,24.2367347 73.395102,24.1889796 C73.3742857,24.1265306 73.3534694,24.0653061 73.3253061,24.0053061 C73.3044898,23.96 73.2787755,23.9183673 73.2542857,23.8755102 C73.222449,23.8191837 73.1893878,23.7653061 73.1526531,23.715102 C73.1208163,23.6697959 73.0853061,23.6281633 73.0485714,23.5877551 C73.0106122,23.544898 72.9726531,23.5044898 72.9322449,23.4665306 C72.8906122,23.4285714 72.8465306,23.3930612 72.802449,23.3587755 C72.7571429,23.3257143 72.7118367,23.2926531 72.6640816,23.2632653 C72.62,23.235102 72.5722449,23.2106122 72.5244898,23.1861224 C72.4706122,23.1604082 72.4179592,23.1346939 72.3616327,23.115102 C72.3138776,23.0967347 72.262449,23.0820408 72.2122449,23.0685714 C72.1546939,23.0526531 72.0971429,23.0379592 72.0395918,23.0281633 C71.9832653,23.0195918 71.9257143,23.0146939 71.8681633,23.0110204 C71.8302041,23.0085714 71.7946939,23 71.7555102,23 L29.8167347,23 C28.8579592,23 28.0816327,23.777551 28.0816327,24.7363265 L28.0816327,29.7873469 C28.0816327,30.744898 28.8579592,31.522449 29.8167347,31.522449 C30.7755102,31.522449 31.5530612,30.744898 31.5530612,29.7873469 L31.5530612,26.4714286 L64.4036735,26.4714286 L52.6118367,32.3673469 C52.0240816,32.6612245 51.6530612,33.262449 51.6530612,33.92 L51.6530612,73.6632653 L31.5530612,73.6632653 L31.5530612,65.9097959 C31.5530612,64.9510204 30.7755102,64.1734694 29.8167347,64.1734694 C28.8579592,64.1734694 28.0816327,64.9510204 28.0816327,65.9097959 L28.0816327,75.3995918 C28.0816327,76.3571429 28.8579592,77.1346939 29.8167347,77.1346939 L51.6530612,77.1346939 L51.6530612,84.1240816 C51.6530612,84.7191837 51.9579592,85.2726531 52.4612245,85.5910204 C52.7428571,85.7685714 53.064898,85.8591837 53.3881633,85.8591837 C53.6416327,85.8591837 53.8963265,85.8040816 54.1326531,85.6914286 L72.5,76.9669388 C72.5330612,76.9510204 72.5612245,76.9277551 72.5930612,76.9093878 C72.6518367,76.877551 72.7093878,76.8457143 72.7632653,76.8065306 C72.8073469,76.7759184 72.8465306,76.7404082 72.8869388,76.704898 C72.9310204,76.6669388 72.975102,76.6289796 73.0142857,76.5873469 C73.0522449,76.5481633 73.0865306,76.5040816 73.1195918,76.46 C73.155102,76.4159184 73.1893878,76.3706122 73.22,76.3216327 C73.2481633,76.277551 73.2714286,76.2297959 73.2959184,76.1832653 C73.3228571,76.1306122 73.3497959,76.0779592 73.3706122,76.0228571 C73.3902041,75.9726531 73.4036735,75.92 73.4195918,75.8673469 C73.4342857,75.8122449 73.4502041,75.7583673 73.4612245,75.7020408 C73.4710204,75.6408163 73.4746939,75.5783673 73.4795918,75.5146939 C73.4820408,75.4755102 73.4918367,75.4387755 73.4918367,75.3995918 L73.4918367,24.7363265 C73.4918367,24.7167347 73.4869388,24.7008163 73.4857143,24.682449 L73.4857143,24.682449 Z M64.0571429,77.1346939 L55.1244898,81.377551 L55.1244898,77.1346939 L55.1244898,73.6632653 L55.1244898,34.9914286 L70.0204082,27.5428571 L70.0204082,73.6632653 L70.0204082,74.302449 L70.0204082,74.302449 L64.0571429,77.1346939 Z M32.7542857,56.0792245 C32.06,56.7392245 32.0306122,57.8388163 32.6906122,58.533102 C33.0322449,58.8918776 33.4902041,59.073102 33.9493878,59.073102 C34.3791837,59.073102 34.8089796,58.9151429 35.1444898,58.5967755 L45.1363265,49.1069796 C45.1571429,49.0861633 45.1644898,49.0592245 45.1840816,49.0384082 C45.3077551,48.9086122 45.4069388,48.7641224 45.4840816,48.6110612 C45.4987755,48.580449 45.5220408,48.5547347 45.5355102,48.522898 C45.5391837,48.515551 45.5440816,48.5106531 45.5477551,48.5033061 C45.622449,48.3196327 45.6555102,48.1286122 45.6653061,47.9375918 C45.6677551,47.8837143 45.6591837,47.8310612 45.6567347,47.7784082 C45.6506122,47.6302449 45.6273469,47.4820816 45.5832653,47.3388163 C45.5636735,47.2788163 45.5428571,47.2175918 45.5171429,47.1588163 C45.4510204,47.0082041 45.3616327,46.8661633 45.2514286,46.7339184 C45.2293878,46.7094286 45.2232653,46.6763673 45.2,46.653102 C45.1926531,46.6457551 45.1840816,46.6433061 45.1779592,46.6371837 C45.1693878,46.6286122 45.1644898,46.6163673 45.1559184,46.6090204 L35.3171429,36.9661633 C34.6326531,36.2939184 33.5342857,36.3061633 32.8632653,36.9906531 C32.1922449,37.6751429 32.2032653,38.7735102 32.8877551,39.4445306 L39.6910204,46.1118776 L15.735102,46.1118776 C14.7763265,46.1118776 14,46.8894286 14,47.8482041 C14,48.8069796 14.7763265,49.5833061 15.735102,49.5833061 L39.5930612,49.5833061 L32.7542857,56.0792245 Z" id="Combined-Shape" fill="#FFFFFF"></path>
            </g>
        </g>
    </g>
</svg>