<?xml version="1.0" encoding="UTF-8"?>
<svg width="100px" height="100px" viewBox="0 0 100 100" version="1.1" xmlns="http://www.w3.org/2000/svg" xmlns:xlink="http://www.w3.org/1999/xlink">
    <!-- Generator: Sketch 46.2 (44496) - http://www.bohemiancoding.com/sketch -->
    <title>iconMoneySaving-ww</title>
    <desc>Created with Sketch.</desc>
    <defs>
        <path d="M71.833988,56.1903144 C71.4605553,55.7016875 71.3608059,55.0287508 71.6320034,54.4291907 C73.5007517,50.2970208 73.9831842,45.9272765 73.0672579,41.4170677 C72.3025468,37.652735 70.5805738,34.2812239 67.9414099,31.3839757 C66.2859164,29.5667746 64.3907596,28.082846 62.3077426,26.9713563 C59.6488544,25.5525839 56.7620909,24.7241716 53.7224237,24.5081586 C51.0219728,24.3163404 48.3454208,24.6258373 45.764447,25.4283801 C43.2605868,26.2069742 40.9509401,27.4447665 38.8968259,29.1092466 C36.3858267,31.1439778 34.4170716,33.6152554 33.0403793,36.4588395 C31.2907543,40.0728961 30.6193006,43.9412138 31.0426413,47.9723111 C31.0578239,48.1169947 31.0753334,48.2645012 31.0952227,48.4158883 C31.1796925,49.0588281 31.2721401,49.5778074 31.5083363,50.7986736 C31.5457021,50.9918471 31.5457021,50.9918471 31.5834819,51.1881389 C31.6306891,51.4340293 31.6709055,51.6471362 31.7073545,51.8458058 C32.5719309,51.597658 33.4182499,51.4356464 34.2628657,51.3546845 C35.6847326,51.218329 37.2085716,51.2899817 38.7938829,51.565396 C38.972783,51.5966785 38.972783,51.5966785 39.1515649,51.6287102 C40.3387499,51.8426528 41.4797594,52.0803586 43.031622,52.4313271 C42.8337464,51.9034773 42.6623851,51.3602356 42.5184545,50.8043918 L40.471021,50.8043918 C39.5174731,50.8043918 38.7446081,50.0313761 38.7446081,49.0778763 C38.7446081,48.1243524 39.5174972,47.3514633 40.471021,47.3514633 L41.9919141,47.3514633 C41.9756195,47.0393636 41.9674377,46.7262553 41.9674377,46.4125168 C41.9674377,46.1332084 41.9739309,45.8543388 41.9868659,45.5761867 L40.471021,45.5761867 C39.5174731,45.5761867 38.7446081,44.803171 38.7446081,43.8496712 C38.7446081,42.8961473 39.5174972,42.1232582 40.471021,42.1232582 L42.4926633,42.1232582 C42.9969173,40.1229588 43.8529297,38.2892017 45.0142434,36.7462692 C47.1240471,33.943145 50.0152513,32.3755261 53.1391671,32.3755261 C56.7495803,32.3755261 60.1345202,34.5639315 62.207524,38.1801032 C62.8812806,39.3554132 62.4747223,40.8543695 61.2995622,41.5280402 C60.1243139,42.2020339 58.6252919,41.7953507 57.9513961,40.6199269 C56.7188252,38.4699029 54.9615361,37.2814855 53.1391671,37.2814855 C51.6119506,37.2814855 50.1204694,38.1200618 48.9339747,39.6963844 C48.3994553,40.4066597 47.9580683,41.2248311 47.6225745,42.1232582 L50.0048069,42.1232582 C50.9583307,42.1232582 51.7312198,42.8961473 51.7312198,43.8496712 C51.7312198,44.803171 50.9583548,45.5761867 50.0048069,45.5761867 L46.9007327,45.5761867 C46.8825658,45.8550198 46.8733972,46.1339025 46.8733972,46.4125168 C46.8733972,46.7263826 46.8847716,47.039589 46.9073267,47.3514634 L50.0048069,47.3514633 C50.9583307,47.3514633 51.7312198,48.1243524 51.7312198,49.0778763 C51.7312198,50.0313761 50.9583548,50.8043918 50.0048069,50.8043918 L47.661017,50.8043918 C47.9916188,51.6625269 48.419774,52.4454692 48.9340417,53.1287383 C49.0752467,53.3164167 49.2219502,53.4946787 49.3737664,53.6633387 C51.0012468,53.8173865 52.6447919,53.816663 54.2889597,53.6604382 C55.4147882,53.5535461 56.2689368,53.497225 57.110332,53.4913675 C57.3598485,53.1966555 57.5936233,52.8746368 57.8094551,52.527155 C58.5242978,51.3763102 60.0365845,51.0227921 61.1874291,51.7377657 C62.1135683,52.3130334 62.5232454,53.4048505 62.2753548,54.4090101 C63.1727377,54.85879 63.8879909,55.51145 64.4112211,56.4400308 C65.1750265,57.7955183 65.3661516,59.2749293 64.9189118,60.5942214 C64.4717632,61.9138901 63.4202052,62.9723119 61.9891428,63.5842041 C60.7251244,64.1247563 59.5248834,64.4215106 57.8359256,64.6420792 C58.3069788,64.8539713 58.7085377,65.0235501 59.1127265,65.1805844 C60.575517,65.7489259 61.3150405,65.9143265 62.070958,65.7797516 C63.0893754,65.59849 63.974402,65.105513 64.6424569,64.3498292 C65.3280757,63.5743904 66.0269681,62.7342017 66.8839925,61.6659484 C67.1874931,61.2876446 67.4285693,60.9844317 67.9669203,60.3052704 C68.2970855,59.8886513 68.4405267,59.7078879 68.6285441,59.4717956 C68.7427603,59.3282868 68.834363,59.2101334 69.0419329,58.9400507 C70.1827241,57.4555564 70.7907863,56.8082288 71.833988,56.1903144 Z M75.2386025,54.7692194 C76.929016,54.4215137 78.0386846,55.3075519 78.8273922,56.9367389 C78.9409208,57.1708455 79,57.4282844 79,57.6890377 L79,58.8166898 C79,58.9777461 78.9774397,59.1379368 78.9330211,59.2929136 C78.8361837,59.6303979 78.7557189,59.9179115 78.5924668,60.5065368 C78.364627,61.327342 78.2616683,61.6928154 78.1256631,62.1551662 C78.0073408,62.5574036 77.8939774,62.9263877 77.7797607,63.2785526 C76.628674,66.826301 75.2555292,69.5452057 73.4583797,71.8162828 C71.3350341,74.4995773 68.4547602,76.2695508 64.6989374,77.21656 C62.0651479,77.8806759 59.3236428,78.2092078 56.4152014,78.2092078 C54.7562998,78.2092078 53.0398727,78.1024581 51.2533243,77.8887521 C49.2892845,77.6539417 47.6942969,77.4342242 44.2059095,76.9324602 C41.5149991,76.5453587 40.2681215,76.370649 38.7580274,76.1758311 C34.7348505,75.6569031 31.7765152,75.5953707 28.8669474,76.1827152 C27.4051742,76.4778883 26.079185,76.9613774 24.9247009,77.6173472 C24.0957079,78.088377 23.0415602,77.7983338 22.5708524,76.9694202 C22.0996312,76.1405193 22.3897155,75.0865716 23.2187292,74.6152863 C24.6968008,73.7753833 26.3675516,73.1647456 28.1835411,72.7981598 C31.5307652,72.1223008 34.8185425,72.1861538 39.1998538,72.7512286 C40.7304155,72.9486735 41.979428,73.1236846 44.6975423,73.5146696 C48.1597146,74.0126533 49.7348417,74.2296843 51.6632629,74.4603181 C56.1635626,74.9982997 60.1476474,74.8031218 63.8546266,73.8685159 C66.8772616,73.1063538 69.117679,71.7371943 70.7505591,69.6736314 C72.2780339,67.7431947 73.4682407,65.3783086 74.4953655,62.2130266 C74.6321541,61.791274 74.7687801,61.3390765 74.920232,60.8119393 C75.0181101,60.4712688 75.0935607,60.2017881 75.2652574,59.5832341 C75.2915301,59.4885214 75.2915301,59.4885214 75.317855,59.3936625 C75.4130704,59.050652 75.4811764,58.8070096 75.546969,58.575208 L75.546969,58.2711743 C74.8438123,58.510166 74.1879029,58.8091602 73.5941147,59.1609129 C73.040198,59.4890296 72.6528388,59.9079702 71.7790886,61.0449665 C71.5566462,61.3343617 71.4513944,61.4699464 71.3299954,61.6223677 C71.1432253,61.8569627 71.0016442,62.0353738 70.672989,62.450021 C69.0087039,64.5497176 68.2337926,65.5007992 67.2293015,66.6369701 C66.0415577,67.9804278 64.4629573,68.8611515 62.6759558,69.1792853 C61.1466465,69.4514714 59.8895443,69.1868616 57.862255,68.3991466 C56.975467,68.0546524 56.2850528,67.741788 54.7913915,67.0314901 C52.5730955,65.976702 51.6207435,65.5749727 50.3680875,65.2351242 C49.6623891,65.0436575 49.1538979,64.4284932 49.0986023,63.6994197 C49.0432937,62.9704184 49.4531511,62.285604 50.1220642,61.9897714 C50.4427292,61.8480543 50.7628211,61.7643266 51.0915299,61.7400606 C51.5200338,61.708335 51.8624727,61.6844939 52.6313079,61.6320983 C54.210883,61.5248422 54.9134179,61.4728668 55.7599055,61.3947567 C58.1018796,61.1786623 59.3794353,60.944802 60.6316056,60.4093082 C61.1932415,60.1691776 61.5264913,59.8463499 61.648671,59.4860021 C61.7708109,59.1256043 61.7026127,58.6669866 61.402958,58.1351389 C61.1215086,57.6356413 60.6666704,57.3744005 59.7276573,57.1749091 C59.6124219,57.1507027 59.6124219,57.1507027 59.4971051,57.1285448 C58.3509001,56.9135067 57.1411676,56.8935618 55.5456617,57.0166413 C55.2627993,57.0384489 54.9686114,57.0643561 54.6153215,57.0979586 C53.5247446,57.2014517 52.4280956,57.2439684 51.3285767,57.2262394 C49.4320202,57.1955332 47.5512647,56.9817711 45.7056091,56.5867431 C45.4895654,56.5405165 45.3911135,56.5190258 45.2645616,56.4898849 C44.9700981,56.42201 44.7288877,56.3661018 44.1939516,56.2418972 C43.8600193,56.164366 43.8600193,56.164366 43.5247169,56.086684 C41.9195645,55.7152064 40.859331,55.480224 39.7769105,55.263132 C39.2287543,55.1531929 38.7067622,55.0549411 38.202918,54.9673948 C36.9160462,54.7439422 35.7008293,54.6857324 34.5925095,54.7918139 C32.8417155,54.9597499 31.0076402,55.6107071 28.8079542,56.8603892 C27.1181145,57.8203604 25.5521804,58.9265125 23.1668058,60.7715391 C22.9309892,60.9539373 22.7428552,61.1000387 22.3203476,61.4285898 C21.6357429,61.9609581 21.3249023,62.2018682 20.9383438,62.4984993 C20.098143,63.1431496 19.2027248,63.8062487 18.159517,64.560357 C17.5189894,65.023378 17.007098,65.3891419 15.8659509,66.2013483 C14.9509461,66.8525731 13.8729825,66.6711546 13.3201108,65.8944551 C12.767004,65.1176689 12.9485174,64.0395889 13.7254806,63.4865295 C14.9082845,62.6446963 15.3732982,62.3126333 15.9553399,61.8928871 C17.0551467,61.0997487 17.9772477,60.4182536 18.836344,59.7590939 C19.2197718,59.4647834 19.5518284,59.2074456 20.2006324,58.7028528 C23.4842895,56.1493343 25.0263537,55.0374598 27.1023242,53.8581481 C27.5639073,53.5959018 28.0151066,53.3549647 28.4576888,53.1347939 C28.4221401,53.0385007 28.3947106,52.9376688 28.3763498,52.8329629 C28.3655101,52.7712549 28.3655101,52.7712549 28.3545207,52.7094343 C28.3068473,52.4420013 28.2551899,52.1660225 28.186063,51.8063099 C28.1520716,51.629796 28.1520716,51.629796 28.1181333,51.4542676 C28.0987417,51.3539882 28.0987417,51.3539882 28.0792632,51.2531187 C27.8412557,50.0197245 27.720829,49.3148651 27.6299963,48.5275692 C27.6189451,48.43038 27.6189451,48.43038 27.608536,48.3329381 C27.1176687,43.658652 27.9002829,39.1520913 29.9324729,34.9542183 C31.5315799,31.65122 33.8179021,28.780514 36.7229265,26.4266025 C39.1176238,24.4860221 41.8156436,23.0402225 44.7390932,22.1311635 C47.7314947,21.2006283 50.8371243,20.8414757 53.9672262,21.0638496 C57.4908707,21.3143871 60.8457484,22.2773469 63.9333676,23.9250169 C66.3666248,25.2234388 68.5741779,26.951288 70.4939254,29.0586976 C73.5543465,32.418191 75.5611973,36.349084 76.4509407,40.729737 C77.4329464,45.5642496 77.0243223,50.2879316 75.2386025,54.7692194 Z" id="path-1"></path>
        <filter x="-10.6%" y="-8.7%" width="121.2%" height="124.5%" filterUnits="objectBoundingBox" id="filter-2">
            <feOffset dx="0" dy="2" in="SourceAlpha" result="shadowOffsetOuter1"></feOffset>
            <feGaussianBlur stdDeviation="2" in="shadowOffsetOuter1" result="shadowBlurOuter1"></feGaussianBlur>
            <feColorMatrix values="0 0 0 0 0   0 0 0 0 0   0 0 0 0 0  0 0 0 0.5 0" type="matrix" in="shadowBlurOuter1"></feColorMatrix>
        </filter>
    </defs>
    <g id="CONVIEN-EASY" stroke="none" stroke-width="1" fill="none" fill-rule="evenodd">
        <g id="EASY-1920px" transform="translate(-1053.000000, -391.000000)">
            <g id="iconMoneySaving-ww" transform="translate(1053.000000, 391.000000)">
                <circle id="Oval" fill-opacity="0.5" fill="#FFFFFF" cx="50" cy="50" r="50"></circle>
                <g id="Combined-Shape" fill-rule="nonzero">
                    <use fill="black" fill-opacity="1" filter="url(#filter-2)" xlink:href="#path-1"></use>
                    <use fill="#FFFFFF" fill-rule="evenodd" xlink:href="#path-1"></use>
                </g>
            </g>
        </g>
    </g>
</svg>