<?xml version="1.0" encoding="UTF-8"?>
<svg width="100px" height="100px" viewBox="0 0 100 100" version="1.1" xmlns="http://www.w3.org/2000/svg" xmlns:xlink="http://www.w3.org/1999/xlink">
    <!-- Generator: Sketch 46.2 (44496) - http://www.bohemiancoding.com/sketch -->
    <title>iconMoneySaving</title>
    <desc>Created with Sketch.</desc>
    <defs></defs>
    <g id="COVIEN-BYOOBE" stroke="none" stroke-width="1" fill="none" fill-rule="evenodd">
        <g id="BYOOBE-1920px" transform="translate(-590.000000, -381.000000)" fill-rule="nonzero" fill="#F5A623">
            <path d="M640,477 C665.405098,477 686,456.405098 686,431 C686,405.594902 665.405098,385 640,385 C614.594902,385 594,405.594902 594,431 C594,456.405098 614.594902,477 640,477 Z M640,481 C612.385763,481 590,458.614237 590,431 C590,403.385763 612.385763,381 640,381 C667.614237,381 690,403.385763 690,431 C690,458.614237 667.614237,481 640,481 Z M649.112726,446.180584 C650.575517,446.748926 651.31504,446.914327 652.070958,446.779752 C653.089375,446.59849 653.974402,446.105513 654.642457,445.349829 C655.328076,444.57439 656.026968,443.734202 656.883992,442.665948 C657.187493,442.287645 657.428569,441.984432 657.96692,441.30527 C658.297085,440.888651 658.440527,440.707888 658.628544,440.471796 C658.74276,440.328287 658.834363,440.210133 659.041933,439.940051 C660.182861,438.455378 660.790932,437.808073 661.834364,437.190092 C662.739953,436.653677 663.738122,436.214217 664.801472,435.882842 C666.740878,435.278302 667.972624,436.171095 668.827392,437.936739 C668.940921,438.170846 669,438.428284 669,438.689038 L669,439.81669 C669,439.977746 668.97744,440.137937 668.933021,440.292914 C668.836184,440.630398 668.755719,440.917912 668.592467,441.506537 C668.364627,442.327342 668.261668,442.692815 668.125663,443.155166 C668.007341,443.557404 667.893977,443.926388 667.779761,444.278553 C666.628674,447.826301 665.255529,450.545206 663.45838,452.816283 C661.335034,455.499577 658.45476,457.269551 654.698937,458.21656 C652.065148,458.880676 649.323643,459.209208 646.415201,459.209208 C644.7563,459.209208 643.039873,459.102458 641.253324,458.888752 C639.289284,458.653942 637.694297,458.434224 634.20591,457.93246 C631.514999,457.545359 630.268121,457.370649 628.758027,457.175831 C624.734851,456.656903 621.776515,456.595371 618.866947,457.182715 C617.405174,457.477888 616.079185,457.961377 614.924701,458.617347 C614.095708,459.088377 613.04156,458.798334 612.570852,457.96942 C612.099631,457.140519 612.389715,456.086572 613.218729,455.615286 C614.696801,454.775383 616.367552,454.164746 618.183541,453.79816 C621.530765,453.122301 624.818543,453.186154 629.199854,453.751229 C630.730415,453.948673 631.979428,454.123685 634.697542,454.51467 C638.159715,455.012653 639.734842,455.229684 641.663263,455.460318 C646.163563,455.9983 650.147647,455.803122 653.854627,454.868516 C656.877262,454.106354 659.117679,452.737194 660.750559,450.673631 C662.278034,448.743195 663.468241,446.378309 664.495365,443.213027 C664.632154,442.791274 664.76878,442.339077 664.920232,441.811939 C665.01811,441.471269 665.093561,441.201788 665.265257,440.583234 C665.29153,440.488521 665.29153,440.488521 665.317855,440.393663 C665.41307,440.050652 665.481176,439.80701 665.546969,439.575208 L665.546969,439.271174 C664.843812,439.510166 664.187903,439.80916 663.594115,440.160913 C663.040198,440.48903 662.652839,440.90797 661.779089,442.044967 C661.556646,442.334362 661.451394,442.469946 661.329995,442.622368 C661.143225,442.856963 661.001644,443.035374 660.672989,443.450021 C659.008704,445.549718 658.233793,446.500799 657.229301,447.63697 C656.041558,448.980428 654.462957,449.861152 652.675956,450.179285 C651.146646,450.451471 649.889544,450.186862 647.862255,449.399147 C646.975467,449.054652 646.285053,448.741788 644.791391,448.03149 C642.573096,446.976702 641.620744,446.574973 640.368087,446.235124 C639.662389,446.043658 639.153898,445.428493 639.098602,444.69942 C639.043294,443.970418 639.453151,443.285604 640.122064,442.989771 C640.442729,442.848054 640.762821,442.764327 641.09153,442.740061 C641.520034,442.708335 641.862473,442.684494 642.631308,442.632098 C644.210883,442.524842 644.913418,442.472867 645.759906,442.394757 C648.10188,442.178662 649.379435,441.944802 650.631606,441.409308 C651.193241,441.169178 651.526491,440.84635 651.648671,440.486002 C651.770811,440.125604 651.702613,439.666987 651.402958,439.135139 C651.121509,438.635641 650.66667,438.374401 649.727657,438.174909 C649.612422,438.150703 649.612422,438.150703 649.497105,438.128545 C648.3509,437.913507 647.141168,437.893562 645.545662,438.016641 C645.262799,438.038449 644.968611,438.064356 644.615322,438.097959 C643.524745,438.201452 642.428096,438.243968 641.328577,438.226239 C639.43202,438.195533 637.551265,437.981771 635.705609,437.586743 C635.489565,437.540517 635.391114,437.519026 635.264562,437.489885 C634.970098,437.42201 634.728888,437.366102 634.193952,437.241897 C633.860019,437.164366 633.860019,437.164366 633.524717,437.086684 C631.919565,436.715206 630.859331,436.480224 629.77691,436.263132 C629.228754,436.153193 628.706762,436.054941 628.202918,435.967395 C626.916046,435.743942 625.700829,435.685732 624.59251,435.791814 C622.841716,435.95975 621.00764,436.610707 618.807954,437.860389 C617.118115,438.82036 615.55218,439.926513 613.166806,441.771539 C612.930989,441.953937 612.742855,442.100039 612.320348,442.42859 C611.635743,442.960958 611.324902,443.201868 610.938344,443.498499 C610.098143,444.14315 609.202725,444.806249 608.159517,445.560357 C607.518989,446.023378 607.007098,446.389142 605.865951,447.201348 C604.950946,447.852573 603.872983,447.671155 603.320111,446.894455 C602.767004,446.117669 602.948517,445.039589 603.725481,444.48653 C604.908285,443.644696 605.373298,443.312633 605.95534,442.892887 C607.055147,442.099749 607.977248,441.418254 608.836344,440.759094 C609.219772,440.464783 609.551828,440.207446 610.200632,439.702853 C613.484289,437.149334 615.026354,436.03746 617.102324,434.858148 C619.715063,433.373733 621.995104,432.572064 624.262866,432.354684 C625.684733,432.218329 627.208572,432.289982 628.793883,432.565396 C628.972783,432.596678 628.972783,432.596678 629.151565,432.62871 C630.33875,432.842653 631.479759,433.080359 633.031622,433.431327 C632.833746,432.903477 632.662385,432.360236 632.518454,431.804392 L630.471021,431.804392 C629.517473,431.804392 628.744608,431.031376 628.744608,430.077876 C628.744608,429.124352 629.517497,428.351463 630.471021,428.351463 L631.991914,428.351463 C631.975619,428.039364 631.967438,427.726255 631.967438,427.412517 C631.967438,427.133208 631.973931,426.854339 631.986866,426.576187 L630.471021,426.576187 C629.517473,426.576187 628.744608,425.803171 628.744608,424.849671 C628.744608,423.896147 629.517497,423.123258 630.471021,423.123258 L632.492663,423.123258 C632.996917,421.122959 633.85293,419.289202 635.014243,417.746269 C637.124047,414.943145 640.015251,413.375526 643.139167,413.375526 C646.74958,413.375526 650.13452,415.563932 652.207524,419.180103 C652.881281,420.355413 652.474722,421.854369 651.299562,422.52804 C650.124314,423.202034 648.625292,422.795351 647.951396,421.619927 C646.718825,419.469903 644.961536,418.281485 643.139167,418.281485 C641.611951,418.281485 640.120469,419.120062 638.933975,420.696384 C638.399455,421.40666 637.958068,422.224831 637.622575,423.123258 L640.004807,423.123258 C640.958331,423.123258 641.73122,423.896147 641.73122,424.849671 C641.73122,425.803171 640.958355,426.576187 640.004807,426.576187 L636.900733,426.576187 C636.882566,426.85502 636.873397,427.133903 636.873397,427.412517 C636.873397,427.726383 636.884772,428.039589 636.907327,428.351463 L640.004807,428.351463 C640.958331,428.351463 641.73122,429.124352 641.73122,430.077876 C641.73122,431.031376 640.958355,431.804392 640.004807,431.804392 L637.661017,431.804392 C637.991619,432.662527 638.419774,433.445469 638.934042,434.128738 C639.075247,434.316417 639.22195,434.494679 639.373766,434.663339 C641.001247,434.817387 642.644792,434.816663 644.28896,434.660438 C645.414788,434.553546 646.268937,434.497225 647.110332,434.491367 C647.359849,434.196656 647.593623,433.874637 647.809455,433.527155 C648.524298,432.37631 650.036585,432.022792 651.187429,432.737766 C652.113568,433.313033 652.523245,434.40485 652.275355,435.40901 C653.172738,435.85879 653.887991,436.51145 654.411221,437.440031 C655.175027,438.795518 655.366152,440.274929 654.918912,441.594221 C654.471763,442.91389 653.420205,443.972312 651.989143,444.584204 C650.725124,445.124756 649.524883,445.421511 647.835926,445.642079 C648.306979,445.853971 648.708538,446.02355 649.112726,446.180584 Z M618.118133,432.454268 C618.098742,432.353988 618.098742,432.353988 618.079263,432.253119 C617.841256,431.019725 617.720829,430.314865 617.629996,429.527569 C617.618945,429.43038 617.618945,429.43038 617.608536,429.332938 C617.117669,424.658652 617.900283,420.152091 619.932473,415.954218 C621.53158,412.65122 623.817902,409.780514 626.722926,407.426602 C629.117624,405.486022 631.815644,404.040222 634.739093,403.131164 C637.731495,402.200628 640.837124,401.841476 643.967226,402.06385 C647.490871,402.314387 650.845748,403.277347 653.933368,404.925017 C656.366625,406.223439 658.574178,407.951288 660.493925,410.058698 C663.554347,413.418191 665.561197,417.349084 666.450941,421.729737 C667.512403,426.955422 666.949092,432.051616 664.778102,436.852165 C664.495891,437.475887 663.877175,437.867213 663.20468,437.867213 C662.960829,437.867213 662.718646,437.815591 662.493622,437.713653 C661.624884,437.320699 661.239053,436.29792 661.632003,435.429191 C663.500752,431.297021 663.983184,426.927276 663.067258,422.417068 C662.302547,418.652735 660.580574,415.281224 657.94141,412.383976 C656.285916,410.566775 654.39076,409.082846 652.307743,407.971356 C649.648854,406.552584 646.762091,405.724172 643.722424,405.508159 C641.021973,405.31634 638.345421,405.625837 635.764447,406.42838 C633.260587,407.206974 630.95094,408.444767 628.896826,410.109247 C626.385827,412.143978 624.417072,414.615255 623.040379,417.45884 C621.290754,421.072896 620.619301,424.941214 621.042641,428.972311 C621.057824,429.116995 621.075333,429.264501 621.095223,429.415888 C621.179693,430.058828 621.27214,430.577807 621.508336,431.798674 C621.545702,431.991847 621.545702,431.991847 621.583482,432.188139 C621.662808,432.60133 621.722395,432.921951 621.777536,433.237052 C621.942218,434.176422 621.314027,435.071201 620.37426,435.235751 C619.435377,435.39966 618.541044,434.772158 618.37635,433.832963 C618.36551,433.771255 618.36551,433.771255 618.354521,433.709434 C618.306847,433.442001 618.25519,433.166022 618.186063,432.80631 C618.152072,432.629796 618.152072,432.629796 618.118133,432.454268 Z" id="iconMoneySaving"></path>
        </g>
    </g>
</svg>