<?xml version="1.0" encoding="UTF-8"?>
<svg width="100px" height="100px" viewBox="0 0 100 100" version="1.1" xmlns="http://www.w3.org/2000/svg" xmlns:xlink="http://www.w3.org/1999/xlink">
    <!-- Generator: Sketch 46.2 (44496) - http://www.bohemiancoding.com/sketch -->
    <title>iconSecurity</title>
    <desc>Created with Sketch.</desc>
    <defs></defs>
    <g id="COVIEN-BYOOBE" stroke="none" stroke-width="1" fill="none" fill-rule="evenodd">
        <g id="BYOOBE-1920px" transform="translate(-1070.000000, -380.000000)" fill-rule="nonzero" fill="#005096">
            <path d="M1120,476 C1145.4051,476 1166,455.405098 1166,430 C1166,404.594902 1145.4051,384 1120,384 C1094.5949,384 1074,404.594902 1074,430 C1074,455.405098 1094.5949,476 1120,476 Z M1120,480 C1092.38576,480 1070,457.614237 1070,430 C1070,402.385763 1092.38576,380 1120,380 C1147.61424,380 1170,402.385763 1170,430 C1170,457.614237 1147.61424,480 1120,480 Z M1120.0026,459.7108 C1117.5286,458.8228 1115.3246,457.8128 1113.3006,456.7128 C1123.6786,452.2988 1137.3946,437.2188 1143.1966,423.8248 C1143.1666,430.6668 1142.4946,435.5348 1140.9326,440.2288 C1137.9006,449.3308 1131.4406,455.6728 1120.0026,459.7108 M1104.1506,449.5068 C1116.6126,444.9988 1135.8866,423.6288 1137.8246,410.9708 C1139.1626,411.1208 1140.5246,411.2288 1141.9166,411.2888 C1143.4446,424.9328 1120.3466,452.3348 1108.8966,453.9188 C1107.1026,452.5728 1105.5126,451.1128 1104.1506,449.5068 M1096.0006,411.3308 C1104.6526,411.0628 1112.5706,409.0528 1119.7286,405.2948 C1124.0046,407.7348 1128.7286,409.4248 1133.8826,410.3928 C1132.2666,421.7848 1112.1266,443.5988 1101.7326,446.1168 C1100.7066,444.4488 1099.8146,442.6828 1099.1046,440.7688 C1096.5126,433.7728 1095.9906,427.3008 1096.0006,411.3308 M1146.6386,409.2308 C1146.5706,408.1788 1145.6986,407.3608 1144.6426,407.3608 C1135.3966,407.3608 1127.4646,405.3328 1120.8106,401.2908 C1120.1986,400.9188 1119.4326,400.9028 1118.8046,401.2508 C1111.4466,405.3228 1103.1906,407.3608 1094.0006,407.3608 C1092.8966,407.3608 1092.0006,408.2568 1092.0006,409.3608 L1092.0006,411.1248 C1091.9866,427.7488 1092.5226,434.5188 1095.3546,442.1608 C1099.0986,452.2568 1106.6166,459.3128 1119.3426,463.7188 C1119.7626,463.8628 1120.2186,463.8648 1120.6406,463.7228 C1133.6386,459.3068 1141.2326,451.9848 1144.7266,441.4928 C1147.4206,433.4068 1147.6806,425.2168 1146.6386,409.2308 M1107.2,429.875 C1108.036,430.903 1109.624,430.847 1110.388,429.763 L1118.552,418.151 C1119.186,417.247 1118.968,415.999 1118.066,415.365 C1117.16,414.729 1115.912,414.947 1115.278,415.849 L1108.634,425.301 L1105.552,421.511 C1104.854,420.655 1103.594,420.527 1102.738,421.223 C1101.88,421.919 1101.75,423.179 1102.448,424.037 L1107.2,429.875 Z" id="iconSecurity"></path>
        </g>
    </g>
</svg>