<?xml version="1.0" encoding="UTF-8"?>
<svg width="40px" height="40px" viewBox="0 0 40 40" version="1.1" xmlns="http://www.w3.org/2000/svg" xmlns:xlink="http://www.w3.org/1999/xlink">
    <!-- Generator: Sketch 45.2 (43514) - http://www.bohemiancoding.com/sketch -->
    <title>Icon_social media/Instagram_W</title>
    <desc>Created with Sketch.</desc>
    <defs></defs>
    <g id="Symbols" stroke="none" stroke-width="1" fill="none" fill-rule="evenodd">
        <g id="Icon_social-media/Instagram_W" fill-rule="nonzero" fill="#FFFFFF">
            <path d="M20,38 C29.9411255,38 38,29.9411255 38,20 C38,10.0588745 29.9411255,2 20,2 C10.0588745,2 2,10.0588745 2,20 C2,29.9411255 10.0588745,38 20,38 Z M20,40 C8.954305,40 0,31.045695 0,20 C0,8.954305 8.954305,0 20,0 C31.045695,0 40,8.954305 40,20 C40,31.045695 31.045695,40 20,40 Z M29.2316923,18.1529231 L27.1418462,18.1529231 C27.2941538,18.7436923 27.3846154,19.3612308 27.3846154,20 C27.3846154,24.0781538 24.0781538,27.3846154 20,27.3846154 C15.9218462,27.3846154 12.6153846,24.0781538 12.6153846,20 C12.6153846,19.3612308 12.7058462,18.7436923 12.8581538,18.1529231 L10.7683077,18.1529231 L10.7683077,28.3076923 C10.7683077,28.8163077 11.1818462,29.2298462 11.6923077,29.2298462 L28.3076923,29.2298462 C28.8181538,29.2298462 29.2316923,28.8163077 29.2316923,28.3076923 L29.2316923,18.1529231 L29.2316923,18.1529231 Z M29.2316923,11.6923077 C29.2316923,11.1827692 28.8181538,10.7692308 28.3076923,10.7692308 L25.5384615,10.7692308 C25.0289231,10.7692308 24.6153846,11.1827692 24.6153846,11.6923077 L24.6153846,14.4615385 C24.6153846,14.9710769 25.0289231,15.3846154 25.5384615,15.3846154 L28.3076923,15.3846154 C28.8181538,15.3846154 29.2316923,14.9710769 29.2316923,14.4615385 L29.2316923,11.6923077 L29.2316923,11.6923077 Z M20,15.3846154 C17.4504615,15.3846154 15.3846154,17.4504615 15.3846154,20 C15.3846154,22.5486154 17.4504615,24.6153846 20,24.6153846 C22.5486154,24.6153846 24.6153846,22.5486154 24.6153846,20 C24.6153846,17.4504615 22.5486154,15.3846154 20,15.3846154 L20,15.3846154 Z M29.2316923,32 L10.7683077,32 C9.23969231,32 8,30.7593846 8,29.2298462 L8,10.7692308 C8,9.23969231 9.23969231,8 10.7683077,8 L29.2316923,8 C30.7603077,8 32,9.23969231 32,10.7692308 L32,29.2298462 C32,30.7593846 30.7603077,32 29.2316923,32 L29.2316923,32 Z" id="Combined-Shape"></path>
        </g>
    </g>
</svg>