<?xml version="1.0" encoding="UTF-8"?>
<svg width="101px" height="100px" viewBox="0 0 101 100" version="1.1" xmlns="http://www.w3.org/2000/svg" xmlns:xlink="http://www.w3.org/1999/xlink">
    <!-- Generator: Sketch 46.2 (44496) - http://www.bohemiancoding.com/sketch -->
    <title>iconMoneySaving-w</title>
    <desc>Created with Sketch.</desc>
    <defs></defs>
    <g id="COVIEN-BYOOBE" stroke="none" stroke-width="1" fill="none" fill-rule="evenodd">
        <g id="BYOOBE-1920px" transform="translate(-410.000000, -1744.000000)" fill-rule="nonzero" fill="#FFFFFF">
            <g id="Feature---Money-Saving" transform="translate(0.000000, 1680.000000)">
                <g id="Group-4" transform="translate(410.000000, 64.000000)">
                    <path d="M50.441455,96.2328767 C76.0176135,96.2328767 96.7511866,75.6103763 96.7511866,50.1712329 C96.7511866,24.7320894 76.0176135,4.10958904 50.441455,4.10958904 C24.8652964,4.10958904 4.13172327,24.7320894 4.13172327,50.1712329 C4.13172327,75.6103763 24.8652964,96.2328767 50.441455,96.2328767 Z M50.2692998,100 C22.5063321,100 0,77.6142375 0,50 C0,22.3857625 22.5063321,0 50.2692998,0 C78.0322675,0 100.5386,22.3857625 100.5386,50 C100.5386,77.6142375 78.0322675,100 50.2692998,100 Z M59.5122596,65.3799083 C60.9850638,65.9489532 61.7296498,66.1145586 62.490742,65.9798171 C63.516131,65.7983312 64.4072161,65.3047441 65.0798443,64.5481249 C65.7701565,63.7717263 66.4738332,62.9304977 67.3367245,61.8609222 C67.6423027,61.4821502 67.8850292,61.178562 68.4270655,60.49856 C68.7594909,60.0814253 68.903914,59.9004382 69.0932185,59.6640536 C69.2082166,59.5203672 69.3004463,59.4020676 69.5094372,59.1316506 C70.6581757,57.6451404 71.2704096,56.9970344 72.320984,56.378288 C73.2327719,55.8412088 74.2377743,55.4012058 75.3084041,55.0694203 C77.261086,54.4641322 78.5012643,55.3580301 79.3618836,57.1258593 C79.4761893,57.3602556 79.535673,57.6180132 79.535673,57.8790892 L79.535673,59.008137 C79.535673,59.1693927 79.5129582,59.3297817 79.4682356,59.4849503 C79.3707353,59.8228523 79.2897197,60.1107217 79.12535,60.7000756 C78.8959505,61.5218967 78.792287,61.8878225 78.6553507,62.3507455 C78.5362185,62.7534808 78.4220791,63.1229216 78.3070805,63.4755223 C77.1481139,67.0276618 75.7655692,69.7499318 73.9561171,72.0238199 C71.818236,74.7104355 68.918245,76.4825997 65.1367114,77.4307811 C62.4848921,78.095719 59.7246199,78.4246575 56.7962685,78.4246575 C55.1260107,78.4246575 53.3978337,78.3177757 51.5990554,78.1038052 C49.6215705,77.8687042 48.0156643,77.6487147 44.503397,77.1463297 C41.7940657,76.758749 40.5386525,76.5838231 39.018221,76.388764 C34.9675032,75.8691937 31.9889163,75.8075853 29.0594309,76.3956567 C27.5876509,76.6911952 26.2525846,77.1752826 25.0901974,77.8320643 C24.2555295,78.3036771 23.1941655,78.0132749 22.7202354,77.1833354 C22.2457885,76.3534085 22.5378585,75.2981563 23.3725473,74.8262878 C24.8607372,73.9853452 26.5429252,73.3739517 28.3713463,73.0069122 C31.741484,72.3302166 35.051768,72.3941487 39.4630719,72.9599229 C41.0041112,73.1576121 42.2616739,73.3328398 44.9983953,73.7243088 C48.4842681,74.2229088 50.0701779,74.4402085 52.0118002,74.6711278 C56.5429071,75.2097752 60.5542652,75.0143558 64.2866208,74.0785931 C67.3299475,73.3154876 69.5857018,71.9446335 71.2297599,69.8785165 C72.7676912,67.9456904 73.9660456,65.5778772 75.0002016,62.4086775 C75.1379266,61.986403 75.275488,61.5336457 75.4279767,61.005856 C75.5265248,60.6647639 75.6024918,60.3949496 75.7753639,59.7756301 C75.8018165,59.6808002 75.8018165,59.6808002 75.8283216,59.5858239 C75.9241888,59.2423888 75.992761,58.9984448 76.0590041,58.7663563 L76.0590041,58.4619463 C75.3510338,58.7012338 74.6906344,59.0005981 74.0927813,59.3527862 C73.5350727,59.681309 73.1450619,60.1007681 72.2653303,61.2391717 C72.0413652,61.5289251 71.9353928,61.6646776 71.8131628,61.8172876 C71.6251142,62.052173 71.4825639,62.2308048 71.1516588,62.6459653 C69.4759808,64.7482607 68.6957648,65.7005195 67.6843973,66.8380967 C66.4885227,68.1832171 64.8991159,69.065031 63.0998813,69.3835585 C61.560103,69.6560815 60.2943953,69.3911442 58.2532279,68.6024542 C57.3603694,68.2575336 56.6652289,67.944282 55.1613426,67.233105 C52.9278612,66.1770114 51.9689898,65.7747848 50.7077586,65.4345156 C49.9972293,65.242812 49.4852572,64.6268863 49.429583,63.8969103 C49.3738958,63.1670068 49.7865589,62.4813447 50.4600511,62.185146 C50.7829113,62.0432535 51.1051944,61.9594222 51.4361534,61.9351262 C51.8675906,61.9033613 52.2123738,61.8794907 52.986472,61.8270302 C54.5768602,61.7196414 55.2842044,61.6676016 56.1364867,61.5893948 C58.4944929,61.373033 59.7807942,61.1388832 61.0415364,60.6027266 C61.607017,60.3622989 61.9425481,60.0390716 62.0655642,59.6782778 C62.1885402,59.3174339 62.1198751,58.8582486 61.8181691,58.3257425 C61.5347931,57.8256267 61.0768412,57.5640626 60.1314001,57.3643243 C60.0153758,57.3400879 60.0153758,57.3400879 59.8992695,57.3179026 C58.7452182,57.1025983 57.5272043,57.0826287 55.9207763,57.2058606 C55.6359775,57.2276952 55.3397758,57.2536344 54.9840674,57.2872785 C53.8860248,57.3908997 52.7818687,57.433469 51.6748229,57.4157181 C49.7652834,57.3849739 47.871653,57.1709472 46.0133628,56.7754302 C45.7958402,56.7291465 45.6967144,56.7076291 45.5692961,56.6784522 C45.2728169,56.6104933 45.0299553,56.5545159 44.4913572,56.4301575 C44.1551389,56.3525303 44.1551389,56.3525303 43.8175412,56.2747522 C42.2014006,55.9028148 41.1339093,55.6675416 40.0440789,55.4501809 C39.4921703,55.3401057 38.9666048,55.2417323 38.4593115,55.1540777 C37.1636304,54.9303485 35.9400946,54.8720667 34.8241877,54.9782794 C33.0614085,55.1464233 31.2147779,55.7981862 29.0000338,57.0494151 C27.2986262,58.0105744 25.7219723,59.1180957 23.3202685,60.9654059 C23.0828376,61.1480298 22.8934157,61.2943121 22.4680158,61.6232699 C21.7787245,62.156297 21.4657561,62.3975053 21.0765514,62.6945036 C20.2305989,63.3399518 19.3290511,64.0038716 18.2787019,64.7589133 C17.6337896,65.2225074 17.118394,65.588724 15.9694351,66.4019356 C15.0481665,67.0539665 13.9628236,66.8723235 13.4061672,66.0946626 C12.849274,65.316915 13.0320301,64.2375007 13.814312,63.6837567 C15.0052129,62.8408815 15.4734098,62.5084076 16.059436,62.0881418 C17.1667716,61.2940217 18.0951849,60.6116832 18.9601622,59.9517076 C19.3462148,59.6570328 19.6805445,59.3993765 20.3337899,58.8941591 C23.6399255,56.33748 25.192546,55.2242294 27.2827278,54.0434581 C29.913352,52.5572053 32.2090013,51.7545447 34.4922873,51.5368958 C35.9238877,51.4003716 37.4581582,51.472113 39.0543219,51.7478681 C39.2344467,51.7791894 39.2344467,51.7791894 39.4144524,51.8112607 C40.6097644,52.0254681 41.7585848,52.2634681 43.3210708,52.614871 C43.1218406,52.0863679 42.9493063,51.5424538 42.8043903,50.9859221 L40.742941,50.9859221 C39.7828655,50.9859221 39.0047098,50.2119496 39.0047098,49.2572696 C39.0047098,48.3025656 39.7828898,47.5287198 40.742941,47.5287198 L42.2742455,47.5287198 C42.2578393,47.2162338 42.2496016,46.902738 42.2496016,46.5886112 C42.2496016,46.308957 42.2561392,46.0297423 42.2691627,45.7512459 L40.742941,45.7512459 C39.7828655,45.7512459 39.0047098,44.9772734 39.0047098,44.0225935 C39.0047098,43.0678894 39.7828898,42.2940437 40.742941,42.2940437 L42.7784226,42.2940437 C43.2861285,40.2912685 44.1480008,38.4552417 45.3172644,36.9103995 C47.4415108,34.1038058 50.352507,32.5342466 53.4978078,32.5342466 C57.1329364,32.5342466 60.5410481,34.7253606 62.6282428,38.3460082 C63.3066117,39.5227728 62.8972703,41.0235844 61.7140656,41.698089 C60.530772,42.3729168 59.0214883,41.9657303 58.3429793,40.7888516 C57.1019708,38.6361665 55.332652,37.4462782 53.4978078,37.4462782 C51.9601367,37.4462782 50.4584454,38.2858924 49.2638285,39.864166 C48.72565,40.5753204 48.2812414,41.3945045 47.943451,42.2940437 L50.3419911,42.2940437 C51.3020424,42.2940437 52.0802223,43.0678894 52.0802223,44.0225935 C52.0802223,44.9772734 51.3020666,45.7512459 50.3419911,45.7512459 L47.2166678,45.7512459 C47.1983765,46.0304241 47.1891451,46.309652 47.1891451,46.5886112 C47.1891451,46.9028655 47.2005974,47.2164594 47.2233069,47.5287199 L50.3419911,47.5287198 C51.3020424,47.5287198 52.0802223,48.3025656 52.0802223,49.2572696 C52.0802223,50.2119496 51.3020666,50.9859221 50.3419911,50.9859221 L47.9821567,50.9859221 C48.3150216,51.8451193 48.7461078,52.6290307 49.2638959,53.3131455 C49.4060676,53.5010561 49.5537753,53.6795388 49.7066308,53.8484075 C51.3452522,54.002646 53.0000483,54.0019216 54.6554714,53.8455034 C55.7890068,53.738479 56.6490027,53.6820882 57.4961577,53.6762235 C57.7473822,53.3811467 57.9827574,53.0587294 58.2000666,52.7108175 C58.9198029,51.5585483 60.442442,51.2045926 61.6011648,51.9204512 C62.533644,52.496431 62.9461255,53.5895994 62.696538,54.5950018 C63.600064,55.0453385 64.3202135,55.6988063 64.8470255,56.6285364 C65.6160597,57.9857016 65.8084931,59.4669437 65.3581917,60.7878687 C64.9079821,62.1091708 63.8492255,63.1689026 62.4083667,63.7815522 C61.1356954,64.3227734 59.9272381,64.619895 58.2267183,64.8407366 C58.7009962,65.052891 59.1053039,65.2226797 59.5122596,65.3799083 Z M28.2020219,51.4225315 C28.1824658,51.3219957 28.1824658,51.3219957 28.1628221,51.2208684 C27.9227962,49.984321 27.8013482,49.2776597 27.7097453,48.4883511 C27.6986003,48.3909134 27.6986003,48.3909134 27.688103,48.2932224 C27.193073,43.6069867 27.982324,39.0889051 30.0317477,34.8803005 C31.6444158,31.5688582 33.9501268,28.6908133 36.8797869,26.3308841 C39.2947921,24.3853427 42.0156921,22.935847 44.9639337,22.0244641 C47.9817118,21.09155 51.1136783,20.7314792 54.2703247,20.9544216 C57.8238509,21.2055996 61.2071793,22.1710211 64.3209827,23.8229033 C66.7748747,25.1246446 69.0011488,26.856911 70.9371764,28.9697081 C74.023551,32.3377899 76.0474207,36.278732 76.9447094,40.670584 C78.0151732,45.9096283 77.4470857,51.0188502 75.2576842,55.8316723 C74.9730803,56.456988 74.349117,56.8493151 73.6709192,56.8493151 C73.425,56.8493151 73.1807638,56.7975613 72.9538314,56.6953625 C72.0777259,56.3014037 71.6886233,55.27601 72.0849058,54.4050599 C73.9695017,50.2623262 74.4560254,45.8814108 73.5323318,41.3596719 C72.7611356,37.5857158 71.0245596,34.2055855 68.3630146,31.3009307 C66.6934819,29.479084 64.7822535,27.9913617 62.6815718,26.8770306 C60.0001352,25.4546311 57.0888908,24.624101 54.0234461,24.4075358 C51.3000944,24.2152273 48.6008443,24.5255153 45.9979828,25.3301098 C43.472889,26.1106944 41.1436556,27.3516511 39.0721217,29.0203863 C36.5398284,31.0603192 34.5543775,33.5379145 33.1660103,36.3887681 C31.4015478,40.012064 30.7243999,43.8902709 31.1513307,47.9316735 C31.1666421,48.076727 31.1843001,48.2246105 31.2043581,48.3763846 C31.2895442,49.0209681 31.3827758,49.5412742 31.620975,50.7652615 C31.6586577,50.9589288 31.6586577,50.9589288 31.6967578,51.1557224 C31.7767571,51.5699702 31.8368489,51.89141 31.8924575,52.2073167 C32.0585362,53.1490884 31.4250176,54.0461548 30.4772816,54.2111258 C29.5304366,54.3754536 28.6285188,53.7463474 28.4624281,52.8047514 C28.4514965,52.7428856 28.4514965,52.7428856 28.4404139,52.6809069 C28.3923362,52.4127903 28.3402408,52.1361059 28.2705276,51.7754737 C28.236248,51.5985086 28.236248,51.5985086 28.2020219,51.4225315 Z" id="iconMoneySaving-w"></path>
                </g>
            </g>
        </g>
    </g>
</svg>