<?xml version="1.0" encoding="UTF-8"?>
<svg width="100px" height="100px" viewBox="0 0 100 100" version="1.1" xmlns="http://www.w3.org/2000/svg" xmlns:xlink="http://www.w3.org/1999/xlink">
    <!-- Generator: Sketch 46.2 (44496) - http://www.bohemiancoding.com/sketch -->
    <title>iconEcoFriendly-w</title>
    <desc>Created with Sketch.</desc>
    <defs></defs>
    <g id="COVIEN-BYOOBE" stroke="none" stroke-width="1" fill="none" fill-rule="evenodd">
        <g id="BYOOBE-1920px" transform="translate(-410.000000, -2944.000000)" fill-rule="nonzero" fill="#FFFFFF">
            <g id="Feature---Eco-Friendly" transform="translate(0.000000, 2880.000000)">
                <g id="Group-4" transform="translate(410.000000, 64.000000)">
                    <path d="M50,96 C75.4050985,96 96,75.4050985 96,50 C96,24.5949015 75.4050985,4 50,4 C24.5949015,4 4,24.5949015 4,50 C4,75.4050985 24.5949015,96 50,96 Z M50,100 C22.3857625,100 0,77.6142375 0,50 C0,22.3857625 22.3857625,0 50,0 C77.6142375,0 100,22.3857625 100,50 C100,77.6142375 77.6142375,100 50,100 Z M63.8680375,33.7596065 C63.4830155,35.0354639 63.2017984,36.4415493 62.8299879,38.7630058 C61.7900508,45.2611966 61.6598228,45.9746198 60.8576935,48.6867605 C59.4950174,53.3032504 57.4245802,56.9213252 54.2349368,59.7183972 C46.9383914,66.1203325 37.4034335,66.237349 33.2512349,61.1962024 C36.8240131,52.901242 43.4486572,45.0309383 54.2670219,37.6022776 C55.1257721,37.011533 55.3447062,35.8375932 54.7558489,34.9769556 C54.163217,34.1182055 52.9892772,33.8992714 52.130527,34.490016 C41.8085388,41.5789514 35.040455,49.1529391 30.9882867,57.138372 C27.6117943,49.03781 30.9486521,41.6336849 45.1774817,34.8807001 C54.9257116,30.2547734 62.544996,27.0273827 67.9881509,25.2098521 C66.1177742,28.0182483 64.7456613,30.8681664 63.8680375,33.7596065 M72.5423579,20.0384775 C66.9255656,21.1406975 57.3056764,24.9456213 43.5581243,31.4702352 C25.7772774,39.9086352 22.6838895,50.6250823 29.0122176,61.615197 C27.0040634,66.9507722 26.0886923,72.4562101 26.0886923,78.112637 C26.0886923,79.1563487 26.934231,80 27.9760553,80 C29.0197671,80 29.8634183,79.1563487 29.8634183,78.112637 C29.8634183,73.6603477 30.4711492,69.3175254 31.7998528,65.0822828 C37.8299776,70.3348141 48.6389055,69.6515887 56.7262559,62.5569912 C60.506644,59.2408944 62.9262434,55.0094265 64.4776558,49.7587827 C65.3458427,46.8182711 65.4836202,46.0614385 66.5594171,39.3594125 C66.9029172,37.1983819 67.1577112,35.9187498 67.4823376,34.854277 C68.6732637,30.9228999 70.9475361,27.0141711 74.3296906,23.1299781 C75.5092925,21.7729641 74.3051549,19.6912027 72.5423579,20.0384775" id="iconEcoFriendly-w"></path>
                </g>
            </g>
        </g>
    </g>
</svg>