<?xml version="1.0" encoding="UTF-8"?>
<svg width="100px" height="100px" viewBox="0 0 100 100" version="1.1" xmlns="http://www.w3.org/2000/svg" xmlns:xlink="http://www.w3.org/1999/xlink">
    <!-- Generator: Sketch 46.2 (44496) - http://www.bohemiancoding.com/sketch -->
    <title>iconRequest-r</title>
    <desc>Created with Sketch.</desc>
    <defs></defs>
    <g id="COVIEN-BYOOBE" stroke="none" stroke-width="1" fill="none" fill-rule="evenodd">
        <g id="BYOOBE-1920px" transform="translate(-1230.000000, -380.000000)" fill="#AE0018">
            <path d="M1280,480 C1307.61424,480 1330,457.614237 1330,430 C1330,402.385763 1307.61424,380 1280,380 C1252.38576,380 1230,402.385763 1230,430 C1230,457.614237 1252.38576,480 1280,480 Z M1292.36634,433.646068 L1304.88891,433.646068 C1305.9526,433.646068 1306.81525,432.783426 1306.81525,431.721087 C1306.81525,430.657389 1305.9526,429.794747 1304.88891,429.794747 L1290.88423,429.794747 C1290.01072,428.119728 1288.87094,426.562898 1287.51517,425.155502 L1304.88891,425.155502 C1305.9526,425.155502 1306.81525,424.29286 1306.81525,423.230521 C1306.81525,422.166823 1305.9526,421.304181 1304.88891,421.304181 L1282.60966,421.304181 C1278.61026,418.926823 1273.73057,417.512634 1268.45419,417.512634 C1267.9203,417.512634 1267.39864,417.550672 1266.87291,417.5792 L1266.87291,407.851049 L1311.248,407.851049 L1311.248,442.855275 L1306.88589,438.984936 C1306.53268,438.672483 1306.07894,438.499955 1305.60755,438.499955 L1292.8717,438.499955 C1292.87849,438.294823 1292.90838,438.095125 1292.90838,437.889992 C1292.90838,436.433691 1292.71683,435.015426 1292.36634,433.646068 M1288.27321,442.351275 C1285.83743,449.301313 1277.88619,454.417389 1268.45419,454.417389 C1265.19925,454.417389 1262.05977,453.806068 1259.12272,452.601087 C1258.30898,452.26554 1257.43275,452.550823 1256.9206,453.224634 L1253.89389,455.606068 L1253.89389,451.078219 C1254.10989,450.370445 1253.90475,449.57437 1253.31653,449.062219 C1249.7926,445.989313 1247.85132,442.022521 1247.85132,437.889992 C1247.85132,430.287879 1254.29328,423.883955 1263.02158,421.965766 C1263.65328,421.825842 1264.29449,421.711728 1264.94792,421.620709 C1265.58098,421.532408 1266.22219,421.4672 1266.87291,421.427804 C1267.39728,421.3952 1267.9203,421.362596 1268.45419,421.362596 C1269.71487,421.362596 1270.9443,421.468558 1272.14385,421.643804 C1275.68,422.158672 1278.90777,423.388106 1281.57042,425.155502 C1283.51442,426.446068 1285.14868,428.021917 1286.39713,429.794747 C1287.24075,430.992936 1287.89147,432.286219 1288.34249,433.646068 C1288.79351,435.0032 1289.05706,436.420106 1289.05706,437.889992 C1289.05706,438.095125 1289.02717,438.294823 1289.01902,438.499955 C1288.98913,439.15203 1288.91034,439.793238 1288.78943,440.424936 C1288.66174,441.079728 1288.49328,441.723653 1288.27321,442.351275 M1311.35804,403.999728 L1266.76423,403.999728 C1264.70068,403.999728 1263.02158,405.682898 1263.02158,407.750521 L1263.02158,418.035653 C1252.14823,420.103275 1244,428.212106 1244,437.889992 C1244,442.845766 1246.13826,447.567879 1250.04257,451.286068 L1250.04257,459.570143 C1250.04257,460.306445 1250.4637,460.978898 1251.12664,461.30086 C1251.39426,461.431275 1251.68091,461.495125 1251.96755,461.495125 C1252.3914,461.495125 1252.81253,461.3552 1253.15894,461.082143 L1258.83743,456.615426 C1261.89675,457.713087 1265.12589,458.268709 1268.45419,458.268709 C1280.09781,458.268709 1289.84906,451.44637 1292.29977,442.351275 L1304.87668,442.351275 L1311.896,448.577238 C1312.256,448.896483 1312.71245,449.063577 1313.17434,449.063577 C1313.44196,449.063577 1313.71094,449.007879 1313.96362,448.893766 C1314.65509,448.582672 1315.09932,447.895275 1315.09932,447.137238 L1315.09932,407.750521 C1315.09932,405.682898 1313.42158,403.999728 1311.35804,403.999728 M1304.88931,412.813615 L1273.23377,412.813615 C1272.17007,412.813615 1271.30743,413.676257 1271.30743,414.738596 C1271.30743,415.802294 1272.17007,416.664936 1273.23377,416.664936 L1304.88931,416.664936 C1305.95301,416.664936 1306.81429,415.802294 1306.81429,414.738596 C1306.81429,413.676257 1305.95301,412.813615 1304.88931,412.813615 M1268.45419,434.416875 C1267.7994,434.416875 1267.22068,434.74563 1266.87291,435.246913 C1266.65691,435.558008 1266.52921,435.934309 1266.52921,436.341857 L1266.52921,440.377932 L1266.52921,442.327366 L1266.52921,446.552272 C1266.52921,447.614611 1267.39049,448.477253 1268.45419,448.477253 C1269.51789,448.477253 1270.37917,447.614611 1270.37917,446.552272 L1270.37917,442.35046 L1270.37917,440.425479 L1270.37917,438.49914 L1270.37917,436.341857 C1270.37917,435.279517 1269.51789,434.416875 1268.45419,434.416875 M1268.45419,428.050309 C1267.83472,428.050309 1267.27638,428.304347 1266.87291,428.713253 C1266.47758,429.114008 1266.23306,429.664196 1266.23306,430.271442 C1266.23306,430.880045 1266.47758,431.430234 1266.87291,431.830989 C1267.27638,432.238536 1267.83472,432.493932 1268.45419,432.493932 C1269.68091,432.493932 1270.67532,431.499517 1270.67532,430.271442 C1270.67532,429.044725 1269.68091,428.050309 1268.45419,428.050309" id="iconRequest-r"></path>
        </g>
    </g>
</svg>