<?xml version="1.0" encoding="UTF-8"?>
<svg width="100px" height="100px" viewBox="0 0 100 100" version="1.1" xmlns="http://www.w3.org/2000/svg" xmlns:xlink="http://www.w3.org/1999/xlink">
    <!-- Generator: Sketch 46.2 (44496) - http://www.bohemiancoding.com/sketch -->
    <title>iconMeeting-w</title>
    <desc>Created with Sketch.</desc>
    <defs></defs>
    <g id="CONVIEN-EASY" stroke="none" stroke-width="1" fill="none" fill-rule="evenodd">
        <g id="EASY-1920px" transform="translate(-410.000000, -3504.000000)" fill="#FFFFFF">
            <g id="Feature---Meeting" transform="translate(0.000000, 3440.000000)">
                <g id="Group-4" transform="translate(410.000000, 64.000000)">
                    <path d="M74.5301871,58.9387119 C74.5007328,57.4537895 74.2356442,56.0111486 73.756194,54.6293928 C74.1554631,53.5199292 74.698731,52.4561294 75.4203609,51.7255071 C76.0929004,51.0490049 76.8685298,50.7022975 77.7096132,50.7513439 C78.7176042,50.7767127 79.5783238,51.1927616 80.3457715,52.0248593 C81.9248483,53.7397924 82.6628417,56.7586835 82.7233867,58.522663 C81.4797614,59.2532854 77.1352547,59.3784383 74.5301871,58.9387119 M60.076316,72.4247834 C59.3383226,70.0823945 58.2174235,67.6977242 56.5728928,65.8559469 C55.9510801,65.1591497 55.2850861,64.5807403 54.5830923,64.102115 C56.1523511,62.7051379 57.1668875,60.6637925 57.1668875,58.3603025 C57.1668875,54.1642975 53.8630988,50.7496526 49.8033168,50.7496526 C45.7418985,50.7496526 42.4397462,54.1642975 42.4397462,58.3603025 C42.4397462,60.594451 43.3937377,62.5884413 44.8811789,63.9803446 C44.3411838,64.3490383 43.8191884,64.7735434 43.3331928,65.2809201 C41.3597558,67.3341043 40.1357667,70.1855611 39.396137,72.839141 C33.2712826,70.7402929 28.7467775,66.7404736 27.4720616,61.9626767 C27.2331546,61.0680026 27.0907923,60.1496508 27.0907923,59.2059302 C27.0907923,56.9667079 27.8140585,54.8458735 29.0805927,52.9279897 C31.543298,49.1987713 36.128348,46.2745905 41.763934,44.8793047 C44.084277,44.3076603 46.5764365,43.9863218 49.1815042,43.9863218 C52.0942055,43.9863218 54.8710898,44.3871493 57.4205216,45.0940942 C63.5470123,46.7988797 68.3186061,50.34206 70.287134,54.7257944 C70.9236738,56.1430665 71.2722161,57.6449014 71.2722161,59.2059302 C71.2722161,59.8942712 71.1822169,60.5690822 71.051309,61.2337456 C70.1185901,66.0318375 65.9279002,70.1196021 60.076316,72.4247834 M45.7124442,58.3603025 C45.7124442,56.0280611 47.5467915,54.1321637 49.8033168,54.1321637 C52.0598421,54.1321637 53.8941894,56.0280611 53.8941894,58.3603025 C53.8941894,60.580921 52.223477,62.3854906 50.1174958,62.5563074 C49.9931333,62.5478511 49.8704071,62.5309386 49.7427719,62.5275561 C49.6413183,62.5241736 49.5447737,62.5512337 49.4449564,62.5512337 C47.3586114,62.3601218 45.7124442,60.5656997 45.7124442,58.3603025 M17.2890616,58.4803816 C17.4052423,56.6791945 18.1595992,53.3660249 19.7844938,51.7255071 C20.4570333,51.0490049 21.2375718,50.7022975 22.0737461,50.7513439 C23.0817371,50.7767127 23.9424567,51.1927616 24.7099044,52.0248593 C24.9455387,52.2819301 25.1582641,52.5745173 25.3578986,52.8840171 C24.3859073,54.8441822 23.831185,56.9497954 23.8213669,59.1535013 C21.365207,59.2938755 18.3706883,59.0638648 17.2890616,58.4803816 M22.1817452,40.6038107 C23.9850018,40.6038107 25.4544432,42.1208669 25.4544432,43.9863218 C25.4544432,45.8500854 23.9850018,47.3671416 22.1817452,47.3671416 C20.3768522,47.3671416 18.9090471,45.8500854 18.9090471,43.9863218 C18.9090471,42.1208669 20.3768522,40.6038107 22.1817452,40.6038107 M47.2506123,36.5042074 C47.9215154,35.8277052 48.6987812,35.5503392 49.541501,35.5300442 C50.5478556,35.555413 51.4085752,35.9714619 52.1760229,36.8035596 C53.1741958,37.8876544 53.8352808,39.4926559 54.201823,40.9725044 C52.5785648,40.7323462 50.901307,40.6038107 49.1815042,40.6038107 C47.8036983,40.6038107 46.4635285,40.7086686 45.1446311,40.8625728 C45.5340822,39.2812489 46.213167,37.5527858 47.2506123,36.5042074 M49.6495,25.382511 C51.4527566,25.382511 52.9221981,26.8995672 52.9221981,28.7650221 C52.9221981,30.6304769 51.4527566,32.1475331 49.6495,32.1475331 C47.844607,32.1475331 46.376802,30.6304769 46.376802,28.7650221 C46.376802,26.8995672 47.844607,25.382511 49.6495,25.382511 M77.8176123,40.6038107 C79.6208689,40.6038107 81.0903103,42.1208669 81.0903103,43.9863218 C81.0903103,45.8500854 79.6208689,47.3671416 77.8176123,47.3671416 C76.0127193,47.3671416 74.5449142,45.8500854 74.5449142,43.9863218 C74.5449142,42.1208669 76.0127193,40.6038107 77.8176123,40.6038107 M82.7152049,49.6926179 C82.5090249,49.4676809 82.2782997,49.2900991 82.0573926,49.097296 C83.456471,47.8542232 84.3630084,46.0361235 84.3630084,43.9863218 C84.3630084,40.2554121 81.4273982,37.2212997 77.8176123,37.2212997 C74.2078263,37.2212997 71.2722161,40.2554121 71.2722161,43.9863218 C71.2722161,45.9921508 72.1362084,47.7747342 73.4812873,49.0144245 C73.3683792,49.1158998 73.2440167,49.1936975 73.132745,49.3053204 C72.6582038,49.7839457 72.2572982,50.3522076 71.8907561,50.9475295 C68.9764184,46.668653 63.8791912,43.3250409 57.6725193,41.6997443 C57.3321587,39.4283882 56.3945307,36.4788385 54.5454563,34.4730095 C54.3392763,34.2480725 54.1101875,34.0687994 53.8892804,33.8759963 C55.2867224,32.6346147 56.1948961,30.816515 56.1948961,28.7650221 C56.1948961,25.0341124 53.259286,22 49.6495,22 C46.0397141,22 43.1041039,25.0341124 43.1041039,28.7650221 C43.1041039,30.7691599 43.9680962,32.5534345 45.3131751,33.7931248 C45.1986306,33.8946001 45.0742681,33.9740891 44.9646327,34.085712 C43.0795587,35.9866832 42.0748403,39.0461644 41.6772075,41.4680423 C35.5572622,42.8700931 30.4125808,45.9075881 27.2462454,49.9057161 C27.1889732,49.8380659 27.1398827,49.7585769 27.0793378,49.6926179 C26.8731578,49.4676809 26.6424326,49.2900991 26.4215255,49.097296 C27.8206039,47.8542232 28.7271413,46.0361235 28.7271413,43.9863218 C28.7271413,40.2554121 25.7915311,37.2212997 22.1817452,37.2212997 C18.5719592,37.2212997 15.636349,40.2554121 15.636349,43.9863218 C15.636349,45.9921508 16.5003413,47.7747342 17.8454202,49.0144245 C17.7325121,49.1158998 17.6081496,49.1936975 17.4968779,49.3053204 C14.9490824,51.8777201 14,56.5777192 14,58.9370206 C14,62.0167969 19.0301369,62.5461599 22.0295647,62.58675 C22.1571999,62.5884413 22.2897442,62.5884413 22.4255612,62.5884413 C22.9901016,62.5884413 23.6102779,62.5698375 24.2468176,62.5241736 C25.7424407,68.5890159 31.2569369,73.6323398 38.6826888,76.1269417 C39.780679,76.4956354 40.9163052,76.8068265 42.0912038,77.0588235 C42.2368389,76.0643653 42.4724732,74.9261503 42.804652,73.7693315 C43.4166466,71.6349671 44.370638,69.4380261 45.7893526,67.9615601 C46.9151608,66.78952 48.1996948,66.2195669 49.6609545,66.2753783 C51.3365759,66.3159685 52.7667449,67.0229133 54.0267337,68.4368029 C55.2327229,69.7898073 56.1081696,71.6417321 56.7103461,73.5038044 C57.0736156,74.6234156 57.3387041,75.7413355 57.5007027,76.7645451 C58.6690559,76.4651928 59.7932277,76.1032642 60.8748544,75.6872153 C67.7818836,73.0353266 72.8316568,68.1239206 74.1652812,62.2890891 C75.3827249,62.4971135 76.6410773,62.5715287 77.6654318,62.58675 C77.793067,62.5884413 77.9256113,62.5884413 78.0614283,62.5884413 C81.1655824,62.5884413 85.91754,62.0810646 85.9977211,58.9809933 C86.0500842,56.8263337 85.2073645,52.400318 82.7152049,49.6926179 M50,96 C75.4050985,96 96,75.4050985 96,50 C96,24.5949015 75.4050985,4 50,4 C24.5949015,4 4,24.5949015 4,50 C4,75.4050985 24.5949015,96 50,96 Z M50,100 C22.3857625,100 0,77.6142375 0,50 C0,22.3857625 22.3857625,0 50,0 C77.6142375,0 100,22.3857625 100,50 C100,77.6142375 77.6142375,100 50,100 Z" id="iconMeeting-w"></path>
                </g>
            </g>
        </g>
    </g>
</svg>