<?xml version="1.0" encoding="UTF-8"?>
<svg width="100px" height="100px" viewBox="0 0 100 100" version="1.1" xmlns="http://www.w3.org/2000/svg" xmlns:xlink="http://www.w3.org/1999/xlink">
    <!-- Generator: Sketch 47.1 (45422) - http://www.bohemiancoding.com/sketch -->
    <title>iconMeeting</title>
    <desc>Created with Sketch.</desc>
    <defs></defs>
    <g id="COVIEN-BYOOBE" stroke="none" stroke-width="1" fill="none" fill-rule="evenodd">
        <g id="BYOOBE-1920px" transform="translate(-1777.000000, -380.000000)" fill-rule="nonzero" fill="#AE0018">
            <path d="M1827,476 C1852.4051,476 1873,455.405098 1873,430 C1873,404.594902 1852.4051,384 1827,384 C1801.5949,384 1781,404.594902 1781,430 C1781,455.405098 1801.5949,476 1827,476 Z M1827,480 C1799.38576,480 1777,457.614237 1777,430 C1777,402.385763 1799.38576,380 1827,380 C1854.61424,380 1877,402.385763 1877,430 C1877,457.614237 1854.61424,480 1827,480 Z M1851.53019,438.938712 C1851.50073,437.45379 1851.23564,436.011149 1850.75619,434.629393 C1851.15546,433.519929 1851.69873,432.456129 1852.42036,431.725507 C1853.0929,431.049005 1853.86853,430.702297 1854.70961,430.751344 C1855.7176,430.776713 1856.57832,431.192762 1857.34577,432.024859 C1858.92485,433.739792 1859.66284,436.758683 1859.72339,438.522663 C1858.47976,439.253285 1854.13525,439.378438 1851.53019,438.938712 M1837.07632,452.424783 C1836.33832,450.082394 1835.21742,447.697724 1833.57289,445.855947 C1832.95108,445.15915 1832.28509,444.58074 1831.58309,444.102115 C1833.15235,442.705138 1834.16689,440.663792 1834.16689,438.360302 C1834.16689,434.164298 1830.8631,430.749653 1826.80332,430.749653 C1822.7419,430.749653 1819.43975,434.164298 1819.43975,438.360302 C1819.43975,440.594451 1820.39374,442.588441 1821.88118,443.980345 C1821.34118,444.349038 1820.81919,444.773543 1820.33319,445.28092 C1818.35976,447.334104 1817.13577,450.185561 1816.39614,452.839141 C1810.27128,450.740293 1805.74678,446.740474 1804.47206,441.962677 C1804.23315,441.068003 1804.09079,440.149651 1804.09079,439.20593 C1804.09079,436.966708 1804.81406,434.845873 1806.08059,432.92799 C1808.5433,429.198771 1813.12835,426.274591 1818.76393,424.879305 C1821.08428,424.30766 1823.57644,423.986322 1826.1815,423.986322 C1829.09421,423.986322 1831.87109,424.387149 1834.42052,425.094094 C1840.54701,426.79888 1845.31861,430.34206 1847.28713,434.725794 C1847.92367,436.143066 1848.27222,437.644901 1848.27222,439.20593 C1848.27222,439.894271 1848.18222,440.569082 1848.05131,441.233746 C1847.11859,446.031838 1842.9279,450.119602 1837.07632,452.424783 M1822.71244,438.360302 C1822.71244,436.028061 1824.54679,434.132164 1826.80332,434.132164 C1829.05984,434.132164 1830.89419,436.028061 1830.89419,438.360302 C1830.89419,440.580921 1829.22348,442.385491 1827.1175,442.556307 C1826.99313,442.547851 1826.87041,442.530939 1826.74277,442.527556 C1826.64132,442.524174 1826.54477,442.551234 1826.44496,442.551234 C1824.35861,442.360122 1822.71244,440.5657 1822.71244,438.360302 M1794.28906,438.480382 C1794.40524,436.679194 1795.1596,433.366025 1796.78449,431.725507 C1797.45703,431.049005 1798.23757,430.702297 1799.07375,430.751344 C1800.08174,430.776713 1800.94246,431.192762 1801.7099,432.024859 C1801.94554,432.28193 1802.15826,432.574517 1802.3579,432.884017 C1801.38591,434.844182 1800.83118,436.949795 1800.82137,439.153501 C1798.36521,439.293876 1795.37069,439.063865 1794.28906,438.480382 M1799.18175,420.603811 C1800.985,420.603811 1802.45444,422.120867 1802.45444,423.986322 C1802.45444,425.850085 1800.985,427.367142 1799.18175,427.367142 C1797.37685,427.367142 1795.90905,425.850085 1795.90905,423.986322 C1795.90905,422.120867 1797.37685,420.603811 1799.18175,420.603811 M1824.25061,416.504207 C1824.92152,415.827705 1825.69878,415.550339 1826.5415,415.530044 C1827.54786,415.555413 1828.40858,415.971462 1829.17602,416.80356 C1830.1742,417.887654 1830.83528,419.492656 1831.20182,420.972504 C1829.57856,420.732346 1827.90131,420.603811 1826.1815,420.603811 C1824.8037,420.603811 1823.46353,420.708669 1822.14463,420.862573 C1822.53408,419.281249 1823.21317,417.552786 1824.25061,416.504207 M1826.6495,405.382511 C1828.45276,405.382511 1829.9222,406.899567 1829.9222,408.765022 C1829.9222,410.630477 1828.45276,412.147533 1826.6495,412.147533 C1824.84461,412.147533 1823.3768,410.630477 1823.3768,408.765022 C1823.3768,406.899567 1824.84461,405.382511 1826.6495,405.382511 M1854.81761,420.603811 C1856.62087,420.603811 1858.09031,422.120867 1858.09031,423.986322 C1858.09031,425.850085 1856.62087,427.367142 1854.81761,427.367142 C1853.01272,427.367142 1851.54491,425.850085 1851.54491,423.986322 C1851.54491,422.120867 1853.01272,420.603811 1854.81761,420.603811 M1859.7152,429.692618 C1859.50902,429.467681 1859.2783,429.290099 1859.05739,429.097296 C1860.45647,427.854223 1861.36301,426.036123 1861.36301,423.986322 C1861.36301,420.255412 1858.4274,417.2213 1854.81761,417.2213 C1851.20783,417.2213 1848.27222,420.255412 1848.27222,423.986322 C1848.27222,425.992151 1849.13621,427.774734 1850.48129,429.014424 C1850.36838,429.1159 1850.24402,429.193698 1850.13274,429.30532 C1849.6582,429.783946 1849.2573,430.352208 1848.89076,430.94753 C1845.97642,426.668653 1840.87919,423.325041 1834.67252,421.699744 C1834.33216,419.428388 1833.39453,416.478839 1831.54546,414.473009 C1831.33928,414.248072 1831.11019,414.068799 1830.88928,413.875996 C1832.28672,412.634615 1833.1949,410.816515 1833.1949,408.765022 C1833.1949,405.034112 1830.25929,402 1826.6495,402 C1823.03971,402 1820.1041,405.034112 1820.1041,408.765022 C1820.1041,410.76916 1820.9681,412.553434 1822.31318,413.793125 C1822.19863,413.8946 1822.07427,413.974089 1821.96463,414.085712 C1820.07956,415.986683 1819.07484,419.046164 1818.67721,421.468042 C1812.55726,422.870093 1807.41258,425.907588 1804.24625,429.905716 C1804.18897,429.838066 1804.13988,429.758577 1804.07934,429.692618 C1803.87316,429.467681 1803.64243,429.290099 1803.42153,429.097296 C1804.8206,427.854223 1805.72714,426.036123 1805.72714,423.986322 C1805.72714,420.255412 1802.79153,417.2213 1799.18175,417.2213 C1795.57196,417.2213 1792.63635,420.255412 1792.63635,423.986322 C1792.63635,425.992151 1793.50034,427.774734 1794.84542,429.014424 C1794.73251,429.1159 1794.60815,429.193698 1794.49688,429.30532 C1791.94908,431.87772 1791,436.577719 1791,438.937021 C1791,442.016797 1796.03014,442.54616 1799.02956,442.58675 C1799.1572,442.588441 1799.28974,442.588441 1799.42556,442.588441 C1799.9901,442.588441 1800.61028,442.569837 1801.24682,442.524174 C1802.74244,448.589016 1808.25694,453.63234 1815.68269,456.126942 C1816.78068,456.495635 1817.91631,456.806826 1819.0912,457.058824 C1819.23684,456.064365 1819.47247,454.92615 1819.80465,453.769332 C1820.41665,451.634967 1821.37064,449.438026 1822.78935,447.96156 C1823.91516,446.78952 1825.19969,446.219567 1826.66095,446.275378 C1828.33658,446.315968 1829.76674,447.022913 1831.02673,448.436803 C1832.23272,449.789807 1833.10817,451.641732 1833.71035,453.503804 C1834.07362,454.623416 1834.3387,455.741335 1834.5007,456.764545 C1835.66906,456.465193 1836.79323,456.103264 1837.87485,455.687215 C1844.78188,453.035327 1849.83166,448.123921 1851.16528,442.289089 C1852.38272,442.497113 1853.64108,442.571529 1854.66543,442.58675 C1854.79307,442.588441 1854.92561,442.588441 1855.06143,442.588441 C1858.16558,442.588441 1862.91754,442.081065 1862.99772,438.980993 C1863.05008,436.826334 1862.20736,432.400318 1859.7152,429.692618" id="iconMeeting"></path>
        </g>
    </g>
</svg>