<?xml version="1.0" encoding="UTF-8"?>
<svg width="319px" height="45px" viewBox="0 0 319 45" version="1.1" xmlns="http://www.w3.org/2000/svg" xmlns:xlink="http://www.w3.org/1999/xlink">
    <!-- Generator: Sketch 46.2 (44496) - http://www.bohemiancoding.com/sketch -->
    <title>logoByoobe-g</title>
    <desc>Created with Sketch.</desc>
    <defs></defs>
    <g id="Symbol" stroke="none" stroke-width="1" fill="none" fill-rule="evenodd">
        <g id="HNV_BYOOBE" transform="translate(-40.000000, -40.000000)" fill="#4A4A4A">
            <g id="logoByoobe-g" transform="translate(40.000000, 40.000000)">
                <path d="M198.96,13.76 L205.44,13.76 C206.320004,13.76 207.179996,13.8499991 208.02,14.03 C208.860004,14.2100009 209.609997,14.5049979 210.27,14.915 C210.930003,15.325002 211.464998,15.8599967 211.875,16.52 C212.285002,17.1800033 212.49,17.9999951 212.49,18.98 C212.49,20.2200062 212.155003,21.2449959 211.485,22.055 C210.814997,22.865004 209.910006,23.4399983 208.77,23.78 L208.77,23.84 C209.450003,23.9000003 210.084997,24.0749985 210.675,24.365 C211.265003,24.6550014 211.774998,25.0299977 212.205,25.49 C212.635002,25.9500023 212.969999,26.4849969 213.21,27.095 C213.450001,27.705003 213.57,28.3599965 213.57,29.06 C213.57,30.2400059 213.325002,31.2099962 212.835,31.97 C212.344998,32.7300038 211.705004,33.3349977 210.915,33.785 C210.124996,34.2350022 209.235005,34.5499991 208.245,34.73 C207.254995,34.9100009 206.270005,35 205.29,35 L198.96,35 L198.96,13.76 Z M201.48,22.76 L204.96,22.76 C205.560003,22.76 206.144997,22.7200004 206.715,22.64 C207.285003,22.5599996 207.799998,22.3950013 208.26,22.145 C208.720002,21.8949988 209.089999,21.5450023 209.37,21.095 C209.650001,20.6449978 209.79,20.0500037 209.79,19.31 C209.79,18.6499967 209.660001,18.1150021 209.4,17.705 C209.139999,17.294998 208.795002,16.9700012 208.365,16.73 C207.934998,16.4899988 207.445003,16.3250005 206.895,16.235 C206.344997,16.1449996 205.790003,16.1 205.23,16.1 L201.48,16.1 L201.48,22.76 Z M201.48,32.66 L205.74,32.66 C206.360003,32.66 206.974997,32.5950007 207.585,32.465 C208.195003,32.3349994 208.744998,32.1250015 209.235,31.835 C209.725002,31.5449986 210.119999,31.1650024 210.42,30.695 C210.720002,30.2249977 210.87,29.6500034 210.87,28.97 C210.87,28.2299963 210.725001,27.6100025 210.435,27.11 C210.144999,26.6099975 209.765002,26.2100015 209.295,25.91 C208.824998,25.6099985 208.285003,25.4000006 207.675,25.28 C207.064997,25.1599994 206.440003,25.1 205.8,25.1 L201.48,25.1 L201.48,32.66 Z M222.87,25.85 L214.95,13.76 L218.16,13.76 L224.13,23.36 L230.28,13.76 L233.31,13.76 L225.39,25.85 L225.39,35 L222.87,35 L222.87,25.85 Z M245.55,35.54 C243.929992,35.54 242.445007,35.2600028 241.095,34.7 C239.744993,34.1399972 238.575005,33.365005 237.585,32.375 C236.594995,31.3849951 235.825003,30.2050069 235.275,28.835 C234.724997,27.4649932 234.45,25.980008 234.45,24.38 C234.45,22.779992 234.724997,21.2950069 235.275,19.925 C235.825003,18.5549932 236.594995,17.375005 237.585,16.385 C238.575005,15.3949951 239.744993,14.6200028 241.095,14.06 C242.445007,13.4999972 243.929992,13.22 245.55,13.22 C247.170008,13.22 248.654993,13.4999972 250.005,14.06 C251.355007,14.6200028 252.524995,15.3949951 253.515,16.385 C254.505005,17.375005 255.274997,18.5549932 255.825,19.925 C256.375003,21.2950069 256.65,22.779992 256.65,24.38 C256.65,25.980008 256.375003,27.4649932 255.825,28.835 C255.274997,30.2050069 254.505005,31.3849951 253.515,32.375 C252.524995,33.365005 251.355007,34.1399972 250.005,34.7 C248.654993,35.2600028 247.170008,35.54 245.55,35.54 Z M245.55,33.2 C246.790006,33.2 247.924995,32.9700023 248.955,32.51 C249.985005,32.0499977 250.869996,31.420004 251.61,30.62 C252.350004,29.819996 252.924998,28.8850054 253.335,27.815 C253.745002,26.7449946 253.95,25.6000061 253.95,24.38 C253.95,23.1599939 253.745002,22.0150054 253.335,20.945 C252.924998,19.8749947 252.350004,18.940004 251.61,18.14 C250.869996,17.339996 249.985005,16.7100023 248.955,16.25 C247.924995,15.7899977 246.790006,15.56 245.55,15.56 C244.309994,15.56 243.175005,15.7899977 242.145,16.25 C241.114995,16.7100023 240.230004,17.339996 239.49,18.14 C238.749996,18.940004 238.175002,19.8749947 237.765,20.945 C237.354998,22.0150054 237.15,23.1599939 237.15,24.38 C237.15,25.6000061 237.354998,26.7449946 237.765,27.815 C238.175002,28.8850054 238.749996,29.819996 239.49,30.62 C240.230004,31.420004 241.114995,32.0499977 242.145,32.51 C243.175005,32.9700023 244.309994,33.2 245.55,33.2 Z M270.57,35.54 C268.949992,35.54 267.465007,35.2600028 266.115,34.7 C264.764993,34.1399972 263.595005,33.365005 262.605,32.375 C261.614995,31.3849951 260.845003,30.2050069 260.295,28.835 C259.744997,27.4649932 259.47,25.980008 259.47,24.38 C259.47,22.779992 259.744997,21.2950069 260.295,19.925 C260.845003,18.5549932 261.614995,17.375005 262.605,16.385 C263.595005,15.3949951 264.764993,14.6200028 266.115,14.06 C267.465007,13.4999972 268.949992,13.22 270.57,13.22 C272.190008,13.22 273.674993,13.4999972 275.025,14.06 C276.375007,14.6200028 277.544995,15.3949951 278.535,16.385 C279.525005,17.375005 280.294997,18.5549932 280.845,19.925 C281.395003,21.2950069 281.67,22.779992 281.67,24.38 C281.67,25.980008 281.395003,27.4649932 280.845,28.835 C280.294997,30.2050069 279.525005,31.3849951 278.535,32.375 C277.544995,33.365005 276.375007,34.1399972 275.025,34.7 C273.674993,35.2600028 272.190008,35.54 270.57,35.54 Z M270.57,33.2 C271.810006,33.2 272.944995,32.9700023 273.975,32.51 C275.005005,32.0499977 275.889996,31.420004 276.63,30.62 C277.370004,29.819996 277.944998,28.8850054 278.355,27.815 C278.765002,26.7449946 278.97,25.6000061 278.97,24.38 C278.97,23.1599939 278.765002,22.0150054 278.355,20.945 C277.944998,19.8749947 277.370004,18.940004 276.63,18.14 C275.889996,17.339996 275.005005,16.7100023 273.975,16.25 C272.944995,15.7899977 271.810006,15.56 270.57,15.56 C269.329994,15.56 268.195005,15.7899977 267.165,16.25 C266.134995,16.7100023 265.250004,17.339996 264.51,18.14 C263.769996,18.940004 263.195002,19.8749947 262.785,20.945 C262.374998,22.0150054 262.17,23.1599939 262.17,24.38 C262.17,25.6000061 262.374998,26.7449946 262.785,27.815 C263.195002,28.8850054 263.769996,29.819996 264.51,30.62 C265.250004,31.420004 266.134995,32.0499977 267.165,32.51 C268.195005,32.9700023 269.329994,33.2 270.57,33.2 Z M285.72,13.76 L292.2,13.76 C293.080004,13.76 293.939996,13.8499991 294.78,14.03 C295.620004,14.2100009 296.369997,14.5049979 297.03,14.915 C297.690003,15.325002 298.224998,15.8599967 298.635,16.52 C299.045002,17.1800033 299.25,17.9999951 299.25,18.98 C299.25,20.2200062 298.915003,21.2449959 298.245,22.055 C297.574997,22.865004 296.670006,23.4399983 295.53,23.78 L295.53,23.84 C296.210003,23.9000003 296.844997,24.0749985 297.435,24.365 C298.025003,24.6550014 298.534998,25.0299977 298.965,25.49 C299.395002,25.9500023 299.729999,26.4849969 299.97,27.095 C300.210001,27.705003 300.33,28.3599965 300.33,29.06 C300.33,30.2400059 300.085002,31.2099962 299.595,31.97 C299.104998,32.7300038 298.465004,33.3349977 297.675,33.785 C296.884996,34.2350022 295.995005,34.5499991 295.005,34.73 C294.014995,34.9100009 293.030005,35 292.05,35 L285.72,35 L285.72,13.76 Z M288.24,22.76 L291.72,22.76 C292.320003,22.76 292.904997,22.7200004 293.475,22.64 C294.045003,22.5599996 294.559998,22.3950013 295.02,22.145 C295.480002,21.8949988 295.849999,21.5450023 296.13,21.095 C296.410001,20.6449978 296.55,20.0500037 296.55,19.31 C296.55,18.6499967 296.420001,18.1150021 296.16,17.705 C295.899999,17.294998 295.555002,16.9700012 295.125,16.73 C294.694998,16.4899988 294.205003,16.3250005 293.655,16.235 C293.104997,16.1449996 292.550003,16.1 291.99,16.1 L288.24,16.1 L288.24,22.76 Z M288.24,32.66 L292.5,32.66 C293.120003,32.66 293.734997,32.5950007 294.345,32.465 C294.955003,32.3349994 295.504998,32.1250015 295.995,31.835 C296.485002,31.5449986 296.879998,31.1650024 297.18,30.695 C297.480002,30.2249977 297.63,29.6500034 297.63,28.97 C297.63,28.2299963 297.485001,27.6100025 297.195,27.11 C296.904999,26.6099975 296.525002,26.2100015 296.055,25.91 C295.584998,25.6099985 295.045003,25.4000006 294.435,25.28 C293.824997,25.1599994 293.200003,25.1 292.56,25.1 L288.24,25.1 L288.24,32.66 Z M304.62,13.76 L317.97,13.76 L317.97,16.1 L307.14,16.1 L307.14,22.76 L317.25,22.76 L317.25,25.1 L307.14,25.1 L307.14,32.66 L318.51,32.66 L318.51,35 L304.62,35 L304.62,13.76 Z" id="BYOOBE"></path>
                <path d="M64.95,18.74 C64.1699961,17.8999958 63.4150037,17.3400014 62.685,17.06 C61.9549964,16.7799986 61.2200037,16.64 60.48,16.64 C59.3799945,16.64 58.3850044,16.8349981 57.495,17.225 C56.6049955,17.615002 55.8400032,18.1549966 55.2,18.845 C54.5599968,19.5350035 54.0650017,20.3399954 53.715,21.26 C53.3649982,22.1800046 53.19,23.1699947 53.19,24.23 C53.19,25.3700057 53.3649982,26.4199952 53.715,27.38 C54.0650017,28.3400048 54.5599968,29.1699965 55.2,29.87 C55.8400032,30.5700035 56.6049955,31.119998 57.495,31.52 C58.3850044,31.920002 59.3799945,32.12 60.48,32.12 C61.3400043,32.12 62.1749959,31.9150021 62.985,31.505 C63.795004,31.094998 64.5499965,30.4400045 65.25,29.54 L68.37,31.76 C67.4099952,33.0800066 66.2400069,34.039997 64.86,34.64 C63.4799931,35.240003 62.0100078,35.54 60.45,35.54 C58.8099918,35.54 57.3050068,35.2750027 55.935,34.745 C54.5649931,34.2149974 53.3850049,33.4650049 52.395,32.495 C51.404995,31.5249952 50.6300028,30.3600068 50.07,29 C49.5099972,27.6399932 49.23,26.1300083 49.23,24.47 C49.23,22.7699915 49.5099972,21.225007 50.07,19.835 C50.6300028,18.4449931 51.404995,17.2600049 52.395,16.28 C53.3850049,15.2999951 54.5649931,14.5450027 55.935,14.015 C57.3050068,13.4849974 58.8099918,13.22 60.45,13.22 C61.8900072,13.22 63.2249938,13.4749975 64.455,13.985 C65.6850061,14.4950026 66.8299947,15.3599939 67.89,16.58 L64.95,18.74 Z M69.78,24.47 C69.78,22.7699915 70.0599972,21.2250069 70.62,19.835 C71.1800028,18.444993 71.9549951,17.2600049 72.945,16.28 C73.935005,15.2999951 75.1149932,14.5450026 76.485,14.015 C77.8550068,13.4849973 79.3599918,13.22 81,13.22 C82.6600083,13.1999999 84.1799931,13.4449974 85.56,13.955 C86.9400069,14.4650025 88.129995,15.2099951 89.13,16.19 C90.130005,17.1700049 90.9099972,18.3499931 91.47,19.73 C92.0300028,21.1100069 92.31,22.6499915 92.31,24.35 C92.31,26.0100083 92.0300028,27.5199932 91.47,28.88 C90.9099972,30.2400068 90.130005,31.4099951 89.13,32.39 C88.129995,33.3700049 86.9400069,34.1349972 85.56,34.685 C84.1799931,35.2350027 82.6600083,35.5199999 81,35.54 C79.3599918,35.54 77.8550068,35.2750026 76.485,34.745 C75.1149932,34.2149974 73.935005,33.4650048 72.945,32.495 C71.9549951,31.5249951 71.1800028,30.3600068 70.62,29 C70.0599972,27.6399932 69.78,26.1300083 69.78,24.47 Z M73.74,24.23 C73.74,25.3700057 73.9149982,26.4199952 74.265,27.38 C74.6150018,28.3400048 75.1099968,29.1699965 75.75,29.87 C76.3900032,30.5700035 77.1549955,31.119998 78.045,31.52 C78.9350045,31.920002 79.9299945,32.12 81.03,32.12 C82.1300055,32.12 83.1299955,31.920002 84.03,31.52 C84.9300045,31.119998 85.6999968,30.5700035 86.34,29.87 C86.9800032,29.1699965 87.4749982,28.3400048 87.825,27.38 C88.1750018,26.4199952 88.35,25.3700057 88.35,24.23 C88.35,23.1699947 88.1750018,22.1800046 87.825,21.26 C87.4749982,20.3399954 86.9800032,19.5350034 86.34,18.845 C85.6999968,18.1549965 84.9300045,17.6150019 84.03,17.225 C83.1299955,16.834998 82.1300055,16.64 81.03,16.64 C79.9299945,16.64 78.9350045,16.834998 78.045,17.225 C77.1549955,17.6150019 76.3900032,18.1549965 75.75,18.845 C75.1099968,19.5350034 74.6150018,20.3399954 74.265,21.26 C73.9149982,22.1800046 73.74,23.1699947 73.74,24.23 Z M95.91,13.76 L100.92,13.76 L111.21,29.54 L111.27,29.54 L111.27,13.76 L115.05,13.76 L115.05,35 L110.25,35 L99.75,18.71 L99.69,18.71 L99.69,35 L95.91,35 L95.91,13.76 Z M117.33,13.76 L121.68,13.76 L127.47,29.81 L133.44,13.76 L137.52,13.76 L128.94,35 L125.67,35 L117.33,13.76 Z M139.71,13.76 L143.49,13.76 L143.49,35 L139.71,35 L139.71,13.76 Z M148.14,13.76 L162.21,13.76 L162.21,17.18 L151.92,17.18 L151.92,22.4 L161.67,22.4 L161.67,25.82 L151.92,25.82 L151.92,31.58 L162.75,31.58 L162.75,35 L148.14,35 L148.14,13.76 Z M166.47,13.76 L171.48,13.76 L181.77,29.54 L181.83,29.54 L181.83,13.76 L185.61,13.76 L185.61,35 L180.81,35 L170.31,18.71 L170.25,18.71 L170.25,35 L166.47,35 L166.47,13.76 Z" id="CONVIEN"></path>
                <path d="M32.9078715,13.4357016 L32.8197297,13.5994321 L32.9078673,13.4356993 C33.8432731,13.93923 34.4798386,15.2728587 33.9351955,16.3125275 C33.482955,17.1757599 32.1934686,17.5130313 31.4166465,17.1583643 C30.5857576,16.7790454 30.0385809,16.1188622 29.8124426,15.2143089 C29.7459858,14.9484816 29.7799206,14.6623988 29.8808673,14.3671499 C27.8793161,12.6509975 24.2221662,12.0029583 20.7202191,12.814312 C16.698423,13.7461076 13.4756724,16.3818027 11.954458,20.4742504 C12.288916,21.0808808 12.4631726,21.7635094 12.4631726,22.476077 C12.4631726,23.3233129 12.2172592,24.1191063 11.7474143,24.8064018 C12.7563415,27.6962174 14.6704214,30.3655843 17.2841189,32.8766091 C18.8441483,34.3753565 19.976461,35.2699683 22.3357005,36.991906 C22.5509147,36.7320073 22.8295018,36.5424462 23.1515894,36.4446178 C24.1827899,36.1314199 25.323961,36.8472329 25.7144398,38.0269567 C26.1063694,39.20975 25.6016345,40.4324434 24.5666227,40.7475708 C23.5354908,41.0607986 22.3940585,40.3448665 22.003605,39.1650565 C21.8647904,38.7459104 21.8356448,38.3123878 21.9134502,37.9093464 C16.6450634,34.3751853 12.707863,30.651108 10.8191817,25.7814096 C10.154596,26.2866819 9.38403119,26.5876663 8.5700605,26.6517475 C8.23254871,31.5834981 8.59597227,37.6375532 9.23609286,40.8553343 C9.35843294,40.8867142 9.40867591,40.9064976 9.49506714,40.9422372 C10.1242147,41.1491484 10.6510504,41.809747 10.8387279,42.6306776 C11.09629,43.7565733 10.6386536,44.8319775 9.77663421,45.0146352 C8.91775401,45.1966645 8.03732537,44.4091452 7.7805043,43.2853899 C7.56868668,42.3603151 7.78394976,41.5010927 8.34786861,41.1091173 C7.62801558,37.8466209 7.17639469,31.685249 7.46621783,26.5965948 C6.81174874,26.4784271 6.20520754,26.2094693 5.67746147,25.8041647 C5.51608648,26.0738866 5.35986074,26.3486111 5.20853576,26.6283306 C4.36226755,28.1926308 3.70221202,29.8362025 3.11113047,31.7067168 C2.88731365,32.414999 2.27217758,34.584894 2.07263683,35.2164568 C2.33786884,35.4955313 2.48212763,36.0011067 2.45561521,36.583123 C2.41273693,37.5410138 1.84873592,38.3222093 1.15266079,38.3005763 C0.45376797,38.2792207 -0.040512253,37.4614788 0.0026180016,36.5016654 C0.0456077763,35.5563807 0.595468622,34.7831815 1.27892531,34.7842088 C1.49481768,34.0961198 2.12573099,31.8402087 2.33125454,31.1739257 C2.93935275,29.2025435 3.61043045,27.4793017 4.47072725,25.8333408 C4.61098977,25.5649839 4.75535084,25.3009395 4.90401195,25.0412008 C4.31835208,24.3024801 4.0178331,23.4323581 4.0178331,22.476077 C4.0178331,21.3330073 4.44556778,20.2927641 5.25172391,19.5038234 C5.36756527,19.3881019 5.48885803,19.2800421 5.61533939,19.1798032 C5.54026706,18.998212 5.46749657,18.8149768 5.39697933,18.6301024 C4.72803005,16.8763242 4.27533339,15.0239767 3.96975812,13.0050039 C3.85175842,12.2253656 3.75908139,11.4473472 3.67492054,10.5780043 C3.62845386,10.0980249 3.5067803,8.68764421 3.49978202,8.61149851 C3.46629592,8.24714913 3.43676106,7.96920048 3.4057963,7.73821061 C2.73283247,7.61403894 2.33472222,6.75130702 2.46791855,5.81353288 C2.60310239,4.86260161 3.24035019,4.15042078 3.93091088,4.25882281 C4.61907362,4.36627438 5.0286887,5.23853459 4.89343664,6.18761629 C4.81176131,6.76394304 4.57699809,7.23348179 4.26531328,7.45910828 C4.29423565,7.67158725 4.32186827,7.92240298 4.35286555,8.24450427 C4.36088031,8.32778777 4.4835784,9.69137018 4.5306976,10.1567069 C4.61628131,11.001909 4.71102316,11.7591773 4.83210132,12.5182947 C5.14535416,14.4822794 5.61143584,16.2845679 6.30039279,17.9871514 C6.38620358,18.1992112 6.47525317,18.4089813 6.56762164,18.6164502 C7.08633991,18.398025 7.65058369,18.2865801 8.24050284,18.2865801 C8.33764676,18.2865801 8.43481889,18.28993 8.53229158,18.2965555 C10.2314152,11.0804926 11.9892622,6.49287623 14.7765718,2.90788935 C14.5095422,2.26758437 14.8029494,1.42257049 15.4963261,0.761659589 C16.3305536,-0.0341077606 17.4994314,-0.20524577 18.1150776,0.420444806 C18.7335435,1.04794956 18.5218521,2.19777267 17.6857852,2.99467185 C17.0768589,3.57585482 16.2728661,3.8363123 15.6433772,3.66424693 C15.4831596,3.63070083 15.4385098,3.61875563 15.3950304,3.60180901 C12.74463,7.35638489 11.1384375,11.7299721 9.63727157,18.5193691 C10.2056368,18.7177834 10.7263703,19.0403756 11.1832131,19.4760858 C14.6611566,11.4407304 24.4317216,9.06743744 30.5396538,13.3999942 C31.0666861,13.0368641 32.1441092,13.0245417 32.9078715,13.4357016 Z M5.25375205,22.476077 C5.25375205,24.22808 6.60002644,25.5928171 8.24140346,25.5928171 C9.88263038,25.5928171 11.2105922,24.22808 11.2105922,22.476077 C11.2105922,20.7240741 9.88263038,19.359337 8.24140346,19.359337 C6.58156377,19.359337 5.25375205,20.7240741 5.25375205,22.476077 Z" id="Path"></path>
            </g>
        </g>
    </g>
</svg>