<svg id="Ebene_1" data-name="Ebene 1" xmlns="http://www.w3.org/2000/svg" viewBox="0 0 390.01 297.31"><defs><style>.cls-1{fill:#fff;}</style></defs><title>logo-convien</title><path class="cls-1" d="M303.2,225.88a36.35,36.35,0,0,0-11.57-8.13,33.78,33.78,0,0,0-13.89-2.93,31,31,0,0,0-13.11,2.82A34.53,34.53,0,0,0,254,225.22a36.45,36.45,0,0,0-7.19,11,33.7,33.7,0,0,0,0,26.23,35.89,35.89,0,0,0,7.25,11,35,35,0,0,0,10.79,7.58A31.4,31.4,0,0,0,278,283.88a32.21,32.21,0,0,0,13.67-3,39.84,39.84,0,0,0,11.57-8v11.51a44.83,44.83,0,0,1-11.84,6,40.74,40.74,0,0,1-13.06,2.16,42.28,42.28,0,0,1-16.77-3.38,43.89,43.89,0,0,1-23.24-22.8,40.36,40.36,0,0,1-3.49-16.66,42,42,0,0,1,3.43-16.88,44,44,0,0,1,23.19-23.19,42,42,0,0,1,16.88-3.43,40.52,40.52,0,0,1,24.9,8.19v11.51Z" transform="translate(-234.81 -116.27)"/><path class="cls-1" d="M395.95,245.36h0.22a19.89,19.89,0,0,1,6.36-5.75,17.21,17.21,0,0,1,8.47-2,18.79,18.79,0,0,1,8.85,1.83,14.3,14.3,0,0,1,5.42,4.92,19.37,19.37,0,0,1,2.71,7.19,49.77,49.77,0,0,1,.72,8.63v30.88h-8.86V261.74q0-3.1-.28-6a14.79,14.79,0,0,0-1.33-5.09,8.25,8.25,0,0,0-3.27-3.49,11.87,11.87,0,0,0-17.1,5.53,21.86,21.86,0,0,0-1.61,6.64q-0.33,3.65-.33,7.08v24.68h-8.85v-52h8.85v6.31Z" transform="translate(-234.81 -116.27)"/><path class="cls-1" d="M462.79,274l15.49-35h10L462.79,294.5l-25.57-55.45H447.3Z" transform="translate(-234.81 -116.27)"/><path class="cls-1" d="M502.86,213.16a6.3,6.3,0,0,1,4.43,10.79,6.28,6.28,0,0,1-8.85,0,6.21,6.21,0,0,1,0-8.91A6.06,6.06,0,0,1,502.86,213.16Zm4.43,77.91h-8.85v-52h8.85v52Z" transform="translate(-234.81 -116.27)"/><path class="cls-1" d="M530.19,266.94a18,18,0,0,0,1.27,6.81,17.13,17.13,0,0,0,3.49,5.48,16.41,16.41,0,0,0,5.37,3.71,17,17,0,0,0,6.92,1.38,14.69,14.69,0,0,0,9.46-3,25.12,25.12,0,0,0,6.36-7.69l7.53,4.32a28.08,28.08,0,0,1-9.91,10.79,26.17,26.17,0,0,1-14.11,3.82A25.63,25.63,0,0,1,536,290.4a24.2,24.2,0,0,1-8-5.7,24.8,24.8,0,0,1-5.09-8.47,30.53,30.53,0,0,1-1.77-10.51,35.3,35.3,0,0,1,1.66-10.9,26.28,26.28,0,0,1,4.87-9,23,23,0,0,1,7.91-6,25.07,25.07,0,0,1,10.79-2.21A24.45,24.45,0,0,1,557.42,240a22.62,22.62,0,0,1,7.91,6.47,26.67,26.67,0,0,1,4.59,9.41A34.5,34.5,0,0,1,571,266.94H530.19Zm31.54-7.53a16,16,0,0,0-1.83-5.26,18,18,0,0,0-3.38-4.37,14.65,14.65,0,0,0-10.07-4,14.91,14.91,0,0,0-5.53,1.05,16.59,16.59,0,0,0-4.81,2.93,17.12,17.12,0,0,0-3.6,4.37,15.22,15.22,0,0,0-1.88,5.26h31.1Z" transform="translate(-234.81 -116.27)"/><path class="cls-1" d="M592.06,245.36h0.22a19.9,19.9,0,0,1,6.36-5.75,17.2,17.2,0,0,1,8.47-2,18.79,18.79,0,0,1,8.85,1.83,14.3,14.3,0,0,1,5.42,4.92,19.37,19.37,0,0,1,2.71,7.19,49.87,49.87,0,0,1,.72,8.63v30.88H616V261.74q0-3.1-.28-6a14.74,14.74,0,0,0-1.33-5.09,8.24,8.24,0,0,0-3.26-3.49,11.87,11.87,0,0,0-17.1,5.53,21.89,21.89,0,0,0-1.61,6.64q-0.33,3.65-.33,7.08v24.68H583.2v-52h8.85v6.31Z" transform="translate(-234.81 -116.27)"/><path class="cls-1" d="M508.14,205.36c-5.46-2.94-12.73-2.18-15.14.23-35.46-25.85-104-18.76-128.58,41.12-0.32-.35-0.65-0.69-1-1A27.19,27.19,0,0,0,352.24,239c8.74-39.78,19.08-73.37,39.44-101.83A4.76,4.76,0,0,0,394,138c3.72,1,8.65-.48,12.49-4.15,5.12-4.88,6.39-11.77,2.83-15.38s-10.59-2.58-15.71,2.3c-4.48,4.28-6.28,9.75-4.2,13.56-21.16,26.92-32.51,62.77-42.09,103.69a28,28,0,0,0-2.91-.15,27.17,27.17,0,0,0-11.77,2.59c-14.19-31.08-14.08-63.31-16.06-76.6,1.93-1,3.71-3.88,4.3-8,0.82-5.73-1.59-10.86-5.38-11.45s-7.51,3.58-8.33,9.31,1.59,10.86,5.38,11.45a4.56,4.56,0,0,0,.73.05c2,13.49,1.79,46.11,15.14,77.77a26.81,26.81,0,0,0-3.06,2.63,26.58,26.58,0,0,0-1.69,35.89C308.22,308.09,303,336,298.88,347.82a4.4,4.4,0,0,0-.73-0.08c-3.83-.12-7.14,4.47-7.41,10.26s2.63,10.57,6.46,10.69,7.15-4.47,7.4-10.26c0.19-4.17-1-7.37-2.74-8.67,4-11.58,9.25-39,25.12-64.94a26.29,26.29,0,0,0,13.54,6.09c-2.37,39.26,2,80.89,6,98.32-3.83,2-5.36,7.59-4,13.63,1.58,6.9,6.88,11.64,11.83,10.59s7.7-7.5,6.13-14.39c-1.18-5.18-4.47-9.14-8.13-10.35a4.75,4.75,0,0,0-2.36-.57c-3.52-17-7.35-58.37-4.57-97a27.22,27.22,0,0,0,16.7-6.66c15.59,42,59.59,72.15,74.75,82.28a15.24,15.24,0,0,0,.38,8.53c2.4,7.26,9.36,11.62,15.54,9.75s9.24-9.29,6.83-16.55-9.36-11.62-15.54-9.75a10.18,10.18,0,0,0-5.54,4.18c-17.09-12.46-57.89-41.33-72.18-83.1a26.53,26.53,0,0,0,1.39-28.56c22.18-60.84,95.68-65,122.25-41.17a9.7,9.7,0,0,0-.71,5.71,17.38,17.38,0,0,0,10,12.13c3.83,1.75,12.14.69,15.17-5.08C518.27,215.61,512.47,207.7,508.14,205.36Zm-163.74,79.9c-10.93,0-19.9-9.09-19.9-20.76s8.85-20.76,19.9-20.76,19.78,9.09,19.78,20.76S355.33,285.26,344.39,285.26Z" transform="translate(-234.81 -116.27)"/></svg>