<?xml version="1.0" encoding="UTF-8"?>
<svg width="34px" height="45px" viewBox="0 0 34 45" version="1.1" xmlns="http://www.w3.org/2000/svg" xmlns:xlink="http://www.w3.org/1999/xlink">
    <!-- Generator: Sketch 45.2 (43514) - http://www.bohemiancoding.com/sketch -->
    <title>Path</title>
    <desc>Created with Sketch.</desc>
    <defs></defs>
    <g id="Symbols" stroke="none" stroke-width="1" fill="none" fill-rule="evenodd">
        <g id="HNV_GREEN" transform="translate(-40.000000, -40.000000)" fill="#FFFFFF">
            <g id="Logo" transform="translate(40.000000, 40.000000)">
                <path d="M32.7767124,13.4357016 L32.6889219,13.5994321 L32.7767082,13.4356993 C33.7083858,13.93923 34.3424142,15.2728587 33.7999419,16.3125275 C33.3495038,17.1757599 32.0651569,17.5130313 31.2914309,17.1583643 C30.4638536,16.7790454 29.9188578,16.1188622 29.6936208,15.2143089 C29.6274288,14.9484816 29.6612284,14.6623988 29.7617728,14.3671499 C27.768199,12.6509975 24.1256252,12.0029583 20.6376357,12.814312 C16.631869,13.7461076 13.4219631,16.3818027 11.9068117,20.4742504 C12.2399368,21.0808808 12.4134988,21.7635094 12.4134988,22.476077 C12.4134988,23.3233129 12.1685655,24.1191063 11.7005933,24.8064018 C12.7054992,27.6962174 14.6119503,30.3655843 17.2152305,32.8766091 C18.7690422,34.3753565 19.8968419,35.2699683 22.2466783,36.991906 C22.4610347,36.7320073 22.7385115,36.5424462 23.0593154,36.4446178 C24.0864059,36.1314199 25.2230287,36.8472329 25.6119511,38.0269567 C26.0023187,39.20975 25.4995955,40.4324434 24.4687088,40.7475708 C23.4416867,41.0607986 22.3048038,40.3448665 21.9159064,39.1650565 C21.7776451,38.7459104 21.7486156,38.3123878 21.8261109,37.9093464 C16.578722,34.3751853 12.657214,30.651108 10.7760603,25.7814096 C10.1141234,26.2866819 9.34662977,26.5876663 8.53590327,26.6517475 C8.19973668,31.5834981 8.56171177,37.6375532 9.19928107,40.8553343 C9.32113354,40.8867142 9.37117626,40.9064976 9.45722317,40.9422372 C10.0838632,41.1491484 10.6085991,41.809747 10.7955286,42.6306776 C11.0520641,43.7565733 10.5962517,44.8319775 9.73766801,45.0146352 C8.88221101,45.1966645 8.00529144,44.4091452 7.74949397,43.2853899 C7.53852057,42.3603151 7.7529257,41.5010927 8.31459696,41.1091173 C7.59761301,37.8466209 7.14779212,31.685249 7.43646013,26.5965948 C6.78459952,26.4784271 6.18047579,26.2094693 5.65483312,25.8041647 C5.49410132,26.0738866 5.33849823,26.3486111 5.18777638,26.6283306 C4.3448811,28.1926308 3.68745631,29.8362025 3.0987306,31.7067168 C2.87580584,32.414999 2.26312149,34.584894 2.06437604,35.2164568 C2.32855093,35.4955313 2.47223475,36.0011067 2.44582799,36.583123 C2.40312061,37.5410138 1.84136752,38.3222093 1.14806669,38.3005763 C0.451959412,38.2792207 -0.0403507856,37.4614788 0.00260756717,36.5016654 C0.0454259999,35.5563807 0.593095295,34.7831815 1.27382797,34.7842088 C1.48885986,34.0961198 2.11725858,31.8402087 2.32196299,31.1739257 C2.92763753,29.2025435 3.59604056,27.4793017 4.45290852,25.8333408 C4.592612,25.5649839 4.73639769,25.3009395 4.88446629,25.0412008 C4.30114066,24.3024801 4.00181944,23.4323581 4.00181944,22.476077 C4.00181944,21.3330073 4.42784932,20.2927641 5.2307924,19.5038234 C5.34617206,19.3881019 5.46698139,19.2800421 5.59295864,19.1798032 C5.51818552,18.998212 5.44570507,18.8149768 5.37546888,18.6301024 C4.70918579,16.8763242 4.25829343,15.0239767 3.95393607,13.0050039 C3.83640667,12.2253656 3.74409902,11.4473472 3.66027361,10.5780043 C3.61399213,10.0980249 3.49280352,8.68764421 3.48583312,8.61149851 C3.45248049,8.24714913 3.42306335,7.96920048 3.39222201,7.73821061 C2.72194037,7.61403894 2.32541684,6.75130702 2.4580823,5.81353288 C2.59272735,4.86260161 3.2274353,4.15042078 3.91524366,4.25882281 C4.60066363,4.36627438 5.00864613,5.23853459 4.87393314,6.18761629 C4.79258334,6.76394304 4.5587558,7.23348179 4.24831325,7.45910828 C4.27712035,7.67158725 4.30464284,7.92240298 4.33551657,8.24450427 C4.34349938,8.32778777 4.46570845,9.69137018 4.51263985,10.1567069 C4.59788245,11.001909 4.69224669,11.7591773 4.81284228,12.5182947 C5.1248466,14.4822794 5.58907064,16.2845679 6.27528165,17.9871514 C6.36075044,18.1992112 6.44944511,18.4089813 6.54144543,18.6164502 C7.05809627,18.398025 7.62009118,18.2865801 8.20765912,18.2865801 C8.30441586,18.2865801 8.40120069,18.28993 8.49828489,18.2965555 C10.1906364,11.0804926 11.9414773,6.49287623 14.7176776,2.90788935 C14.4517123,2.26758437 14.7439501,1.42257049 15.4345632,0.761659589 C16.2654658,-0.0341077606 17.4296848,-0.20524577 18.0428773,0.420444806 C18.6588782,1.04794956 18.4480306,2.19777267 17.6152959,2.99467185 C17.0087966,3.57585482 16.2080082,3.8363123 15.5810282,3.66424693 C15.4214492,3.63070083 15.3769773,3.61875563 15.3336713,3.60180901 C12.6938344,7.35638489 11.0940437,11.7299721 9.59886082,18.5193691 C10.1649608,18.7177834 10.6836188,19.0403756 11.1386408,19.4760858 C14.6027224,11.4407304 24.3343454,9.06743744 30.4179335,13.3999942 C30.9428653,13.0368641 32.0159942,13.0245417 32.7767124,13.4357016 Z M5.23281246,22.476077 C5.23281246,24.22808 6.57372108,25.5928171 8.20855615,25.5928171 C9.84324172,25.5928171 11.1659107,24.22808 11.1659107,22.476077 C11.1659107,20.7240741 9.84324172,19.359337 8.20855615,19.359337 C6.55533199,19.359337 5.23281246,20.7240741 5.23281246,22.476077 Z" id="Path"></path>
            </g>
        </g>
    </g>
</svg>