<?xml version="1.0" encoding="UTF-8"?>
<svg width="137px" height="23px" viewBox="0 0 137 23" version="1.1" xmlns="http://www.w3.org/2000/svg" xmlns:xlink="http://www.w3.org/1999/xlink">
    <!-- Generator: Sketch 46.2 (44496) - http://www.bohemiancoding.com/sketch -->
    <title>CONVIEN</title>
    <desc>Created with Sketch.</desc>
    <defs></defs>
    <g id="Symbol" stroke="none" stroke-width="1" fill="none" fill-rule="evenodd">
        <g id="HNV_BYOOBE" transform="translate(-89.000000, -53.000000)" fill="#4A4A4A">
            <g id="Logo" transform="translate(40.000000, 40.000000)">
                <path d="M64.95,18.74 C64.1699961,17.8999958 63.4150037,17.3400014 62.685,17.06 C61.9549964,16.7799986 61.2200037,16.64 60.48,16.64 C59.3799945,16.64 58.3850044,16.8349981 57.495,17.225 C56.6049955,17.615002 55.8400032,18.1549966 55.2,18.845 C54.5599968,19.5350035 54.0650017,20.3399954 53.715,21.26 C53.3649982,22.1800046 53.19,23.1699947 53.19,24.23 C53.19,25.3700057 53.3649982,26.4199952 53.715,27.38 C54.0650017,28.3400048 54.5599968,29.1699965 55.2,29.87 C55.8400032,30.5700035 56.6049955,31.119998 57.495,31.52 C58.3850044,31.920002 59.3799945,32.12 60.48,32.12 C61.3400043,32.12 62.1749959,31.9150021 62.985,31.505 C63.795004,31.094998 64.5499965,30.4400045 65.25,29.54 L68.37,31.76 C67.4099952,33.0800066 66.2400069,34.039997 64.86,34.64 C63.4799931,35.240003 62.0100078,35.54 60.45,35.54 C58.8099918,35.54 57.3050068,35.2750027 55.935,34.745 C54.5649931,34.2149974 53.3850049,33.4650049 52.395,32.495 C51.404995,31.5249952 50.6300028,30.3600068 50.07,29 C49.5099972,27.6399932 49.23,26.1300083 49.23,24.47 C49.23,22.7699915 49.5099972,21.225007 50.07,19.835 C50.6300028,18.4449931 51.404995,17.2600049 52.395,16.28 C53.3850049,15.2999951 54.5649931,14.5450027 55.935,14.015 C57.3050068,13.4849974 58.8099918,13.22 60.45,13.22 C61.8900072,13.22 63.2249938,13.4749975 64.455,13.985 C65.6850061,14.4950026 66.8299947,15.3599939 67.89,16.58 L64.95,18.74 Z M69.78,24.47 C69.78,22.7699915 70.0599972,21.2250069 70.62,19.835 C71.1800028,18.444993 71.9549951,17.2600049 72.945,16.28 C73.935005,15.2999951 75.1149932,14.5450026 76.485,14.015 C77.8550068,13.4849973 79.3599918,13.22 81,13.22 C82.6600083,13.1999999 84.1799931,13.4449974 85.56,13.955 C86.9400069,14.4650025 88.129995,15.2099951 89.13,16.19 C90.130005,17.1700049 90.9099972,18.3499931 91.47,19.73 C92.0300028,21.1100069 92.31,22.6499915 92.31,24.35 C92.31,26.0100083 92.0300028,27.5199932 91.47,28.88 C90.9099972,30.2400068 90.130005,31.4099951 89.13,32.39 C88.129995,33.3700049 86.9400069,34.1349972 85.56,34.685 C84.1799931,35.2350027 82.6600083,35.5199999 81,35.54 C79.3599918,35.54 77.8550068,35.2750026 76.485,34.745 C75.1149932,34.2149974 73.935005,33.4650048 72.945,32.495 C71.9549951,31.5249951 71.1800028,30.3600068 70.62,29 C70.0599972,27.6399932 69.78,26.1300083 69.78,24.47 Z M73.74,24.23 C73.74,25.3700057 73.9149982,26.4199952 74.265,27.38 C74.6150018,28.3400048 75.1099968,29.1699965 75.75,29.87 C76.3900032,30.5700035 77.1549955,31.119998 78.045,31.52 C78.9350045,31.920002 79.9299945,32.12 81.03,32.12 C82.1300055,32.12 83.1299955,31.920002 84.03,31.52 C84.9300045,31.119998 85.6999968,30.5700035 86.34,29.87 C86.9800032,29.1699965 87.4749982,28.3400048 87.825,27.38 C88.1750018,26.4199952 88.35,25.3700057 88.35,24.23 C88.35,23.1699947 88.1750018,22.1800046 87.825,21.26 C87.4749982,20.3399954 86.9800032,19.5350034 86.34,18.845 C85.6999968,18.1549965 84.9300045,17.6150019 84.03,17.225 C83.1299955,16.834998 82.1300055,16.64 81.03,16.64 C79.9299945,16.64 78.9350045,16.834998 78.045,17.225 C77.1549955,17.6150019 76.3900032,18.1549965 75.75,18.845 C75.1099968,19.5350034 74.6150018,20.3399954 74.265,21.26 C73.9149982,22.1800046 73.74,23.1699947 73.74,24.23 Z M95.91,13.76 L100.92,13.76 L111.21,29.54 L111.27,29.54 L111.27,13.76 L115.05,13.76 L115.05,35 L110.25,35 L99.75,18.71 L99.69,18.71 L99.69,35 L95.91,35 L95.91,13.76 Z M117.33,13.76 L121.68,13.76 L127.47,29.81 L133.44,13.76 L137.52,13.76 L128.94,35 L125.67,35 L117.33,13.76 Z M139.71,13.76 L143.49,13.76 L143.49,35 L139.71,35 L139.71,13.76 Z M148.14,13.76 L162.21,13.76 L162.21,17.18 L151.92,17.18 L151.92,22.4 L161.67,22.4 L161.67,25.82 L151.92,25.82 L151.92,31.58 L162.75,31.58 L162.75,35 L148.14,35 L148.14,13.76 Z M166.47,13.76 L171.48,13.76 L181.77,29.54 L181.83,29.54 L181.83,13.76 L185.61,13.76 L185.61,35 L180.81,35 L170.31,18.71 L170.25,18.71 L170.25,35 L166.47,35 L166.47,13.76 Z" id="CONVIEN"></path>
            </g>
        </g>
    </g>
</svg>