<?xml version="1.0" encoding="UTF-8"?>
<svg width="294px" height="45px" viewBox="0 0 294 45" version="1.1" xmlns="http://www.w3.org/2000/svg" xmlns:xlink="http://www.w3.org/1999/xlink">
    <!-- Generator: Sketch 46.2 (44496) - http://www.bohemiancoding.com/sketch -->
    <title>logoVenue-w</title>
    <desc>Created with Sketch.</desc>
    <defs></defs>
    <g id="Symbol" stroke="none" stroke-width="1" fill="none" fill-rule="evenodd">
        <g id="HNV_VENUE" transform="translate(-40.000000, -40.000000)" fill="#FFFFFF">
            <g id="logoVenue-w" transform="translate(40.000000, 40.000000)">
                <path d="M64.95,18.74 C64.1699961,17.8999958 63.4150037,17.3400014 62.685,17.06 C61.9549964,16.7799986 61.2200037,16.64 60.48,16.64 C59.3799945,16.64 58.3850044,16.8349981 57.495,17.225 C56.6049955,17.6150019 55.8400032,18.1549965 55.2,18.845 C54.5599968,19.5350035 54.0650018,20.3399954 53.715,21.26 C53.3649982,22.1800046 53.19,23.1699947 53.19,24.23 C53.19,25.3700057 53.3649982,26.4199952 53.715,27.38 C54.0650018,28.3400048 54.5599968,29.1699965 55.2,29.87 C55.8400032,30.5700035 56.6049955,31.119998 57.495,31.52 C58.3850044,31.920002 59.3799945,32.12 60.48,32.12 C61.3400043,32.12 62.1749959,31.9150021 62.985,31.505 C63.7950041,31.0949979 64.5499965,30.4400045 65.25,29.54 L68.37,31.76 C67.4099952,33.0800066 66.2400069,34.039997 64.86,34.64 C63.4799931,35.240003 62.0100078,35.54 60.45,35.54 C58.8099918,35.54 57.3050068,35.2750026 55.935,34.745 C54.5649931,34.2149974 53.385005,33.4650048 52.395,32.495 C51.404995,31.5249951 50.6300028,30.3600068 50.07,29 C49.5099972,27.6399932 49.23,26.1300083 49.23,24.47 C49.23,22.7699915 49.5099972,21.225007 50.07,19.835 C50.6300028,18.4449931 51.404995,17.2600049 52.395,16.28 C53.385005,15.2999951 54.5649931,14.5450027 55.935,14.015 C57.3050068,13.4849974 58.8099918,13.22 60.45,13.22 C61.8900072,13.22 63.2249938,13.4749974 64.455,13.985 C65.6850061,14.4950026 66.8299947,15.3599939 67.89,16.58 L64.95,18.74 Z M69.78,24.47 C69.78,22.7699915 70.0599972,21.225007 70.62,19.835 C71.1800028,18.4449931 71.9549951,17.2600049 72.945,16.28 C73.935005,15.2999951 75.1149932,14.5450026 76.485,14.015 C77.8550068,13.4849974 79.3599918,13.22 81,13.22 C82.6600083,13.1999999 84.1799931,13.4449974 85.56,13.955 C86.9400069,14.4650025 88.129995,15.2099951 89.13,16.19 C90.130005,17.1700049 90.9099972,18.3499931 91.47,19.73 C92.0300028,21.1100069 92.31,22.6499915 92.31,24.35 C92.31,26.0100083 92.0300028,27.5199932 91.47,28.88 C90.9099972,30.2400068 90.130005,31.4099951 89.13,32.39 C88.129995,33.3700049 86.9400069,34.1349972 85.56,34.685 C84.1799931,35.2350027 82.6600083,35.5199999 81,35.54 C79.3599918,35.54 77.8550068,35.2750026 76.485,34.745 C75.1149932,34.2149974 73.935005,33.4650048 72.945,32.495 C71.9549951,31.5249951 71.1800028,30.3600068 70.62,29 C70.0599972,27.6399932 69.78,26.1300083 69.78,24.47 Z M73.74,24.23 C73.74,25.3700057 73.9149982,26.4199952 74.265,27.38 C74.6150018,28.3400048 75.1099968,29.1699965 75.75,29.87 C76.3900032,30.5700035 77.1549955,31.119998 78.045,31.52 C78.9350045,31.920002 79.9299945,32.12 81.03,32.12 C82.1300055,32.12 83.1299955,31.920002 84.03,31.52 C84.9300045,31.119998 85.6999968,30.5700035 86.34,29.87 C86.9800032,29.1699965 87.4749982,28.3400048 87.825,27.38 C88.1750018,26.4199952 88.35,25.3700057 88.35,24.23 C88.35,23.1699947 88.1750018,22.1800046 87.825,21.26 C87.4749982,20.3399954 86.9800032,19.5350035 86.34,18.845 C85.6999968,18.1549965 84.9300045,17.6150019 84.03,17.225 C83.1299955,16.8349981 82.1300055,16.64 81.03,16.64 C79.9299945,16.64 78.9350045,16.8349981 78.045,17.225 C77.1549955,17.6150019 76.3900032,18.1549965 75.75,18.845 C75.1099968,19.5350035 74.6150018,20.3399954 74.265,21.26 C73.9149982,22.1800046 73.74,23.1699947 73.74,24.23 Z M95.91,13.76 L100.92,13.76 L111.21,29.54 L111.27,29.54 L111.27,13.76 L115.05,13.76 L115.05,35 L110.25,35 L99.75,18.71 L99.69,18.71 L99.69,35 L95.91,35 L95.91,13.76 Z M117.33,13.76 L121.68,13.76 L127.47,29.81 L133.44,13.76 L137.52,13.76 L128.94,35 L125.67,35 L117.33,13.76 Z M139.71,13.76 L143.49,13.76 L143.49,35 L139.71,35 L139.71,13.76 Z M148.14,13.76 L162.21,13.76 L162.21,17.18 L151.92,17.18 L151.92,22.4 L161.67,22.4 L161.67,25.82 L151.92,25.82 L151.92,31.58 L162.75,31.58 L162.75,35 L148.14,35 L148.14,13.76 Z M166.47,13.76 L171.48,13.76 L181.77,29.54 L181.83,29.54 L181.83,13.76 L185.61,13.76 L185.61,35 L180.81,35 L170.31,18.71 L170.25,18.71 L170.25,35 L166.47,35 L166.47,13.76 Z M196.05,13.76 L198.9,13.76 L205.44,31.22 L205.5,31.22 L212.25,13.76 L214.92,13.76 L206.61,35 L204.18,35 L196.05,13.76 Z M217.29,13.76 L230.64,13.76 L230.64,16.1 L219.81,16.1 L219.81,22.76 L229.92,22.76 L229.92,25.1 L219.81,25.1 L219.81,32.66 L231.18,32.66 L231.18,35 L217.29,35 L217.29,13.76 Z M235.08,13.76 L238.26,13.76 L250.56,31.4 L250.62,31.4 L250.62,13.76 L253.14,13.76 L253.14,35 L249.96,35 L237.66,17.36 L237.6,17.36 L237.6,35 L235.08,35 L235.08,13.76 Z M274.35,26.9 C274.35,28.0600058 274.205001,29.1599948 273.915,30.2 C273.624999,31.2400052 273.165003,32.154996 272.535,32.945 C271.904997,33.7350039 271.080005,34.3649976 270.06,34.835 C269.039995,35.3050023 267.800007,35.54 266.34,35.54 C264.879993,35.54 263.640005,35.3050023 262.62,34.835 C261.599995,34.3649976 260.775003,33.7350039 260.145,32.945 C259.514997,32.154996 259.055001,31.2400052 258.765,30.2 C258.474999,29.1599948 258.33,28.0600058 258.33,26.9 L258.33,13.76 L260.85,13.76 L260.85,26.54 C260.85,27.4000043 260.939999,28.229996 261.12,29.03 C261.300001,29.830004 261.599998,30.5399969 262.02,31.16 C262.440002,31.7800031 262.999997,32.2749982 263.7,32.645 C264.400004,33.0150018 265.279995,33.2 266.34,33.2 C267.400005,33.2 268.279997,33.0150018 268.98,32.645 C269.680004,32.2749982 270.239998,31.7800031 270.66,31.16 C271.080002,30.5399969 271.379999,29.830004 271.56,29.03 C271.740001,28.229996 271.83,27.4000043 271.83,26.54 L271.83,13.76 L274.35,13.76 L274.35,26.9 Z M279.54,13.76 L292.89,13.76 L292.89,16.1 L282.06,16.1 L282.06,22.76 L292.17,22.76 L292.17,25.1 L282.06,25.1 L282.06,32.66 L293.43,32.66 L293.43,35 L279.54,35 L279.54,13.76 Z" id="CONVIEN-VENUE"></path>
                <path d="M32.7767124,13.3948852 L32.6889219,13.5586157 L32.7767082,13.394883 C33.7083858,13.8984136 34.3424142,15.2320424 33.7999419,16.2717112 C33.3495038,17.1349436 32.0651569,17.472215 31.2914309,17.1175479 C30.4638536,16.7382291 29.9188578,16.0780459 29.6936208,15.1734926 C29.6274288,14.9076653 29.6612284,14.6215825 29.7617728,14.3263336 C27.768199,12.6101812 24.1256252,11.962142 20.6376357,12.7734957 C16.631869,13.7052913 13.4219631,16.3409864 11.9068117,20.4334341 C12.2399368,21.0400645 12.4134988,21.7226931 12.4134988,22.4352607 C12.4134988,23.2824966 12.1685655,24.07829 11.7005933,24.7655855 C12.7054992,27.6554011 14.6119503,30.324768 17.2152305,32.8357928 C18.7690422,34.3345402 19.8968419,35.229152 22.2466783,36.9510897 C22.4610347,36.691191 22.7385115,36.5016299 23.0593154,36.4038015 C24.0864059,36.0906035 25.2230287,36.8064166 25.6119511,37.9861403 C26.0023187,39.1689337 25.4995955,40.3916271 24.4687088,40.7067545 C23.4416867,41.0199823 22.3048038,40.3040501 21.9159064,39.1242401 C21.7776451,38.705094 21.7486156,38.2715715 21.8261109,37.86853 C16.578722,34.334369 12.657214,30.6102917 10.7760603,25.7405933 C10.1141234,26.2458656 9.34662977,26.54685 8.53590327,26.6109311 C8.19973668,31.5426818 8.56171177,37.5967369 9.19928107,40.814518 C9.32113354,40.8458978 9.37117626,40.8656813 9.45722317,40.9014209 C10.0838632,41.1083321 10.6085991,41.7689307 10.7955286,42.5898613 C11.0520641,43.715757 10.5962517,44.7911612 9.73766801,44.9738189 C8.88221101,45.1558482 8.00529144,44.3683288 7.74949397,43.2445736 C7.53852057,42.3194988 7.7529257,41.4602764 8.31459696,41.0683009 C7.59761301,37.8058046 7.14779212,31.6444327 7.43646013,26.5557785 C6.78459952,26.4376108 6.18047579,26.1686529 5.65483312,25.7633483 C5.49410132,26.0330703 5.33849823,26.3077947 5.18777638,26.5875142 C4.3448811,28.1518145 3.68745631,29.7953862 3.0987306,31.6659005 C2.87580584,32.3741827 2.26312149,34.5440777 2.06437604,35.1756405 C2.32855093,35.4547149 2.47223475,35.9602904 2.44582799,36.5423066 C2.40312061,37.5001974 1.84136752,38.281393 1.14806669,38.2597599 C0.451959412,38.2384044 -0.0403507856,37.4206625 0.00260756717,36.4608491 C0.0454259999,35.5155644 0.593095295,34.7423651 1.27382797,34.7433925 C1.48885986,34.0553034 2.11725858,31.7993924 2.32196299,31.1331094 C2.92763753,29.1617272 3.59604056,27.4384854 4.45290852,25.7925245 C4.592612,25.5241675 4.73639769,25.2601231 4.88446629,25.0003845 C4.30114066,24.2616638 4.00181944,23.3915417 4.00181944,22.4352607 C4.00181944,21.292191 4.42784932,20.2519477 5.2307924,19.463007 C5.34617206,19.3472856 5.46698139,19.2392258 5.59295864,19.1389869 C5.51818552,18.9573956 5.44570507,18.7741605 5.37546888,18.5892861 C4.70918579,16.8355079 4.25829343,14.9831604 3.95393607,12.9641876 C3.83640667,12.1845493 3.74409902,11.4065308 3.66027361,10.537188 C3.61399213,10.0572086 3.49280352,8.64682788 3.48583312,8.57068218 C3.45248049,8.2063328 3.42306335,7.92838416 3.39222201,7.69739429 C2.72194037,7.57322261 2.32541684,6.71049069 2.4580823,5.77271655 C2.59272735,4.82178528 3.2274353,4.10960445 3.91524366,4.21800648 C4.60066363,4.32545805 5.00864613,5.19771827 4.87393314,6.14679996 C4.79258334,6.72312671 4.5587558,7.19266547 4.24831325,7.41829196 C4.27712035,7.63077092 4.30464284,7.88158665 4.33551657,8.20368795 C4.34349938,8.28697145 4.46570845,9.65055385 4.51263985,10.1158906 C4.59788245,10.9610927 4.69224669,11.718361 4.81284228,12.4774784 C5.1248466,14.441463 5.58907064,16.2437516 6.27528165,17.9463351 C6.36075044,18.1583948 6.44944511,18.368165 6.54144543,18.5756339 C7.05809627,18.3572087 7.62009118,18.2457638 8.20765912,18.2457638 C8.30441586,18.2457638 8.40120069,18.2491137 8.49828489,18.2557392 C10.1906364,11.0396762 11.9414773,6.45205991 14.7176776,2.86707302 C14.4517123,2.22676804 14.7439501,1.38175416 15.4345632,0.720843262 C16.2654658,-0.0749240872 17.4296848,-0.246062096 18.0428773,0.379628479 C18.6588782,1.00713323 18.4480306,2.15695634 17.6152959,2.95385552 C17.0087966,3.53503849 16.2080082,3.79549597 15.5810282,3.6234306 C15.4214492,3.5898845 15.3769773,3.57793931 15.3336713,3.56099268 C12.6938344,7.31556857 11.0940437,11.6891557 9.59886082,18.4785528 C10.1649608,18.6769671 10.6836188,18.9995593 11.1386408,19.4352694 C14.6027224,11.399914 24.3343454,9.02662111 30.4179335,13.3591779 C30.9428653,12.9960477 32.0159942,12.9837254 32.7767124,13.3948852 Z M5.23281246,22.4352607 C5.23281246,24.1872637 6.57372108,25.5520008 8.20855615,25.5520008 C9.84324172,25.5520008 11.1659107,24.1872637 11.1659107,22.4352607 C11.1659107,20.6832577 9.84324172,19.3185207 8.20855615,19.3185207 C6.55533199,19.3185207 5.23281246,20.6832577 5.23281246,22.4352607 Z" id="Path"></path>
            </g>
        </g>
    </g>
</svg>