<?xml version="1.0" encoding="UTF-8"?>
<svg width="270px" height="45px" viewBox="0 0 270 45" version="1.1" xmlns="http://www.w3.org/2000/svg" xmlns:xlink="http://www.w3.org/1999/xlink">
    <!-- Generator: Sketch 46.2 (44496) - http://www.bohemiancoding.com/sketch -->
    <title>Logo</title>
    <desc>Created with Sketch.</desc>
    <defs></defs>
    <g id="-" stroke="none" stroke-width="1" fill="none" fill-rule="evenodd">
        <g id="HNV_EASY" transform="translate(-40.000000, -40.000000)" fill="#FFFFFF">
            <g id="Logo" transform="translate(40.000000, 40.000000)">
                <path d="M64.95,18.74 C64.1699961,17.8999958 63.4150037,17.3400014 62.685,17.06 C61.9549964,16.7799986 61.2200037,16.64 60.48,16.64 C59.3799945,16.64 58.3850044,16.8349981 57.495,17.225 C56.6049955,17.6150019 55.8400032,18.1549965 55.2,18.845 C54.5599968,19.5350035 54.0650018,20.3399954 53.715,21.26 C53.3649982,22.1800046 53.19,23.1699947 53.19,24.23 C53.19,25.3700057 53.3649982,26.4199952 53.715,27.38 C54.0650018,28.3400048 54.5599968,29.1699965 55.2,29.87 C55.8400032,30.5700035 56.6049955,31.119998 57.495,31.52 C58.3850044,31.920002 59.3799945,32.12 60.48,32.12 C61.3400043,32.12 62.1749959,31.9150021 62.985,31.505 C63.7950041,31.0949979 64.5499965,30.4400045 65.25,29.54 L68.37,31.76 C67.4099952,33.0800066 66.2400069,34.039997 64.86,34.64 C63.4799931,35.240003 62.0100078,35.54 60.45,35.54 C58.8099918,35.54 57.3050068,35.2750026 55.935,34.745 C54.5649931,34.2149974 53.385005,33.4650048 52.395,32.495 C51.404995,31.5249951 50.6300028,30.3600068 50.07,29 C49.5099972,27.6399932 49.23,26.1300083 49.23,24.47 C49.23,22.7699915 49.5099972,21.225007 50.07,19.835 C50.6300028,18.4449931 51.404995,17.2600049 52.395,16.28 C53.385005,15.2999951 54.5649931,14.5450027 55.935,14.015 C57.3050068,13.4849974 58.8099918,13.22 60.45,13.22 C61.8900072,13.22 63.2249938,13.4749974 64.455,13.985 C65.6850061,14.4950026 66.8299947,15.3599939 67.89,16.58 L64.95,18.74 Z M69.78,24.47 C69.78,22.7699915 70.0599972,21.225007 70.62,19.835 C71.1800028,18.4449931 71.9549951,17.2600049 72.945,16.28 C73.935005,15.2999951 75.1149932,14.5450026 76.485,14.015 C77.8550068,13.4849974 79.3599918,13.22 81,13.22 C82.6600083,13.1999999 84.1799931,13.4449974 85.56,13.955 C86.9400069,14.4650025 88.129995,15.2099951 89.13,16.19 C90.130005,17.1700049 90.9099972,18.3499931 91.47,19.73 C92.0300028,21.1100069 92.31,22.6499915 92.31,24.35 C92.31,26.0100083 92.0300028,27.5199932 91.47,28.88 C90.9099972,30.2400068 90.130005,31.4099951 89.13,32.39 C88.129995,33.3700049 86.9400069,34.1349972 85.56,34.685 C84.1799931,35.2350027 82.6600083,35.5199999 81,35.54 C79.3599918,35.54 77.8550068,35.2750026 76.485,34.745 C75.1149932,34.2149974 73.935005,33.4650048 72.945,32.495 C71.9549951,31.5249951 71.1800028,30.3600068 70.62,29 C70.0599972,27.6399932 69.78,26.1300083 69.78,24.47 Z M73.74,24.23 C73.74,25.3700057 73.9149982,26.4199952 74.265,27.38 C74.6150018,28.3400048 75.1099968,29.1699965 75.75,29.87 C76.3900032,30.5700035 77.1549955,31.119998 78.045,31.52 C78.9350045,31.920002 79.9299945,32.12 81.03,32.12 C82.1300055,32.12 83.1299955,31.920002 84.03,31.52 C84.9300045,31.119998 85.6999968,30.5700035 86.34,29.87 C86.9800032,29.1699965 87.4749982,28.3400048 87.825,27.38 C88.1750018,26.4199952 88.35,25.3700057 88.35,24.23 C88.35,23.1699947 88.1750018,22.1800046 87.825,21.26 C87.4749982,20.3399954 86.9800032,19.5350035 86.34,18.845 C85.6999968,18.1549965 84.9300045,17.6150019 84.03,17.225 C83.1299955,16.8349981 82.1300055,16.64 81.03,16.64 C79.9299945,16.64 78.9350045,16.8349981 78.045,17.225 C77.1549955,17.6150019 76.3900032,18.1549965 75.75,18.845 C75.1099968,19.5350035 74.6150018,20.3399954 74.265,21.26 C73.9149982,22.1800046 73.74,23.1699947 73.74,24.23 Z M95.91,13.76 L100.92,13.76 L111.21,29.54 L111.27,29.54 L111.27,13.76 L115.05,13.76 L115.05,35 L110.25,35 L99.75,18.71 L99.69,18.71 L99.69,35 L95.91,35 L95.91,13.76 Z M117.33,13.76 L121.68,13.76 L127.47,29.81 L133.44,13.76 L137.52,13.76 L128.94,35 L125.67,35 L117.33,13.76 Z M139.71,13.76 L143.49,13.76 L143.49,35 L139.71,35 L139.71,13.76 Z M148.14,13.76 L162.21,13.76 L162.21,17.18 L151.92,17.18 L151.92,22.4 L161.67,22.4 L161.67,25.82 L151.92,25.82 L151.92,31.58 L162.75,31.58 L162.75,35 L148.14,35 L148.14,13.76 Z M166.47,13.76 L171.48,13.76 L181.77,29.54 L181.83,29.54 L181.83,13.76 L185.61,13.76 L185.61,35 L180.81,35 L170.31,18.71 L170.25,18.71 L170.25,35 L166.47,35 L166.47,13.76 Z M198.96,13.76 L212.31,13.76 L212.31,16.1 L201.48,16.1 L201.48,22.76 L211.59,22.76 L211.59,25.1 L201.48,25.1 L201.48,32.66 L212.85,32.66 L212.85,35 L198.96,35 L198.96,13.76 Z M223.65,13.76 L226.02,13.76 L235.05,35 L232.11,35 L229.95,29.78 L219.33,29.78 L217.14,35 L214.29,35 L223.65,13.76 Z M224.79,17 L224.73,17 L220.32,27.44 L228.99,27.44 L224.79,17 Z M247.95,17.51 C247.529998,16.8299966 246.970004,16.3350016 246.27,16.025 C245.569997,15.7149985 244.840004,15.56 244.08,15.56 C243.519997,15.56 242.970003,15.6299993 242.43,15.77 C241.889997,15.9100007 241.405002,16.1199986 240.975,16.4 C240.544998,16.6800014 240.200001,17.0499977 239.94,17.51 C239.679999,17.9700023 239.55,18.5099969 239.55,19.13 C239.55,19.6100024 239.624999,20.0349981 239.775,20.405 C239.925001,20.7750019 240.169998,21.1099985 240.51,21.41 C240.850002,21.7100015 241.309997,21.9899987 241.89,22.25 C242.470003,22.5100013 243.179996,22.7699987 244.02,23.03 C244.840004,23.2900013 245.634996,23.5699985 246.405,23.87 C247.175004,24.1700015 247.854997,24.5499977 248.445,25.01 C249.035003,25.4700023 249.504998,26.0449966 249.855,26.735 C250.205002,27.4250034 250.38,28.2899948 250.38,29.33 C250.38,30.3900053 250.170002,31.3099961 249.75,32.09 C249.329998,32.8700039 248.775003,33.5149974 248.085,34.025 C247.394997,34.5350026 246.600005,34.9149987 245.7,35.165 C244.799996,35.4150013 243.870005,35.54 242.91,35.54 C242.289997,35.54 241.670003,35.4850005 241.05,35.375 C240.429997,35.2649995 239.835003,35.0950012 239.265,34.865 C238.694997,34.6349989 238.160003,34.3350018 237.66,33.965 C237.159998,33.5949982 236.730002,33.1400027 236.37,32.6 L238.53,30.83 C238.990002,31.6100039 239.629996,32.199998 240.45,32.6 C241.270004,33.000002 242.139995,33.2 243.06,33.2 C243.600003,33.2 244.144997,33.1200008 244.695,32.96 C245.245003,32.7999992 245.739998,32.5650015 246.18,32.255 C246.620002,31.9449984 246.979999,31.5600023 247.26,31.1 C247.540001,30.6399977 247.68,30.110003 247.68,29.51 C247.68,28.8499967 247.570001,28.3150021 247.35,27.905 C247.129999,27.4949979 246.790002,27.1400015 246.33,26.84 C245.869998,26.5399985 245.290004,26.2700012 244.59,26.03 C243.889997,25.7899988 243.070005,25.5100016 242.13,25.19 C241.369996,24.9499988 240.670003,24.6750015 240.03,24.365 C239.389997,24.0549984 238.835002,23.6750022 238.365,23.225 C237.894998,22.7749978 237.525001,22.2350032 237.255,21.605 C236.984999,20.9749969 236.85,20.2200044 236.85,19.34 C236.85,18.3199949 237.049998,17.4300038 237.45,16.67 C237.850002,15.9099962 238.389997,15.2750026 239.07,14.765 C239.750003,14.2549974 240.519996,13.8700013 241.38,13.61 C242.240004,13.3499987 243.139995,13.22 244.08,13.22 C245.280006,13.22 246.374995,13.4049981 247.365,13.775 C248.355005,14.1450019 249.239996,14.7899954 250.02,15.71 L247.95,17.51 Z M259.56,25.85 L251.64,13.76 L254.85,13.76 L260.82,23.36 L266.97,13.76 L270,13.76 L262.08,25.85 L262.08,35 L259.56,35 L259.56,25.85 Z" id="CONVIEN-EASY"></path>
                <path d="M32.9078715,13.4357016 L32.8197297,13.5994321 L32.9078673,13.4356993 C33.8432731,13.93923 34.4798386,15.2728587 33.9351955,16.3125275 C33.482955,17.1757599 32.1934686,17.5130313 31.4166465,17.1583643 C30.5857576,16.7790454 30.0385809,16.1188622 29.8124426,15.2143089 C29.7459858,14.9484816 29.7799206,14.6623988 29.8808673,14.3671499 C27.8793161,12.6509975 24.2221662,12.0029583 20.7202191,12.814312 C16.698423,13.7461076 13.4756724,16.3818027 11.954458,20.4742504 C12.288916,21.0808808 12.4631726,21.7635094 12.4631726,22.476077 C12.4631726,23.3233129 12.2172592,24.1191063 11.7474143,24.8064018 C12.7563415,27.6962174 14.6704214,30.3655843 17.2841189,32.8766091 C18.8441483,34.3753565 19.976461,35.2699683 22.3357005,36.991906 C22.5509147,36.7320073 22.8295018,36.5424462 23.1515894,36.4446178 C24.1827899,36.1314199 25.323961,36.8472329 25.7144398,38.0269567 C26.1063694,39.20975 25.6016345,40.4324434 24.5666227,40.7475708 C23.5354908,41.0607986 22.3940585,40.3448665 22.003605,39.1650565 C21.8647904,38.7459104 21.8356448,38.3123878 21.9134502,37.9093464 C16.6450634,34.3751853 12.707863,30.651108 10.8191817,25.7814096 C10.154596,26.2866819 9.38403119,26.5876663 8.5700605,26.6517475 C8.23254871,31.5834981 8.59597227,37.6375532 9.23609286,40.8553343 C9.35843294,40.8867142 9.40867591,40.9064976 9.49506714,40.9422372 C10.1242147,41.1491484 10.6510504,41.809747 10.8387279,42.6306776 C11.09629,43.7565733 10.6386536,44.8319775 9.77663421,45.0146352 C8.91775401,45.1966645 8.03732537,44.4091452 7.7805043,43.2853899 C7.56868668,42.3603151 7.78394976,41.5010927 8.34786861,41.1091173 C7.62801558,37.8466209 7.17639469,31.685249 7.46621783,26.5965948 C6.81174874,26.4784271 6.20520754,26.2094693 5.67746147,25.8041647 C5.51608648,26.0738866 5.35986074,26.3486111 5.20853576,26.6283306 C4.36226755,28.1926308 3.70221202,29.8362025 3.11113047,31.7067168 C2.88731365,32.414999 2.27217758,34.584894 2.07263683,35.2164568 C2.33786884,35.4955313 2.48212763,36.0011067 2.45561521,36.583123 C2.41273693,37.5410138 1.84873592,38.3222093 1.15266079,38.3005763 C0.45376797,38.2792207 -0.040512253,37.4614788 0.0026180016,36.5016654 C0.0456077763,35.5563807 0.595468622,34.7831815 1.27892531,34.7842088 C1.49481768,34.0961198 2.12573099,31.8402087 2.33125454,31.1739257 C2.93935275,29.2025435 3.61043045,27.4793017 4.47072725,25.8333408 C4.61098977,25.5649839 4.75535084,25.3009395 4.90401195,25.0412008 C4.31835208,24.3024801 4.0178331,23.4323581 4.0178331,22.476077 C4.0178331,21.3330073 4.44556778,20.2927641 5.25172391,19.5038234 C5.36756527,19.3881019 5.48885803,19.2800421 5.61533939,19.1798032 C5.54026706,18.998212 5.46749657,18.8149768 5.39697933,18.6301024 C4.72803005,16.8763242 4.27533339,15.0239767 3.96975812,13.0050039 C3.85175842,12.2253656 3.75908139,11.4473472 3.67492054,10.5780043 C3.62845386,10.0980249 3.5067803,8.68764421 3.49978202,8.61149851 C3.46629592,8.24714913 3.43676106,7.96920048 3.4057963,7.73821061 C2.73283247,7.61403894 2.33472222,6.75130702 2.46791855,5.81353288 C2.60310239,4.86260161 3.24035019,4.15042078 3.93091088,4.25882281 C4.61907362,4.36627438 5.0286887,5.23853459 4.89343664,6.18761629 C4.81176131,6.76394304 4.57699809,7.23348179 4.26531328,7.45910828 C4.29423565,7.67158725 4.32186827,7.92240298 4.35286555,8.24450427 C4.36088031,8.32778777 4.4835784,9.69137018 4.5306976,10.1567069 C4.61628131,11.001909 4.71102316,11.7591773 4.83210132,12.5182947 C5.14535416,14.4822794 5.61143584,16.2845679 6.30039279,17.9871514 C6.38620358,18.1992112 6.47525317,18.4089813 6.56762164,18.6164502 C7.08633991,18.398025 7.65058369,18.2865801 8.24050284,18.2865801 C8.33764676,18.2865801 8.43481889,18.28993 8.53229158,18.2965555 C10.2314152,11.0804926 11.9892622,6.49287623 14.7765718,2.90788935 C14.5095422,2.26758437 14.8029494,1.42257049 15.4963261,0.761659589 C16.3305536,-0.0341077606 17.4994314,-0.20524577 18.1150776,0.420444806 C18.7335435,1.04794956 18.5218521,2.19777267 17.6857852,2.99467185 C17.0768589,3.57585482 16.2728661,3.8363123 15.6433772,3.66424693 C15.4831596,3.63070083 15.4385098,3.61875563 15.3950304,3.60180901 C12.74463,7.35638489 11.1384375,11.7299721 9.63727157,18.5193691 C10.2056368,18.7177834 10.7263703,19.0403756 11.1832131,19.4760858 C14.6611566,11.4407304 24.4317216,9.06743744 30.5396538,13.3999942 C31.0666861,13.0368641 32.1441092,13.0245417 32.9078715,13.4357016 Z M5.25375205,22.476077 C5.25375205,24.22808 6.60002644,25.5928171 8.24140346,25.5928171 C9.88263038,25.5928171 11.2105922,24.22808 11.2105922,22.476077 C11.2105922,20.7240741 9.88263038,19.359337 8.24140346,19.359337 C6.58156377,19.359337 5.25375205,20.7240741 5.25375205,22.476077 Z" id="Path"></path>
            </g>
        </g>
    </g>
</svg>